<svg id="Слой_1" data-name="Слой 1" xmlns="http://www.w3.org/2000/svg" viewBox="0 0 60 60"><defs><style>.cls-1{fill:none;stroke:#070707;stroke-miterlimit:10;stroke-width:2px}.cls-2{fill:#070707}</style></defs><title>animal</title><path class="cls-1" d="M54.48 34.71a30.64 30.64 0 0 0-1.93-12.27L48.49 2l-5.17 12.7a54.49 54.49 0 0 0-23.38-.8L11.57 2.15l-2.9 21.64a28.25 28.25 0 0 0-1.4 10.92 27.6 27.6 0 0 0 .78 4.82l-2.28 2.82 3 1.35-.87 4 3.84.47a22.56 22.56 0 0 0 6.6 6.59 23 23 0 0 0 12.54 3.6A23.3 23.3 0 0 0 45 53.94a21.8 21.8 0 0 0 4.5-4.5l4.1-.23-1.7-3.79 3.15-1.23-1.65-2.86a30.11 30.11 0 0 0 1.08-6.62z"/><path class="cls-2" d="M19.21 31.72a2.12 2.12 0 0 0 3.09-.1c.56-.92-.32-2.62-1.55-2.9a1.75 1.75 0 0 0-1.64.48 2 2 0 0 0 .1 2.52zM40.47 31a2.08 2.08 0 0 1 1.35-2.71 2.18 2.18 0 0 1 2.51 2.22 2 2 0 0 1-1.55 1.64A2 2 0 0 1 40.47 31zm-6.09 4.92c0-.58-1.32-1.29-2.61-1.35S29 35.19 29 35.73s.86.36 1.64 1.26.67 1.7 1.06 1.74.5-.9 1.55-1.84c.67-.63 1.11-.64 1.13-.97z"/><path class="cls-1" d="M24.72 18.58l-.29-4.93m6.66 6.76a40.07 40.07 0 0 0 0-4.06c-.06-1.13-.16-2.2-.29-3.19m5.61 6.77q.17-6.28.1-6.28s-.1.84-.19 2.51m-7.47 28.75c-.17 2.34 1 4.16 2.17 4.35s3.31-1.47 3.48-4.35"/></svg>