<svg id="Слой_1" data-name="Слой 1" xmlns="http://www.w3.org/2000/svg" viewBox="0 0 60 60"><defs><style>.cls-1{fill:none;stroke:#070707;stroke-miterlimit:10;stroke-width:2px}</style></defs><title>animal</title><path class="cls-1" d="M13.2 35.55a2.42 2.42 0 0 0-4.76-.13m-3.98-.61l4.2 10.53A4.85 4.85 0 0 0 14.95 48l1.59-.64L57.72 31l-2.4-6"/><circle class="cls-1" cx="10.83" cy="35.06" r="2.42" transform="rotate(-29.08 10.826 35.049)"/><path class="cls-1" d="M55.32 25l1.41-.78L44.3 1.82 5.17 23.56 4 24.2a4.85 4.85 0 0 0-1.88 6.58l7.73 13.9a4.85 4.85 0 0 0 6.58 1.88l1.5-.83L55.32 25m-26.97 9.29l5.58-21.09"/><rect class="cls-1" x="20.19" y="18.24" width="7.1" height="7.1" rx="3.45" ry="3.45" transform="rotate(-29.08 23.729 21.791)"/><rect class="cls-1" x="33.96" y="21.65" width="7.71" height="7.71" rx="3.74" ry="3.74" transform="rotate(-29.08 37.806 25.504)"/><path class="cls-1" d="M10.44 37.3a1.74 1.74 0 0 0 .28-1.38 1.87 1.87 0 0 0-1.38-1.1c-1.88-.32-5.9 5.18-5.86 9.93C3.52 50.22 9 55.58 17 58.18M5 39.3a2.2 2.2 0 0 0 2 .07"/></svg>