<svg id="Слой_2" data-name="Слой 2" xmlns="http://www.w3.org/2000/svg" viewBox="0 0 500 424"><defs><style>.cls-1,.cls-4,.cls-6{fill:none}.cls-1{stroke:#070707}.cls-1,.cls-3,.cls-4,.cls-6{stroke-miterlimit:10}.cls-2,.cls-3{fill:#070707}.cls-3,.cls-4{stroke:#000333}.cls-5{fill:#333}.cls-6{stroke:#333}</style></defs><title>category</title><path class="cls-1" d="M386.11 139.56a117.23 117.23 0 0 0-7.39-46.94l-15.53-78.37-19.76 48.57A208.45 208.45 0 0 0 254 59.77L222 15l-11.12 82.8a108.08 108.08 0 0 0-5.36 41.76 105.59 105.59 0 0 0 3 18.42l-8.71 10.79 11.44 5.23-3.33 15.16 14.67 1.79a86.32 86.32 0 0 0 25.26 25.2c20.57 13.3 40.81 13.7 48 13.75 7.37.06 31.62-.07 54.06-16.71a83.4 83.4 0 0 0 17.22-17.23l15.69-.89-6.49-14.51 12-4.71-6.33-10.97a115.18 115.18 0 0 0 4.11-25.32z"/><path class="cls-1" d="M251.17 128.11c3.25 3.56 9.86 2.83 11.83-.37 2.15-3.5-1.22-10-5.91-11.09a6.71 6.71 0 0 0-6.28 1.85c-2.41 2.63-1.92 7.11.36 9.61z"/><path class="cls-2" d="M309.21 144.2c.12-2.23-5.07-5-10-5.18-5.27-.24-10.78 2.37-10.72 4.44 0 1.57 3.28 1.37 6.28 4.81s2.56 6.52 4.07 6.65 1.93-3.43 5.92-7c2.71-2.45 4.39-2.47 4.45-3.72z"/><path class="cls-1" d="M272.25 77.84L271.14 59m25.51 25.86a153.29 153.29 0 0 0 0-15.53c-.22-4.34-.61-8.42-1.11-12.2M317 83q.66-24 .37-24t-.74 9.61"/><path class="cls-3" d="M303.94 173.29a16.56 16.56 0 0 1-4.25-9.25c-.1 1.11-.92 8.9-7.13 12.44A12.61 12.61 0 0 1 288 178a25.07 25.07 0 0 0 2.21 11.29c4.9-4.14 10.32-2.2 14.54 1.24a24.76 24.76 0 0 0 4.94-13.29 16.17 16.17 0 0 1-5.75-3.95z"/><path class="cls-1" d="M290.22 189.28c1.61 3.39 3.9 5.59 6.18 5.93 2.47.37 5.69-1.33 8.36-4.7-4.22-3.44-9.64-5.37-14.54-1.23z"/><path class="cls-4" d="M217.05 248.46c8.74 55.35 15.65 97.27 18.2 120.93.94 8.76 2.78 28.9 16.58 47.73a79.19 79.19 0 0 0 5.67 6.88h34a12.6 12.6 0 0 0-10.11-14.56l3-121.34M268 413.48a8.72 8.72 0 0 1 5.66 9.3m5.28-9.3a13.18 13.18 0 0 1 3.64 10.52m88.48-175.54c-8.74 55.35-15.65 97.27-18.2 120.93-.94 8.76-2.78 28.9-16.58 47.73a79.19 79.19 0 0 1-5.66 6.88h-34a12.6 12.6 0 0 1 10.11-14.56l-3-121.34m16.37 125.38a8.72 8.72 0 0 0-5.66 9.3m-5.26-9.3a13.18 13.18 0 0 0-3.64 10.52"/><path class="cls-4" d="M218.09 191c-5.72 5.09-100.92 91.76-77 168.66 5.21 16.79 22.9 55 49.55 59.86 4.43.8 16.84 3.06 27.5-4 7.28-4.85 11-12.19 12.13-14.56 1.85-3.77 2.85-5.81 2.43-8.49-1-6.65-9.85-11.15-17-11.53-2.4-.13-6.85-.37-10.31 2.43-4 3.19-3.42 7.77-7.28 9.71-2.49 1.25-5.33.66-7.28 0m22.31-5.08a18.79 18.79 0 0 1 4.45-6.37"/><path class="cls-4" d="M223.65 391.44a11 11 0 0 1 2.93-3.64 10.88 10.88 0 0 1 2.53-1.52"/><path class="cls-5" d="M207.88 407.92c-3.52-2.79-2.68-8.66-1.21-11.83a7.32 7.32 0 0 1 2.93-3.64c4-2.23 11 .33 12.54 5.26a8.44 8.44 0 0 1-1 6.67c-2.67 4.27-9.45 6.57-13.26 3.54z"/><path class="cls-4" d="M148.93 377.89c-7.15-1.86-69.08-19.07-89-75.63-2.18-6.26-17.06-48.55 6.07-82.51 9.94-14.58 30.87-33.48 53-29.93 16.26 2.61 31.52 17.09 29.53 23.86-1.25 4.25-9.69 6.74-16.18 5.26-8-1.83-9.06-8.81-15-10.92C106.9 204.28 89.7 219 81 233.5c-14.63 24.36-10.64 56.93 2.43 80.08 17.76 31.48 49.65 40.9 57 42.87"/><path class="cls-5" d="M66 219.75c1.1-1.6 24.6-34.85 53-29.93 15.79 2.74 31.54 17 29.53 23.86-1.25 4.25-9.69 6.74-16.18 5.26-7.62-1.74-7.74-8.94-15-10.92-6.8-1.86-13.46 2.43-19.11 6.07A50.31 50.31 0 0 0 81 233.5z"/><path class="cls-4" d="M221.69 412.55l27 .25m87.7 3.01a43.15 43.15 0 0 0 11 3.74c4.37.84 16.52 3.27 27.5-4 7.28-4.85 11-12.19 12.13-14.56 1.85-3.77 2.85-5.81 2.43-8.49-1-6.65-9.85-11.15-17-11.53-2.4-.13-6.85-.37-10.31 2.43-4 3.19-3.42 7.77-7.28 9.71-2.49 1.25-5.33.66-7.28 0M370 388a18.79 18.79 0 0 1 4.45-6.37"/><path class="cls-4" d="M380.5 391.44a11 11 0 0 1 2.93-3.64 10.88 10.88 0 0 1 2.53-1.52"/><path class="cls-5" d="M364.73 407.92c-3.52-2.79-2.68-8.66-1.21-11.83a7.32 7.32 0 0 1 2.93-3.64c4-2.23 11 .33 12.54 5.26a8.44 8.44 0 0 1-1 6.67c-2.67 4.27-9.45 6.57-13.26 3.54z"/><path class="cls-4" d="M364.1 199.93C379 237 400 306.81 369.36 369.4a147.91 147.91 0 0 1-7.79 14M191 337.45c.86 4.15 5.82 26 25.89 37.21a49.74 49.74 0 0 0 20.22 6.07m45.29 2.82a59 59 0 0 0 23.86-1.62m-16.81 33.58a14.17 14.17 0 0 0 4.68.25 15.15 15.15 0 0 0 4.53-1.26m54.52-46.72a58.57 58.57 0 0 0 12.94-25.89M181.69 230.67a39.57 39.57 0 0 0 2.83 17.39 39.11 39.11 0 0 0 6.07 10.11m-22.25-8.9a27.44 27.44 0 0 0 2.83 16.18 27 27 0 0 0 8.09 9.3m-25.07-2.02a29.26 29.26 0 0 0 4.45 11.73 28.71 28.71 0 0 0 4.45 5.26m57.83-205.47c3.62-3.1 4.85-5.95 5.26-8.09.3-1.59.2-3 1.21-3.64 1.59-.93 3.55 1.67 6.07.81a5.6 5.6 0 0 0 2.83-2.83c.77-1.52.4-2.38.81-3.24.6-1.26 2.81-2.33 9.71-1.62L225 31.27z"/><path class="cls-1" d="M270.57 172.22c7.78 6.25 17.39 7.23 23.05 3 4.45-3.29 5.8-9.27 6.07-10.62a19.94 19.94 0 0 0-.61-10m27.3 16.4c-6.13 6.48-15 7.74-20.63 3.94-4.77-3.23-5.61-9.05-5.76-10.31"/><path class="cls-2" d="M258.48 150.39a2.5 2.5 0 0 0 3.64-.11c.66-1.08-.37-3.09-1.82-3.41a2.06 2.06 0 0 0-1.93.57 2.29 2.29 0 0 0 .11 2.95zm.76 6.38a2.5 2.5 0 0 0 3.64-.11c.66-1.08-.37-3.09-1.82-3.41a2.06 2.06 0 0 0-1.93.57 2.29 2.29 0 0 0 .11 2.95zm-3.54 9.39a2.5 2.5 0 0 0 3.64-.11c.66-1.08-.37-3.09-1.82-3.41a2.06 2.06 0 0 0-1.93.57 2.29 2.29 0 0 0 .11 2.95z"/><path class="cls-1" d="M260.56 149a265.34 265.34 0 0 0-81.3-8.49m82.11 14.93c-9.84-.24-20.54 0-32 .81a323.69 323.69 0 0 0-48.13 7.28m76.08 1.21a191.69 191.69 0 0 0-63.9 17.8"/><path class="cls-2" d="M337.29 151.65a2.5 2.5 0 0 1-3.64-.11c-.66-1.08.37-3.09 1.82-3.41a2.06 2.06 0 0 1 1.93.57 2.29 2.29 0 0 1-.11 2.95zm-.76 6.35a2.5 2.5 0 0 1-3.64-.11c-.66-1.08.37-3.09 1.82-3.41a2.06 2.06 0 0 1 1.93.57 2.29 2.29 0 0 1-.11 2.95zm3.54 9.42a2.5 2.5 0 0 1-3.64-.11c-.66-1.08.37-3.09 1.82-3.41a2.06 2.06 0 0 1 1.93.57 2.29 2.29 0 0 1-.11 2.95zm-44.74 89.3a1.17 1.17 0 0 1-1.7-.05 1.24 1.24 0 0 1 .85-1.59 1 1 0 0 1 .9.27 1.07 1.07 0 0 1-.05 1.37zm44.18-136.06a2.5 2.5 0 0 1-3.64-.11c-.66-1.08.37-3.09 1.82-3.41a2.06 2.06 0 0 1 1.93.57 2.29 2.29 0 0 1-.11 2.95zm-81.45 4.25a2.5 2.5 0 0 1-3.64-.11c-.66-1.08.37-3.09 1.82-3.41a2.06 2.06 0 0 1 1.93.57 2.29 2.29 0 0 1-.11 2.95z"/><path class="cls-1" d="M335.21 150.22a265.34 265.34 0 0 1 81.3-8.49m-82.11 14.96c9.84-.24 20.54 0 32 .81a323.69 323.69 0 0 1 48.13 7.28M338.45 166a191.69 191.69 0 0 1 63.9 17.8"/><path class="cls-2" d="M378.72 92.62l-15.53-78.37-19.76 48.57a208.55 208.55 0 0 0-46-6.43q-4.77-.13-9.29 0 .76 6.06 1.59 12.13c4.94 32.92 27.75 64.7 58.2 78.73a265.06 265.06 0 0 1 26.57-4.26q5.9-.64 11.5-1c.06-.79.12-1.58.16-2.39a117.23 117.23 0 0 0-7.44-46.98zm-34.27 30.88c-2 3.2-8.58 3.93-11.83.37-2.29-2.5-2.77-7-.37-9.61a6.71 6.71 0 0 1 6.28-1.85c4.71 1.05 8.08 7.59 5.92 11.09zm22.48-50.57c-1-1.95-1.66-4-2.83-4s-1.51 1.83-3.24 2a3.33 3.33 0 0 1-2.37-.8c-1.13-1-.83-2.26-1.4-3-.83-1.13-3.19-1.77-9.84.21l15.07-37.84 9.85 50a21.38 21.38 0 0 1-5.24-6.57z"/><path class="cls-5" d="M349.88 213.14c-22.45 16.64-46.69 16.77-54.06 16.71-7.16-.06-27.4-.45-48-13.75a85.49 85.49 0 0 1-19.1-16.91c0 .11-.1.22-.14.34-4.61 13.45 17 33 32.76 41.25 26 13.69 59 8.74 79.27-10.52 5.18-4.92 14.71-14 16.09-22.82a81.59 81.59 0 0 1-6.82 5.7zm-55.31 32.38a2.92 2.92 0 1 1 2.92-2.92 2.92 2.92 0 0 1-2.92 2.92z"/><circle class="cls-6" cx="294.57" cy="266.56" r="12.79"/><path class="cls-6" d="M292.79 253.78a17 17 0 0 1-.58-3.29c-.24-3.25.67-7.44 2.12-7.58s3.08 3.08 3.24 6.07c.18 3.53-1.86 7.21-3.24 7.08"/><path class="cls-2" d="M220.52 269.6c1.82 1 17.42 9.57 20.63 28.51 3.25 19.15-8.94 32.52-10.31 34q-2.64-14.85-5.16-30-2.68-16.44-5.16-32.51zm122.24 135.9c-4.2 0-12.21-24.63-4.85-46.71 4.8-14.39 15.66-26.31 18.81-24.87 1.9.87-.31 6-3 27.3-1.51 11.82-2.17 20.7-6.07 33.37-2.27 7.26-3.39 10.9-4.89 10.91z"/></svg>