<svg id="Слой_1" data-name="Слой 1" xmlns="http://www.w3.org/2000/svg" viewBox="0 0 160 160"><defs><style>.cls-1,.cls-2{fill:none;stroke:#070707;stroke-miterlimit:10}.cls-2{stroke-width:2px}</style></defs><title>info-discount</title><path class="cls-1" d="M47.14 93.48a5.36 5.36 0 0 0-10.55-.29m93.56-49.29l-5.31-13.29-1.71.68"/><path class="cls-1" d="M27.76 91.83l9.33 23.36a10.76 10.76 0 0 0 13.94 6l3.53-1.41 91.32-36.48-5.32-13.3"/><circle class="cls-1" cx="41.89" cy="92.39" r="5.36" transform="rotate(-29.08 41.899 92.385)"/><path class="cls-1" d="M140.56 70l3.13-1.74-27.58-49.59L29.33 66.9l-2.49 1.39A10.76 10.76 0 0 0 22.7 82.9l17.15 30.83a10.76 10.76 0 0 0 14.59 4.16l3.31-1.89 82.81-46"/><path class="cls-2" d="M80.75 90.69l12.37-46.78"/><rect class="cls-2" x="62.65" y="55.08" width="15.76" height="15.76" rx="7.88" ry="7.88" transform="rotate(-29.5 69.496 62.744)"/><rect class="cls-2" x="93.19" y="62.66" width="17.1" height="17.1" rx="8.55" ry="8.55" transform="rotate(-29.08 101.747 71.222)"/><path class="cls-1" d="M41 97.37a3.87 3.87 0 0 0 .61-3.06 4.15 4.15 0 0 0-3.06-2.45c-4.16-.72-13.08 11.5-13 22 .1 12.15 12.27 24 30 29.8M29 101.8a4.88 4.88 0 0 0 4.43.15"/></svg>