<svg id="Слой_1" data-name="Слой 1" xmlns="http://www.w3.org/2000/svg" viewBox="0 0 160 160"><defs><style>.cls-1{fill:none;stroke:#070707;stroke-miterlimit:10}</style></defs><title>info</title><path class="cls-1" d="M38.38 108.75a12 12 0 0 0-23.59 0m2.27 0a9.66 9.66 0 1 0 19 0m-16.06 0a6.83 6.83 0 1 0 13.25 0m32.75 0a12 12 0 0 0-23.59 0m2.31 0a9.66 9.66 0 1 0 19 0m-16.11 0a6.83 6.83 0 1 0 13.25 0"/><path class="cls-1" d="M149.17 76l-10.84-16.83-20-.67-.83-23.5H12.75v73.75H117.5v-3.67a3.66 3.66 0 0 0 1.07 2.59 3.75 3.75 0 0 0 2.59 1.07 13.67 13.67 0 0 1 6-7.92c.69-.41 6.28-3.59 12-.67a12.72 12.72 0 0 1 6.33 8.58H158V79.65a6.86 6.86 0 0 0-3.83-3.65h-5z"/><circle class="cls-1" cx="133.47" cy="110.42" r="9.66"/><circle class="cls-1" cx="133.47" cy="110.42" r="6.83"/><path class="cls-1" d="M144.63 76l-19.29-.17v-13.5h11.5zm-18 4.75h4.5"/><path d="M25.26 70.82L26 62.7c3.17-.22 7-1.84 8.29 2.95 1 3.64-.12 6-3.86 8.17l4.45 5-.31.37-7.07-6.47-.53.42v5.49l-1.68-.89v-7zm1.38-3.14c.29 3.78.74 4.34 3.28 4.1 2.2-.21 3.5-2 3.3-4.49a4 4 0 0 0-4.22-4c-2.14.24-2.61 1.12-2.36 4.39zm23 16.2a5.36 5.36 0 0 1-.22-1.79 4.81 4.81 0 0 1 1-1.69c1.16-1.55 1-2.78.06-4.62-1.37-2.59-1.86-5.64-2.73-8.49l.85-.29 2.89 9.36h1.1l3.14-9.21h.49a5.35 5.35 0 0 1 0 1.86c-1.69 4.21-3.46 8.39-5.2 12.58-.32.78-.62 1.56-.92 2.35h-.46zm32.13-19.61l-7.21-.7v-.42l8.78-.61a19.7 19.7 0 0 1-1 3.26c-1.81 3.36-3.71 6.67-5.73 10.26l6.09.82v.52h-8.24a12 12 0 0 1 .82-2.49c1.67-2.8 3.44-5.54 5.16-8.31.41-.66.77-1.34 1.33-2.33zM65.25 78l-1-1.31c-2.7 1.26-4.44 1-5.16-.88-.93-2.38 1.35-5 5.28-6.07-.5-2.18-.5-2.18-4.32-1.85C62 65.75 65 66.2 65.52 69a66.4 66.4 0 0 1 .6 8.89zm-.86-6.74c-2.34 0-4.45 1.54-4.2 3.18A2.47 2.47 0 0 0 62 76.05c2.15.11 2.75-1.15 2.38-4.76zm-19.31.55c-.35 1.6-.31 2.76-.85 3.5-.78 1.08-2 2.67-3 2.58a5.22 5.22 0 0 1-3.54-2.53c-1.31-2.55-.49-5.24.93-7.58 1-1.67 3-1.75 4.37-.07a19.9 19.9 0 0 1 2.09 4.1zm-1.39.26v-.86c-.21-1.69-.88-3.3-2.7-3.43s-1.81 1.85-2.27 3.12a4.37 4.37 0 0 0-.12.85c-.39 2.74.59 4.77 2.33 4.8 1.51.05 2.74-1.93 2.76-4.48zm48.99.47c-.08.57-.12 1.15-.26 1.7-.57 2.31-2.11 3.91-3.59 3.79-2-.17-3.88-2.54-3.73-4.92a15 15 0 0 1 .9-4.21c1-2.65 3.5-3.06 5.16-.77A20.65 20.65 0 0 1 93 72.38zm-.94-.76a7.26 7.26 0 0 0-.74-2.45 3.5 3.5 0 0 0-2.32-1.55c-.67 0-1.54 1.16-1.84 2a6.84 6.84 0 0 0-.53 3.78 4.62 4.62 0 0 0 2.29 2.94c1.6.57 2.31-1 2.77-2.35a14.65 14.65 0 0 0 .37-2.38zm12.71.58a18.39 18.39 0 0 1-.28 1.92c-.58 2.32-2.13 3.9-3.61 3.75-2-.21-3.86-2.59-3.69-5a15.06 15.06 0 0 1 .91-4.21c1-2.64 3.51-3 5.18-.71a20.68 20.68 0 0 1 1.8 4zm-1-.42a7.17 7.17 0 0 0-.08-1.08c-.31-1.58-1-3.06-2.76-3.15s-1.87 1.66-2.27 2.92a8.61 8.61 0 0 0-.21 1.06c-.47 2.56.53 4.72 2.26 4.92s2.97-1.73 3.02-4.67zM71 63.5v14.7c-.58-1.05-1.16-1.62-1.15-2.17.1-4.18.32-8.36.51-12.53z"/><path class="cls-1" d="M120.17 58.33l-.33-13.5a22.65 22.65 0 0 1 12.67 7 21.62 21.62 0 0 1 4.17 7M16.5 37.33l97.83.5.5 68.33m42.67-25.99l-7.33.33a5 5 0 0 0 7.33 6m.17 16.33h-7l-.17-2.83 7.67.17M122 114.41h-19.14m19.14 4.34H94m64 3.08H1.33m29.17-7.42H11.36m19.14 4.34h-28"/></svg>