<svg id="Слой_1" data-name="Слой 1" xmlns="http://www.w3.org/2000/svg" viewBox="0 0 200 160"><defs><style>.cls-1{fill:none;stroke:#070707;stroke-miterlimit:10}.cls-2{fill:#070707}</style></defs><title>type</title><path class="cls-1" d="M122.56 108.66c.48.28 3.5 2 6 .67 2.16-1.13 2.58-3.87 2.88-6 .94-6.78-1.8-12.39-3.75-16.25-2.8-5.55-5.34-10.59-10.12-11.37a9.12 9.12 0 0 0-5 .69 34.55 34.55 0 0 0-21.25-.07 7.26 7.26 0 0 0-3.62-.75c-.85.06-4.08.53-9.12 8.5-2.23 3.52-7.06 11.37-5.75 20.25.48 3.21 1.45 4.48 2.46 5.17 2.78 1.89 6.74 0 7.25-.25"/><path class="cls-1" d="M78.81 89.16c.52-1.57 1.95-5.35 4.5-6.83a2.28 2.28 0 0 1 2-.42c.92.43 1 1.9 1 2A43.92 43.92 0 0 0 83 96.58c-.59 5.73-1.45 14.16 3 19.58 7.71 9.32 29.13 7.25 34.92-2.67 2.7-4.63 1.84-10.72 1-16.58a47.3 47.3 0 0 0-3.75-12.83 2.85 2.85 0 0 1 1.5-1.33A3.05 3.05 0 0 1 122 83c1.81.8 3.66 4.17 4.83 8.83"/><path class="cls-2" d="M93.35 90.66a1.83 1.83 0 0 0 2.65-.08 2 2 0 0 0-1.33-2.5 1.51 1.51 0 0 0-1.42.42 1.68 1.68 0 0 0 .1 2.16zm14.01-.38a1.8 1.8 0 0 1 1.17-2.33 1.88 1.88 0 0 1 2.17 1.92 1.72 1.72 0 0 1-1.33 1.42 1.76 1.76 0 0 1-2.01-1.01zm-2.55 11.17c0-.5-1.14-1.12-2.25-1.17s-2.43.53-2.42 1 .74.31 1.42 1.08.58 1.47.92 1.5.44-.77 1.33-1.58c.61-.54.98-.55 1-.83z"/><path class="cls-1" d="M100.64 109.2c-.15 2 .87 3.59 1.88 3.75s2.86-1.27 3-3.75"/><path class="cls-1" d="M54.75 38.89h94.7v116.33h-94.7z"/><rect class="cls-1" x="53.26" y="33.7" width="98.11" height="5.18" rx="2.59" ry="2.59"/><rect class="cls-1" x="53.26" y="155.22" width="98.11" height="5.18" rx="2.59" ry="2.59"/><path class="cls-1" d="M56.31 33.37a10.87 10.87 0 0 0 6.51-4.86c2.62-4.75 0-10.36-2.5-13.25A13.65 13.65 0 0 0 46.08 11c-5.55 1.8-10.24 7.7-9 13.25.69 3.09 3.43 7.06 7.75 7.25a8.23 8.23 0 0 0 8.25-6.5c.46-2.73-.68-6.43-3-7-2.72-.67-6.71 3-6 6.25.44 2 2.56 3 3 3.25l-1.5 1.25a9.52 9.52 0 0 1-1.92-1.83A6.67 6.67 0 0 1 42 23.51a6.1 6.1 0 0 1 1.5-4.42 7.58 7.58 0 0 1 3.92-2.42c1.37-.43 3-.93 4.42-.17 1.08.57 1.55 1.55 2.17 2.83a9.38 9.38 0 0 1 1 4.33A9.5 9.5 0 0 1 53.83 28a10 10 0 0 1-3.33 3.83 10.23 10.23 0 0 1-7.83 1.33A10.1 10.1 0 0 1 38 30.42a11.2 11.2 0 0 1-2.92-7 13.79 13.79 0 0 1 2.83-9.5 14.06 14.06 0 0 1 7.5-4.75 16.23 16.23 0 0 1 10.25.58 15.94 15.94 0 0 1 7.42 5.58c1 1.39 4.07 5.7 2.67 10.92a12.24 12.24 0 0 1-5.58 7.08m3.77.12a6.33 6.33 0 0 1 .87-1.5c2.08-2.64 5.67-2.73 6.51-2.75a10.42 10.42 0 0 1 5.56 1.5c.13-.32 1.85-4.57 6.29-5.5a8.7 8.7 0 0 1 7 1.75c.17-.33 2.51-4.62 7.25-5A9 9 0 0 1 104 24.2a8.07 8.07 0 0 1 4.55-1.2c3.45.18 6.61 2.83 8.14 6.75a6.21 6.21 0 0 1 4.67-3.17 6.13 6.13 0 0 1 5.16 2.33c5.85-1.26 10.69-1 13.22 0a9.91 9.91 0 0 1 3.45 2.33 8 8 0 0 1 1.38 2.25M54.81 98.87a72.33 72.33 0 0 1 12.33-18.5c28.19-30.61 74.16-25.79 82.17-24.83m-94.5 82.16a88 88 0 0 0 35 2.17c33.85-4.83 54.06-28.49 59.5-35.33"/></svg>