<svg id="Слой_1" data-name="Слой 1" xmlns="http://www.w3.org/2000/svg" viewBox="0 0 200 160"><defs><style>.cls-1{fill:none;stroke:#070707;stroke-miterlimit:10}.cls-2{fill:#070707}</style></defs><title>type</title><path class="cls-1" d="M171.43 100.95a6.38 6.38 0 0 0-4.68-4H32.65a6.37 6.37 0 0 0-4.46 3.42C24.71 117.71 17.74 137.12 4 155q-2 2.6-4 5h200q-2.24-2.84-4.42-5.9a156.47 156.47 0 0 1-24.15-53.15zm-5.17-4.18c.08-5.15-2.29-9.86-6.06-12-5.22-3-10.23.51-10.81.93-5 3.61-5.49 10.11-5.54 10.8"/><path class="cls-1" d="M144.91 91.22c-2.1-5-6.21-8.32-10.54-8.33-5.8 0-11.25 5.85-11.86 13.88m-37.74.03a6.22 6.22 0 0 1 11.53.2"/><path class="cls-1" d="M90.67 93a11.59 11.59 0 0 0-9.55-6.72 11.54 11.54 0 0 0-10.81 5.55A10.68 10.68 0 0 0 69 97.08m1.57-6.17c-.43-.48-4.57-4.91-10.28-3.7-4.35.93-7.92 4.76-9.23 9.87m-.56-.58a28 28 0 0 0-7.33-7.17 8.83 8.83 0 0 0-3.83-1.5 7 7 0 0 0-4.17.67c-2.22 1.33-3.22 4.72-2.33 8.33m24.55-9.62a12.27 12.27 0 0 0-4.22-4.94 10.06 10.06 0 0 0-9.49-.62 12.73 12.73 0 0 0-5.8 5.86m87.26 1.24a13 13 0 0 0-8.44-3.39 10.64 10.64 0 0 0-6.37 1.81c-4.41 3.13-4.35 8.9-4.33 9.5m4.12-9.77a13 13 0 0 0-10.28-3.09c-6.07 1-9.25 6.24-9.75 7.1m35.05-31.78c.43.7 3.58 6 1.32 11.11a8.62 8.62 0 0 1-9.46 4.94c-4.82-.94-8.75-6.54-8.17-12.34.36-3.61 2.48-7.35 5.8-8.64 4.37-1.7 8.53 1.71 10.51 4.93zM67.94 43.4c2.84 4.32 1.37 12-2.9 15.43-4.87 3.93-12.08 1.28-14.5-4a11.37 11.37 0 0 1 0-9.26c1.76-3.67 5.16-4.51 6.85-4.94 1.02-.26 7.49-1.87 10.55 2.77zm74.6 5.86c-5.2 3.43-13.35-1.87-13.71-8-.27-4.75 4.11-9.86 9-10.18A8.43 8.43 0 0 1 146 36c2.11 4.72 0 10.94-3.46 13.26zM95.88 20.88c5.62.71 10 7.89 9 12.34-1.45 5.92-13.18 9.09-17.13 3.39-2.08-3-2.14-8.67.53-12.34a8.43 8.43 0 0 1 7.6-3.39zm-4.72 24.48c-.16-5.12-5.65-9.66-10.81-9.26S69.94 42 70.6 47.51c.54 4.51 4.74 7.46 8.17 8 5.79.98 12.59-4.3 12.39-10.15z"/><path class="cls-1" d="M55.83 40.83a9.16 9.16 0 0 0-4-4.22c-3.38-1.74-8.75-1.61-11.07 2.16a10.94 10.94 0 0 0 .53 11.42 8.78 8.78 0 0 0 5.95 3.58 7.44 7.44 0 0 0 2.49-.19M94.3 74.56c-.33 1.22-1.39 5.15-4.48 6.79-3.55 1.88-8.49.07-10.82-4.35-2.13-4-1.67-9.53 1.05-12.65 4.19-4.8 12.13-2.16 14.23 2.78 1.24 2.87.35 6.21.02 7.43zm1.32-3.39a10.23 10.23 0 0 1 8.17 2.16c5.29 4.33 4.77 12.32 4.74 12.65m-17.24 2.9A8.92 8.92 0 0 1 89.55 81m-16.08 6.83c.79-7.09-3.69-13.21-9-13.58-4.45-.31-8.84 3.51-10 9.26"/><path class="cls-1" d="M65.57 73.63c1.1-7.85 5.78-13.55 11.07-14.19 3.77-.45 6.76 1.8 7.91 2.78M72.95 83.2a6 6 0 0 0 5.27-.31 7.22 7.22 0 0 0 2.64-2.78M141.75 85c-1.68-5.26-6-8.73-10.81-8.64s-9 3.68-10.54 8.95m22.71-28.77a5.52 5.52 0 0 0-5.12 3c-1.94 4.27 3.21 10.57 5.49 12.84 1.62 1.62 4 4 6.95 3.42.13 0 3.23-.65 4-3.21.73-2.34-.94-4.78-3.66-8.78-3.16-4.67-4.87-7.17-7.66-7.27zM51.67 68.1c-.1 4.59-4.33 7.27-6 8.35-1.55 1-4.44 2.81-6.58 1.28a4.66 4.66 0 0 1-1.83-3.42c-.11-2.11 1.39-3.09 6.22-8.35 3.23-3.52 3.83-4.47 4.94-4.28 1.84.32 3.31 3.62 3.25 6.42zm69.68-13.7a25.87 25.87 0 0 0-6-7.49c-2.45-2.05-6.44-5.38-9.51-3.64a6 6 0 0 0-2.74 5.35c.14 1.68 1.15 2.76 2.38 4.07a14.18 14.18 0 0 0 5.49 3.64M157 82.83a8.35 8.35 0 0 0-1.82-6.6 6.92 6.92 0 0 0-2-1.5"/><path class="cls-1" d="M143.29 72.81a5.62 5.62 0 0 0-4.39 1.07 7.49 7.49 0 0 0-2.56 3.85m-4.2-1.5a9.05 9.05 0 0 0-1.65-3.85 7 7 0 0 0-3.66-2.57m-17-1.07a4.6 4.6 0 0 0-3.84 1.5 6.18 6.18 0 0 0-1.46 3.21m-3.79-2.57a14.17 14.17 0 0 0-1-9.13c-.41-.82-2.86-5.53-7.56-5.71-3.26-.12-6.36 2-8 5.42M58.8 74.88a8.34 8.34 0 0 0-3.41-4.57 6.19 6.19 0 0 0-3.9-.86M39.05 78a6.4 6.4 0 0 0-1.22 3.14 6.81 6.81 0 0 0 1 4.28m80.75 54.91c.48.28 3.5 2 6 .67 2.16-1.13 2.58-3.87 2.88-6 .94-6.78-1.8-12.39-3.75-16.25-2.8-5.55-5.34-10.59-10.12-11.37a9.12 9.12 0 0 0-5 .69 34.55 34.55 0 0 0-21.3-.07 7.26 7.26 0 0 0-3.62-.75c-.85.06-4.08.53-9.12 8.5-2.23 3.52-7.06 11.37-5.75 20.25.48 3.21 1.45 4.48 2.46 5.17 2.78 1.89 6.74 0 7.25-.25"/><path class="cls-1" d="M75.83 120.83c.52-1.57 1.95-5.35 4.5-6.83a2.28 2.28 0 0 1 2-.42c.92.43 1 1.9 1 2A43.92 43.92 0 0 0 80 128.25c-.59 5.73-1.45 14.16 3 19.58 7.71 9.32 29.13 7.25 34.92-2.67 2.7-4.63 1.84-10.72 1-16.58a47.3 47.3 0 0 0-3.75-12.83 2.85 2.85 0 0 1 1.5-1.33 3.05 3.05 0 0 1 2.25.25c1.81.8 3.66 4.17 4.83 8.83"/><path class="cls-2" d="M90.38 122.33a1.83 1.83 0 0 0 2.67-.08 2 2 0 0 0-1.33-2.5 1.51 1.51 0 0 0-1.42.42 1.68 1.68 0 0 0 .08 2.16zm14.01-.33a1.8 1.8 0 0 1 1.17-2.33 1.88 1.88 0 0 1 2.17 1.92 1.72 1.72 0 0 1-1.33 1.42 1.76 1.76 0 0 1-2.01-1.01zm-2.56 11.13c0-.5-1.14-1.12-2.25-1.17s-2.43.53-2.42 1 .74.31 1.42 1.08.58 1.47.92 1.5.44-.77 1.33-1.58c.61-.55.99-.55 1-.83z"/><path class="cls-1" d="M97.67 140.88c-.15 2 .87 3.59 1.88 3.75s2.86-1.27 3-3.75m10.78-84.05c-.27.4-3.26 4.87-1.33 9.67a9.18 9.18 0 0 0 5 5.17 8.52 8.52 0 0 0 4 .5m11.5-28.67a7.84 7.84 0 0 0 5 2.83 8.37 8.37 0 0 0 8.17-5m-16.67 46a8.45 8.45 0 0 0-1.83 6 7.88 7.88 0 0 0 1.17 3.33m22.16-8.16a6.93 6.93 0 0 0-1.67 4.83 6.66 6.66 0 0 0 1.17 3.34m-9.83-15.84A13.17 13.17 0 0 0 149.5 85m-39.67-9.67a7.88 7.88 0 0 0 1.34 5.67 7.48 7.48 0 0 0 2.83 2.33m1.33 4.5a5.88 5.88 0 0 1 6.33 4.5m-22.99-4.5a4.5 4.5 0 0 0-2 1.5 4.65 4.65 0 0 0-.83 3.33M81.83 67.17c-1.86 3.55-1.45 7.54.83 9.83a7.36 7.36 0 0 0 4.67 2m-3.16-38.33a7 7 0 0 1 1.5 7.17 7.34 7.34 0 0 1-4.83 4.33m8.66-21.84a6.21 6.21 0 0 0 10 3.5M52.83 53.67A6.38 6.38 0 0 0 64.67 51m-22.5-6a7.54 7.54 0 0 0 5.5 4.83m12.66 29a4.54 4.54 0 0 0-1.5 4.33 4.4 4.4 0 0 0 1.67 2.5m-4 9.34a6.37 6.37 0 0 1 1.5-2.33 6.27 6.27 0 0 1 1.33-1m-11-7.34a7.15 7.15 0 0 1 2.17 6.17"/></svg>