<svg id="Слой_1" data-name="Слой 1" xmlns="http://www.w3.org/2000/svg" viewBox="0 0 200 160"><defs><style>.cls-1{fill:none;stroke:#070707;stroke-miterlimit:10}.cls-2{fill:#070707}</style></defs><title>type</title><path class="cls-1" d="M171.43 100.95a6.38 6.38 0 0 0-4.68-4H32.65a6.37 6.37 0 0 0-4.46 3.42C24.71 117.71 17.74 137.12 4 155q-2 2.6-4 5h200q-2.24-2.84-4.42-5.9a156.47 156.47 0 0 1-24.15-53.15zm-12.57-4.25c.07-4.64-2.06-8.87-5.46-10.83-4.69-2.7-9.21.46-9.73.83-4.47 3.25-4.94 9.1-5 9.72"/><path class="cls-1" d="M90.83 93.3a10.43 10.43 0 0 0-8.59-6 10.39 10.39 0 0 0-9.73 5 9.61 9.61 0 0 0-1.18 4.7m-16.65-.55a25.23 25.23 0 0 0-6.6-6.45 7.94 7.94 0 0 0-3.45-1.35 6.26 6.26 0 0 0-3.75.6c-2 1.19-2.9 4.25-2.1 7.5m22.11-8.66a11 11 0 0 0-3.8-4.44 9.05 9.05 0 0 0-8.54-.56 11.46 11.46 0 0 0-5.22 5.28m78.53 1.11a11.66 11.66 0 0 0-7.59-3.05 9.57 9.57 0 0 0-5.74 1.57c-4 2.82-3.91 8-3.9 8.55m17.23-33.73c.38.63 3.22 5.41 1.19 10a7.76 7.76 0 0 1-8.54 4.44c-4.34-.85-7.87-5.89-7.35-11.11.32-3.25 2.23-6.61 5.22-7.77 3.92-1.53 7.7 1.54 9.48 4.44zM95.52 28.39c5.05.64 9 7.1 8.07 11.11-1.3 5.33-11.86 8.18-15.42 3.05-1.88-2.71-1.92-7.8.47-11.11a7.58 7.58 0 0 1 6.88-3.05zM59.48 46.35a8.24 8.24 0 0 0-3.58-3.8c-3-1.57-7.88-1.45-10 1.94a9.85 9.85 0 0 0 .47 10.27 7.9 7.9 0 0 0 5.4 3.24 6.69 6.69 0 0 0 2.23-.18m41.29 15.83a9.21 9.21 0 0 1 7.35 1.94c4.76 3.9 4.29 11.08 4.27 11.38m-15.52 2.62a8 8 0 0 1-1.56-7.05"/><path class="cls-1" d="M75.36 88.64c.71-6.38-3.32-11.89-8.07-12.22-4-.28-8 3.16-9 8.33m9.95-8.88c1-7.06 5.21-12.2 10-12.77a9.59 9.59 0 0 1 7.12 2.5"/><path class="cls-1" d="M74.88 84.48a5.44 5.44 0 0 0 4.74-.28A6.5 6.5 0 0 0 82 81.7m54.8 4.44c-1.51-4.73-5.42-7.85-9.73-7.77s-8.09 3.31-9.49 8.05M138 60.49a5 5 0 0 0-4.61 2.7c-1.74 3.84 2.88 9.51 4.94 11.56 1.46 1.45 3.59 3.58 6.25 3.08.12 0 2.9-.59 3.62-2.89.66-2.1-.84-4.3-3.29-7.9-2.84-4.21-4.37-6.47-6.91-6.55zm-19.56-1.93a23.29 23.29 0 0 0-5.44-6.74c-2.21-1.85-5.79-4.84-8.56-3.27a5.38 5.38 0 0 0-2.44 4.81c.13 1.51 1 2.48 2.14 3.66a12.76 12.76 0 0 0 4.94 3.27m-9.18 13.1a12.76 12.76 0 0 0-.9-8.22c-.37-.74-2.58-5-6.8-5.14-2.93-.11-5.72 1.78-7.24 4.88M62.16 77a7.51 7.51 0 0 0-3.07-4.11 5.57 5.57 0 0 0-3.51-.77m-11.2 7.69a5.76 5.76 0 0 0-1.1 2.83 6.13 6.13 0 0 0 .88 3.85m75.42 53.84c.48.28 3.5 2 6 .67 2.16-1.13 2.58-3.87 2.88-6 .94-6.78-1.8-12.39-3.75-16.25-2.8-5.55-5.34-10.59-10.12-11.37a9.12 9.12 0 0 0-5 .69 34.55 34.55 0 0 0-21.3-.07 7.26 7.26 0 0 0-3.62-.75c-.85.06-4.08.53-9.12 8.5-2.23 3.52-7.06 11.37-5.75 20.25.48 3.21 1.45 4.48 2.46 5.17 2.78 1.89 6.74 0 7.25-.25"/><path class="cls-1" d="M75.83 120.83c.52-1.57 1.95-5.35 4.5-6.83a2.28 2.28 0 0 1 2-.42c.92.43 1 1.9 1 2A43.92 43.92 0 0 0 80 128.25c-.59 5.73-1.45 14.16 3 19.58 7.71 9.32 29.13 7.25 34.92-2.67 2.7-4.63 1.84-10.72 1-16.58a47.3 47.3 0 0 0-3.75-12.83 2.85 2.85 0 0 1 1.5-1.33 3.05 3.05 0 0 1 2.25.25c1.81.8 3.66 4.17 4.83 8.83"/><path class="cls-2" d="M90.38 122.33a1.83 1.83 0 0 0 2.67-.08 2 2 0 0 0-1.33-2.5 1.51 1.51 0 0 0-1.42.42 1.68 1.68 0 0 0 .08 2.16zm14.01-.33a1.8 1.8 0 0 1 1.17-2.33 1.88 1.88 0 0 1 2.17 1.92 1.72 1.72 0 0 1-1.33 1.42 1.76 1.76 0 0 1-2.01-1.01zm-2.56 11.13c0-.5-1.14-1.12-2.25-1.17s-2.43.53-2.42 1 .74.31 1.42 1.08.58 1.47.92 1.5.44-.77 1.33-1.58c.61-.55.99-.55 1-.83z"/><path class="cls-1" d="M97.67 140.88c-.15 2 .87 3.59 1.88 3.75s2.86-1.27 3-3.75m8.68-80.13c-.25.36-2.93 4.38-1.2 8.7a8.26 8.26 0 0 0 4.5 4.65 7.66 7.66 0 0 0 3.6.45m15.66-21.17a7.06 7.06 0 0 0 4.86-1.78 7.54 7.54 0 0 0 1.35-8.51M125.33 88.2a7.61 7.61 0 0 0-1.65 5.4 7.1 7.1 0 0 0 1 3m-16.6-19.2a7.09 7.09 0 0 0 1.2 5.1 6.73 6.73 0 0 0 2.55 2.1m1.17 4.05a5.29 5.29 0 0 1 5.7 4m-20.7-4A4 4 0 0 0 96.23 90a4.18 4.18 0 0 0-.75 3m-12.6-22.95c-1.67 3.19-1.31 6.79.75 8.85a6.62 6.62 0 0 0 4.2 1.8M85 46.2a6.33 6.33 0 0 1 1.35 6.45 6.61 6.61 0 0 1-4.35 3.9m7.78-19.65a5.59 5.59 0 0 0 9 3.15m-42 17.85a5.74 5.74 0 0 0 10.65-2.4m-20.25-5.4a6.78 6.78 0 0 0 4.95 4.35m11.4 26.1a4.09 4.09 0 0 0-1.35 3.9 4 4 0 0 0 1.5 2.25m-3.6 8.4a5.74 5.74 0 0 1 1.35-2.1 5.64 5.64 0 0 1 1.2-.9m-9.9-6.6a6.44 6.44 0 0 1 1.95 5.5"/><path class="cls-1" d="M35.17 96.45a8.25 8.25 0 0 1 .5-5c1.06-2.27 2.77-2.62 3.5-4.75s-.42-2.76-.5-5.25c-.16-5.19 4.51-6.88 3.75-10.25-.62-2.77-4.43-4.52-7-5-5-.94-7.59 2.46-10.5.75-2-1.18-3.11-4.19-2.25-6 1.12-2.37 5.58-2.74 8.75-2 7.07 1.65 10.72 9.56 12.75 8.5.7-.37.29-1.31 1.5-2.75 1.52-1.81 3.15-1.49 3.5-2.5.56-1.61-3.39-3-5.5-7-1.79-3.42.14-4.19-1.5-9-1.52-4.47-3.72-5.39-3.75-9.25 0-.86 0-3.56 1.5-4.25 1.07-.49 2.49.2 3.25 1a4 4 0 0 1 .75 4c-.44 1.17-1.19 1.16-1.5 2.25-.44 1.54.51 3.49 1.25 3.5s.66-2.46 2.5-4c2.37-2 6.28-.89 6.75-.75 4.21 1.24 4.19 4.49 7.25 4.75s4.69-3.11 7.5-2.25c1.84.56 2.13 2.31 3.5 2.25 1.55-.07 3.23-2.37 3.5-4.5.66-5.29-7.79-6.85-10.5-14.75-2.18-6.38.28-14.2 3-14.75 2.09-.42 5.2 3.32 6.25 7 1.31 4.57-1.35 6.23-.25 12 .35 1.81 1.11 5.53 4.25 7.75 1.64 1.16 4.71 2.45 6.25 1.25 2.07-1.62-1.07-5.86 1.25-9 1.74-2.36 5.9-3.21 8.75-3 2.08.15 3.51.86 5.25 0a5.78 5.78 0 0 0 2.41-2.54c3.24-5.68 3.23-7.94 4.84-10 3.31-4.15 11.62-5.07 14-2 1.39 1.79 1 5.25-.75 7-2 2-4.5.35-8.75 1.75s-8.68 5.38-8.25 8.5 5.71 3.41 6.25 7c.47 3.13-3.3 4.45-2.75 7.25.59 3 5.09 2.5 10 7.5 1.69 1.72.81 1.42 4.25 5.75 4.41 5.54 5.63 5.74 6.25 8.25.78 3.15-.7 4.58.75 7.25 1.07 2 3.08 3.41 3.75 3 .92-.56-2-4.19-1-8.75.14-.66 1-4.31 4.25-6s6.7-.28 8 .25c5.25 2.14 7.25 7.33 7.5 8 1.31 3.57.56 6.26 1.5 6.5 1.35.34 2.18-5.17 6.5-7.5 4.52-2.44 11.41-.6 13.5 3 .17.28 1.29 2.22.5 3.75-.71 1.37-2.57 1.65-3.25 1.75-3.87.58-5.26-2.19-8.75-2.25-3.22-.06-7.07 2.2-7.5 4.75-.49 2.91 3.73 4.45 7.75 10.5a31 31 0 0 1 4 8.75"/><path class="cls-1" d="M125.92 35.7c-2.8 8.26-3.49 8.53-3.25 10.75a11.87 11.87 0 0 0 7.25 9.75c4.19 1.58 9.29.49 11.75-2.5 1.75-2.13 2-5 2.25-8.5.34-4.31-.53-6.19 1-8 1.4-1.65 3.21-1.36 3.75-3 .45-1.37-.26-3.3-1.5-3.75-1.48-.54-3.22 1.22-3.75 1.75-1.66 1.68-1.26 2.88-2.5 3.5s-2.14-.58-5-.75c-3-.18-4.36 1.11-5.25.25s-.45-2.8.25-4a6.12 6.12 0 0 1 2.75-2.2c2.47-1.32 3.42-.79 5.25-2 .75-.5 2.28-1.5 2.5-3 .37-2.54-3.13-5.83-6-5.5-2.09.24-3.26 2.33-5.25 6s-2.31 5.5-4.25 11.2zm27 21.5c-1-.56-.21-6.76 4-9.5 3.57-2.32 8.86-1.68 9.5 0 .47 1.23-1.46 3.25-3 4.25-1.86 1.21-2.82.73-5.25 1.75-3.59 1.51-4.6 3.88-5.25 3.5zM79.67 18.7a2.33 2.33 0 0 1 1.75-2.7c1.47-.14 2.81 2.32 2.25 3.25s-3.49.75-4-.55zm38.75 24.5c-1 0-2.79-11.67.25-13 1.37-.6 3.83.84 4.25 2.5s-1.51 2.7-3.25 7c-.98 2.41-.95 3.52-1.25 3.5zm-7.5-16c-.48-1.52 1.48-3.25 2.5-3 1.18.29 1.87 3.43.75 4.25a2.45 2.45 0 0 1-3.25-1.25z"/></svg>