<svg id="Слой_1" data-name="Слой 1" xmlns="http://www.w3.org/2000/svg" viewBox="0 0 200 160"><defs><style>.cls-1{fill:none;stroke:#070707;stroke-miterlimit:10}</style></defs><title>type</title><path class="cls-1" d="M24.76 120.74a4.69 4.69 0 0 1 2.55-4.32 4.89 4.89 0 0 1 4.54.33 5.22 5.22 0 0 1 2.33 3.88"/><path class="cls-1" d="M33.73 118.75a5.1 5.1 0 0 1 4.43-3 5.28 5.28 0 0 1 5 5m12.62.1a5.41 5.41 0 0 1 2-2.88 5.33 5.33 0 0 1 2.77-1c.19 0 3.22-.17 4.54 2a4 4 0 0 1 .55 1.88m-.64-2.21a5.22 5.22 0 0 1 4.32-1.33 5 5 0 0 1 3.88 3.54m2.3 0a5.49 5.49 0 0 1 7.75-3.21 5.7 5.7 0 0 1 2.66 3.1"/><path class="cls-1" d="M70.51 117.31a4.65 4.65 0 0 1 1.77-1.77 4.86 4.86 0 0 1 4-.22 5 5 0 0 1 2.44 2.1m-36.72.44a5.32 5.32 0 0 1 3.54-1.22 6 6 0 0 1 5.08 4.69m-2.26-4.13a5.91 5.91 0 0 1 8.42 1.44m-38.11 2.21a4.77 4.77 0 0 1 3.88-3.66 4.36 4.36 0 0 1 2.88.78m59.57.56a4.7 4.7 0 0 1 8.86 2.33M42 107.23c-.18.25-1.5 2.16-.55 4a3.81 3.81 0 0 0 4 1.77 4.2 4.2 0 0 0 3.43-4.43 3.75 3.75 0 0 0-2.44-3.1c-1.81-.62-3.57.6-4.44 1.76zm60.86-3.08c-1.19 1.55-.57 4.3 1.22 5.54a4.42 4.42 0 0 0 6.09-1.44 3.54 3.54 0 0 0 0-3.32 4 4 0 0 0-2.88-1.77c-.42-.1-3.14-.68-4.43.99zm-81.42 9.17c1.32.12 4 .35 4.76-1.22.65-1.26-.15-3.15-1.44-4.1a3.74 3.74 0 0 0-3.77-.44c-2 1-2.65 3.93-1.66 5.1a2.89 2.89 0 0 0 2.11.66zM79 109.78c.07-1.84 2.37-3.47 4.54-3.32s4.38 2.1 4.1 4.1c-.23 1.62-2 2.68-3.43 2.88-2.39.33-5.21-1.56-5.21-3.66z"/><path class="cls-1" d="M86.18 107.17a3.83 3.83 0 0 1 1.44-1.33c1.33-.69 3.55-.76 4.65.78a3.45 3.45 0 0 1-.22 4.1 3.61 3.61 0 0 1-3.54 1.22m-33.51.83a3.84 3.84 0 0 0 1.88 2.44 3.77 3.77 0 0 0 4.1-6.09c-1.76-1.72-5.1-.77-6 1a3.64 3.64 0 0 0 .02 2.65zm-.55-1.22a4.88 4.88 0 0 0-3.43.78 5.3 5.3 0 0 0-2 4.54m7.42.88l.56-2.66m6.75 2.44a4.27 4.27 0 0 1 3.77-4.87 4.23 4.23 0 0 1 4.21 3.34m-16.64-9.8a4.27 4.27 0 0 1 5.3-3.14 4.23 4.23 0 0 1 2.68 4.64"/><path class="cls-1" d="M67.08 112.44c-.46-2.82-2.43-4.87-4.65-5.1a4.93 4.93 0 0 0-3.32 1m4.89 7.53a2.93 2.93 0 0 1-2.22-.11 2.8 2.8 0 0 1-1.11-1m-25.61 1.77a4.77 4.77 0 0 1 9 .11m-9.57-10.34a2.41 2.41 0 0 1 2.15 1.08c.81 1.53-1.35 3.8-2.31 4.61a3.75 3.75 0 0 1-2.92 1.23 2.3 2.3 0 0 1-1.69-1.15c-.31-.84.39-1.72 1.54-3.15 1.34-1.69 2.06-2.59 3.23-2.62zm38.43 4.15c0 1.65 1.82 2.61 2.54 3s1.87 1 2.77.46a1.63 1.63 0 0 0 .77-1.23c0-.76-.58-1.11-2.61-3-1.36-1.26-1.61-1.6-2.07-1.54-.81.12-1.43 1.3-1.4 2.31zm20.37 1.18a10.29 10.29 0 0 1 2.06-1.9c1.11-.77 2.74-1.91 4-1.31a2.07 2.07 0 0 1 1.15 1.92 2.31 2.31 0 0 1-1 1.46 10.24 10.24 0 0 1-3.34 2m-80.73 7.1a5.23 5.23 0 0 1 1.31-3.9 5.33 5.33 0 0 1 7.38 0m-4.85-1.56a2.62 2.62 0 0 1 1-2.31m6.15-.84a3 3 0 0 1 2 1.54 2.94 2.94 0 0 1 .15 2.15m-3.76-8.3a4.44 4.44 0 0 1 4.69-1.23 4 4 0 0 1 1.92 1.69M29 114.37a1.86 1.86 0 0 1 1.31-1.54m4.1-.69a2.64 2.64 0 0 1 2.92 1.77m1.77-.54a3 3 0 0 1 2.23-2.31m7.15-.38a2.14 2.14 0 0 1 1.61.54 2.07 2.07 0 0 1 .61 1.15m1.59-.92a4.41 4.41 0 0 1 .41-3.28 4 4 0 0 1 3.18-2 3.8 3.8 0 0 1 3.38 1.95"/><path class="cls-1" d="M69.92 112.88a3.05 3.05 0 0 1 1.43-1.64 3 3 0 0 1 1.64-.31m5.23 3.07a2.13 2.13 0 0 1 .51 1.13 2.18 2.18 0 0 1-.41 1.54m3.59-3.28a2.56 2.56 0 0 0-.51 2.25 2.35 2.35 0 0 0 .92 1.23m5.02-4.87a3.33 3.33 0 0 1 2 2 3.13 3.13 0 0 1-.1 2m87.81 5.3a4.69 4.69 0 0 0-2.55-4.32 4.89 4.89 0 0 0-4.54.33 5.22 5.22 0 0 0-2.33 3.88"/><path class="cls-1" d="M168.08 119.31a5.1 5.1 0 0 0-4.43-3 5.28 5.28 0 0 0-5 5m-12.65.1a5.41 5.41 0 0 0-2-2.88 5.33 5.33 0 0 0-2.77-1c-.19 0-3.22-.17-4.54 2a4 4 0 0 0-.55 1.88m.7-2.21a5.22 5.22 0 0 0-4.32-1.33 5 5 0 0 0-3.88 3.54m-2.32 0a5.49 5.49 0 0 0-7.75-3.21 5.7 5.7 0 0 0-2.66 3.1"/><path class="cls-1" d="M131.3 117.87a4.65 4.65 0 0 0-1.77-1.77 4.86 4.86 0 0 0-4-.22 5 5 0 0 0-2.44 2.1m36.68.44a5.19 5.19 0 0 0-3.54-1.22 5.55 5.55 0 0 0-4.73 4.13m1.96-3.57a5.91 5.91 0 0 0-8.46 1.44m38.15 2.21a4.77 4.77 0 0 0-3.88-3.66 4.36 4.36 0 0 0-2.88.78m-59.6.56a4.7 4.7 0 0 0-8.86 2.33m51.84-13.63c.18.25 1.5 2.16.55 4a3.81 3.81 0 0 1-4 1.77 4.2 4.2 0 0 1-3.43-4.43 3.75 3.75 0 0 1 2.44-3.1c1.85-.63 3.61.6 4.44 1.76zm-24.03-5.65c1.19 1.55.57 4.3-1.22 5.54a4.42 4.42 0 0 1-6.09-1.44 3.54 3.54 0 0 1 0-3.32 4 4 0 0 1 2.88-1.77c.42-.15 3.14-.68 4.43.99zm44.64 11.74c-1.32.12-4 .35-4.76-1.22-.65-1.26.15-3.15 1.44-4.1a3.74 3.74 0 0 1 3.77-.44c2 1 2.65 3.93 1.66 5.1a2.89 2.89 0 0 1-2.11.66zm-57.61-3.55c-.07-1.84-2.37-3.47-4.54-3.32s-4.38 2.1-4.1 4.1c.23 1.62 2 2.68 3.43 2.88 2.44.34 5.3-1.55 5.21-3.66z"/><path class="cls-1" d="M130.42 101a3.83 3.83 0 0 0-1.42-1.3c-1.33-.69-3.55-.76-4.65.78a3.45 3.45 0 0 0 .22 4.1 3.61 3.61 0 0 0 3.54 1.22m18.7 7.53a3.84 3.84 0 0 1-1.88 2.44 3.77 3.77 0 0 1-4.1-6.09c1.76-1.72 5.1-.77 6 1a3.64 3.64 0 0 1-.02 2.65zm.56-1.22a4.88 4.88 0 0 1 3.43.78 5.3 5.3 0 0 1 2 4.54m-7.43.88l-.55-2.66m-6.76 2.44a4.27 4.27 0 0 0-3.77-4.87 4.23 4.23 0 0 0-4.21 3.32m16.65-9.78a4.27 4.27 0 0 0-5.3-3.14 4.23 4.23 0 0 0-2.68 4.64"/><path class="cls-1" d="M134.74 113c.46-2.82 2.43-4.87 4.65-5.1a4.93 4.93 0 0 1 3.32 1m-4.87 7.53a2.93 2.93 0 0 0 2.22-.11 2.8 2.8 0 0 0 1.11-1m25.58 1.77a4.77 4.77 0 0 0-9 .11m9.57-10.34a2.41 2.41 0 0 0-2.15 1.08c-.81 1.53 1.35 3.8 2.31 4.61a3.75 3.75 0 0 0 2.92 1.23 2.3 2.3 0 0 0 1.69-1.15c.31-.84-.39-1.72-1.54-3.15-1.34-1.69-2.05-2.59-3.23-2.62zM128.9 111c0 1.65-1.82 2.61-2.54 3s-1.87 1-2.77.46a1.63 1.63 0 0 1-.77-1.23c0-.76.58-1.11 2.61-3 1.36-1.26 1.61-1.6 2.07-1.54.81.13 1.43 1.31 1.4 2.31zm29.28-4.91a9.7 9.7 0 0 0-2.54-2.69c-1-.74-2.7-1.93-4-1.31a2.07 2.07 0 0 0-1.15 1.92 2.4 2.4 0 0 0 1 1.46 6.09 6.09 0 0 0 2.31 1.31m32.58 14.68a5.12 5.12 0 0 0-8.68-3.92m4.84-1.54a2.62 2.62 0 0 0-1-2.31m-6.15-.84a3 3 0 0 0-2 1.54 2.94 2.94 0 0 0-.15 2.15m3.76-8.3a4.44 4.44 0 0 0-4.69-1.23 4 4 0 0 0-1.92 1.69m2.47 6.22a1.86 1.86 0 0 0-1.31-1.54m-4.15-.68a2.64 2.64 0 0 0-2.92 1.77m-1.77-.54a3 3 0 0 0-2.23-2.31m-7.14-.38a2.14 2.14 0 0 0-1.61.54 2.07 2.07 0 0 0-.61 1.15m-1.6-.93a4.41 4.41 0 0 0-.41-3.28 4 4 0 0 0-3.18-2 3.8 3.8 0 0 0-3.38 1.95"/><path class="cls-1" d="M131.9 113.44a3.05 3.05 0 0 0-1.43-1.64 3 3 0 0 0-1.64-.31m-5.23 3.08a2.13 2.13 0 0 0-.51 1.13 2.18 2.18 0 0 0 .41 1.54m-3.59-3.24a2.56 2.56 0 0 1 .51 2.25 2.35 2.35 0 0 1-.92 1.23m-5.02-4.96a3.33 3.33 0 0 0-2 2 3.13 3.13 0 0 0 .1 2M15.29 156.5a11 11 0 0 0 3.63 3.38h162.75a15.62 15.62 0 0 0 3.75-3.62c-1-7-1.3-18.67 5.75-28a28.09 28.09 0 0 1 1.83-2.18H6.83q1 1 1.83 2.06c7.44 9.21 7.43 21.13 6.63 28.36zm-14.62-35h198.67v4.57H.67zm92.5-4.17a5.37 5.37 0 0 1 6.5-.83A5.57 5.57 0 0 1 102 121m-1.08-4.12a8.33 8.33 0 0 1 5.5-3.12 8.24 8.24 0 0 1 5.5 1.38m-22.75-2.01a4.66 4.66 0 0 1 5.25-1 4.58 4.58 0 0 1 2.25 2.87M90 104.33c3.64-8 8.38-18.09 14.17-29.83a27.44 27.44 0 0 1 3-5.33c12.1-15.48 48.1-11.49 51.5-1 .66 2-.12 3.63-2.67 9.17-5.36 11.65-9.39 20.74-11.83 26.33M111 71a33.87 33.87 0 0 1 11.33 9.17"/><path class="cls-1" d="M109.33 103.17c4.65-9.68 8.38-16.83 10-19.67a7.21 7.21 0 0 1 3.17-3.17 6.51 6.51 0 0 1 3.33-.5c3.13.27 13.71.85 28.17 1.67m5.17 24.33c2.51-7.95 4.11-14 4.67-16.67a12.41 12.41 0 0 0 .17-4.83 11.53 11.53 0 0 0-.67-2.33l-4.17-14m-20.84-9.33q3.69-9 7.33-18.17 4.74-11.95 9.17-23.67A5.81 5.81 0 0 1 157 14.5c2.59-1.51 6.71-.91 7.67 1.33a3.73 3.73 0 0 1-.33 3.17L147.5 60"/><path class="cls-1" d="M149.83 61.33q5.32-14.12 11.33-28.67 2.23-5.39 4.5-10.67a5.23 5.23 0 0 0 .83-2.75 5.16 5.16 0 0 0-.42-2.08l-1.83-2.25M115.17 66.5A24.47 24.47 0 0 1 125 78.17M121.33 64a33.59 33.59 0 0 1 7.83 14.67m-.83-15.34a60.39 60.39 0 0 1 5.33 15m.34-15.5l3.5 15.67m1.67-16.17q.52 3.61 1 7.33.55 4.31 1 8.5m2.66-14.33l2.5 14.67m2.67-13l2.5 13.17M153.83 68l2.17 9.5"/></svg>