<svg id="Слой_1" data-name="Слой 1" xmlns="http://www.w3.org/2000/svg" viewBox="0 0 200 160"><defs><style>.cls-1{fill:none;stroke:#070707;stroke-miterlimit:10}</style></defs><title>type</title><path class="cls-1" d="M105.5 52.76c.77-2.32 5.4 0 7.72-.77 1.54-1.54-1.54-6.18 0-6.18l3.78-2.1 1.69 2L121 43l.2-1.68a10 10 0 0 0 4.65-7.5 16 16 0 0 0 1.56.79c1.68.75 1.71.41 3.77 1.16 2.39.88 2.51 1.41 4.3 1.74a8.88 8.88 0 0 1 1.81.41 7.06 7.06 0 0 1 2.26 1.4 4 4 0 0 0 3.92-1.95 4.44 4.44 0 0 1 1.53-2.72c.68-.52 1-.36 2.29-1.09s1.19-1 2.14-1.43a19.1 19.1 0 0 1 2.43-.47c1.51-.39 1.53-.74 2.59-.88a6.82 6.82 0 0 1 2.7.29 15.16 15.16 0 0 1 3 1.11 9.77 9.77 0 0 1 3.22 1.82c.71.76.48 1 1.48 2.25.85 1.1 1.12 1.07 1.85 2a18.46 18.46 0 0 1 1.54 2.84c1.28 2.46 1.54 2.63 1.59 3.42 0 .36 0 .39-.59 2.77s-.6 2.71-.94 3.08c-.66.73-1.12.42-2.48 1.42-.91.67-.81.89-1.59 1.45s-1.29.61-3.3 1.27c-2.77.91-2.44 1.07-3.46 1.2-1.77.23-2.36-.31-3.39.29-.81.47-.65.93-1.62 1.53s-1.64.3-2.37.94a3.41 3.41 0 0 0-.94 2.44c0 1 .35 1.09.73 2.85a13.26 13.26 0 0 0 .37 2.2c.5 1.15 1.16 1 2.16 2.42.75 1 .46 1.23 1.25 2.35s1.3 1.1 2 2.17c.15.24.29.5 1 3.2.64 2.37.66 2.63.59 3-.12.64-.31.63-1.19 2.48a11.86 11.86 0 0 1-.95 2c-.69.87-1.17.74-2.66 1.79s-1.22 1.32-2.18 1.79-1.43.24-3.13.58c-2 .4-1.83.82-3.09 1a7.46 7.46 0 0 1-5-1.48c-1.1-.87-.95-1.36-2.38-2.48s-1.61-.72-2.43-1.49c-1.28-1.2-.77-2.12-2.15-4.67-.93-1.73-1.42-1.77-1.83-3a7 7 0 0 1-.07-3.82 3.13 3.13 0 0 0-.21-2.31 3 3 0 0 0-1.17-1.2 9.45 9.45 0 0 1-3.88-.8c-1.2-.54-1.21-.86-2.59-1.56-1.8-.9-2.45-.69-4.47-1.53-1.59-.66-1.32-.85-2.95-1.6-2.73-1.25-3.4-.69-6.2-1.91a14.64 14.64 0 0 1-2-1.06c-.51-2.56-2.26-4.99-1.22-7.06zM42.43 69.3c-.94-2.39-1.41-3.59-1.16-4.63.32-1.33 1.14-1.48 1.67-3.51a10.59 10.59 0 0 1 .42-1.84c.48-1.1 1.12-1.33 2.19-2.46 1.46-1.55 1-1.9 2.27-3.1s1.46-.74 2.89-2A5.67 5.67 0 0 0 53 48.58a4.36 4.36 0 0 0-.4-2.59c-.45-1-.85-.93-2.55-2.68-1.41-1.45-1.41-1.75-2.19-2.14-1-.49-1.3-.16-2.32-.7s-1-1.07-2-1.72c-1.33-.81-1.8-.22-2.89-1s-.8-1.48-2.06-2.43c-1.09-.82-1.59-.48-2-1.13-.6-.88.2-1.7.19-3.9 0-1.93-.62-1.84-.37-3 .33-1.47 1.4-1.61 2.49-3.93a9.56 9.56 0 0 1 .65-1.52c.81-1.13 1.91-1.21 4-2 3.38-1.18 3.3-1.94 4.77-1.84s1.7.88 3.6 1c1.63.09 1.77-.47 2.72-.16 1.36.58 1.36 1.85 3.18 2.91a11.91 11.91 0 0 0 2 .76c1.12.49 2.54 1.57 3.73 4.22a3.91 3.91 0 0 0 1.85 2.44 4.23 4.23 0 0 0 1.7.33 10.71 10.71 0 0 0 3.49-.33c1.43-.37 1.26-.58 2.51-.92 1.77-.47 2.12 0 4.36-.41 1.71-.28 1.61-.54 3.25-.77 1.88-.26 2 .09 3.7-.13 2.14-.28 2.08-.84 4.26-1.1a23.7 23.7 0 0 0 3.41-.26c1.26-.29 1.23-.54 2.53-.83s1.35-.09 3.4-.35c1.36-.17 1.33-.26 2.59-.4.53-.06.91-.09 1.23-.1 1.61 6.12-.75 11.86-5 16.64-1.34.77 3.64 3.25 3.07 5.36-1.63 1.82-6.8 2.11-6.32 4.5.13 2.32 2.85 3.55 4.6 5.48a7.23 7.23 0 0 0-1.58.12c-1.79.36-2 .77-3.65 1-1.82.26-2-.18-3.8.06s-1.73.69-3.81 1.12-2.18 0-4.62.45a19.11 19.11 0 0 1-3.26.68 28.82 28.82 0 0 0-3-.06 10.43 10.43 0 0 0-2.53.63A4.11 4.11 0 0 0 70 61a3.57 3.57 0 0 0-.68 1.89c-.22 1.65.4 2 .19 3.14-.16.84-.51.8-1.87 2.77-1.25 1.82-1.11 2.09-1.86 2.86s-1.35.85-3.26 1.83c-3.5 1.81-3.4 2.71-5.12 2.89-1.4.2-1.4-.38-3.93-.38-1.68 0-1.92.24-2.92 0s-1.2-.65-3.19-1.72-2.29-.86-3.08-1.56-1.14-1.61-1.85-3.42z"/><path class="cls-1" d="M66 59.3a8.14 8.14 0 0 1-.54 4c-.46 1.11-.8 1.15-1.86 2.86-1.69 2.71-1.36 3.45-2.5 4.22-1 .67-1.31.17-3.41 1-1.64.67-1.59 1-2.63 1.29a5.64 5.64 0 0 1-4.33-.72c-1.7-1.26-1.41-3.16-2.88-3.57-1-.26-1.56.4-2.22 0s-.72-1.84-.63-2.88m107.82 14.19a18.72 18.72 0 0 0-2.35 2.13c-1.15 1.23-1.24 1.66-2 2.13a5.17 5.17 0 0 1-3.66.41c-1.25-.32-1.17-.83-2.73-1.36s-1.87-.12-2.93-.66c-.4-.2-.73-.45-2.2-2.25a19 19 0 0 1-2.43-3.27c-.34-.83-.33-1.33-.43-4 0-1-.1-2.56-.19-4.63M167 45c-.19 2.89-1 3.86-1.74 4.21-.94.46-1.57-.21-3.1.43a5.89 5.89 0 0 1-2.31.89c-.66 0-.69-.18-1.18-.11-.93.14-1.11.93-2.34 1.95a9.33 9.33 0 0 1-2.19 1.32 12 12 0 0 1-2.41.83M52.4 41.45a11.08 11.08 0 0 1-2.55-2c-1.18-1.25-1.41-2.11-2.52-2.53-.82-.31-1 .06-2.23-.1-.32 0-3-.4-4-2.24a6.72 6.72 0 0 1-.46-2.2 13.25 13.25 0 0 0-1.28-3.67m92.1 19.13a2.09 2.09 0 0 1 2.22.58c1 1.12.39 3.15-.3 3.35-.31.09-.44-.25-1.33-.62-1.06-.44-1.48-.21-1.75-.56a2.14 2.14 0 0 1 1.16-2.75zm-36.73-8.68c-.38.23-.77-.32-1.66-.2s-1.25.86-1.61.71-.65-1.89.24-2.93a2.25 2.25 0 0 1 2.51-.74c1.22.58 1.15 2.78.52 3.16zM69.32 40c-1.13.93-.89 2.92-.37 3.14.29.12.5-.38 1.3-.57 1-.23 1.52.36 2 .07a2 2 0 0 0-.29-2.73 2.12 2.12 0 0 0-2.64.09zm25.2 12.37a10.69 10.69 0 0 0-1.57 0c-2.19.2-2.25.63-4.81 1s-2.64-.09-4.65.28-2.5.89-4.72 1.53a22.58 22.58 0 0 1-5.33.86M128 63.35a12.09 12.09 0 0 1-2.53-.61 21.38 21.38 0 0 1-2.84-1.42c-1.76-.86-2.26-.5-4.67-1.21s-2-1.05-4.53-1.9c-2.89-1-3.24-.46-5.53-1.4a14.32 14.32 0 0 1-2.72-1.57m-2.89-31.3a18 18 0 0 0 2.57 5.66 5 5 0 0 1 .9 1.42c.66 2.18-1.83 3.55-3 6.82-1.26 3.64.11 6.88-.64 7.08-.47.12-.87-1.16-2.44-2.44a9.09 9.09 0 0 0-3.22-1.67m6.08 4.36a3.86 3.86 0 0 1 .26 3.35c-1.06 1.86-4.41 1-5.4 2.7-.43.74-.47 2.07 1.16 4.63m31.77-32.08a3.55 3.55 0 0 1-2.22 2.32l-2.89-2c.28-.25.68-.58 1.16-1 1.81-1.44 2.71-2.16 3.28-1.93s.9 1.63.67 2.61z"/><path class="cls-1" d="M130.43 22.22c.3.57 1.07 2.21.39 3.47a5 5 0 0 1-1.36 1.31 15.44 15.44 0 0 1-1.93 1.35l-2.22-1.25-.39-3m3 1.79l-.19 2M113 29.41c.47-.37-.31-2.63-.87-2.61-.39 0-.89 1.15-.48 1.93a1.33 1.33 0 0 0 1 .73.52.52 0 0 0 .35-.05zm-6-7.92a2.43 2.43 0 0 0 .39-2.89c-.78-1.14-2.71-1-2.8-.68s1.12.45 1.83 1.64c.65 1 .43 1.92.58 1.93zm12.24 19.69l-1.16 1.61a3.28 3.28 0 0 1-1.61-2.19c-.25-1.69 1.2-3.38 1.93-3.22s.94 1.74.84 3.8zm14.05-28.27c-.07-.44-1.47-.76-2.61-.39-1.31.43-2.46 1.84-2.12 2.61a1.7 1.7 0 0 0 2.12.48 1.86 1.86 0 0 0 1.06-1.54c1.45-.65 1.58-1 1.55-1.16zm-32.14 89.75a7.12 7.12 0 0 0 1.29-2.16 2.24 2.24 0 0 1 1.14-.49 2.32 2.32 0 0 1 1.66.47 5.21 5.21 0 0 0 2.67 1c1 .05 1.15-.27 2.6-.46 2.13-.27 2.63.33 3.81-.24.75-.36.6-.63 1.68-1.28s1.45-.46 2.35-1a5.54 5.54 0 0 0 2.36-3.07c.23-.91-.1-.92.15-2.4a9.14 9.14 0 0 0 .43-2.32 14.32 14.32 0 0 0-.66-2c-.34-1.31-.11-1.61-.53-2.32a8.81 8.81 0 0 0-1.1-1.2 9.31 9.31 0 0 0-1.4-1.49c-.24-.15-.43-.2-2.24-.39a9.73 9.73 0 0 0-2.49-.15c-.92.18-.91.51-2 .8s-1 0-2 .24c-1.24.32-1.33.81-2.26.85a9.85 9.85 0 0 1-1.63-.33 10.8 10.8 0 0 1-2.17-.25 2.53 2.53 0 0 1-1.44-1.3c-.25-.68.17-.93 0-1.89s-.52-.84-.63-1.53c-.14-.88.39-1.14.7-2.43a18.46 18.46 0 0 0 .09-2.72 7.89 7.89 0 0 0 0-2.62c-.18-.69-.36-.67-.58-1.49-.33-1.21 0-1.45-.33-2.1-.17-.33-.32-.39-1.88-1.47a8.56 8.56 0 0 0-1.76-1.15c-.56-.17-.75 0-2.8.19a13.71 13.71 0 0 0-2.38.31c-.85.25-.91.45-1.89.74-1.15.35-1.24.13-2 .42a7.26 7.26 0 0 0-2.11 1.72 11.26 11.26 0 0 0-1.57 1.78 5.06 5.06 0 0 0-.92 1.8c-.18.77.05.88-.08 2a14.19 14.19 0 0 0-.32 1.81 15.36 15.36 0 0 0 .42 1.87c.17 1.08 0 1.27.14 1.88A3.3 3.3 0 0 0 85 82.12a3 3 0 0 1 .3 3.24 5.24 5.24 0 0 0-1.57 1.2 6.6 6.6 0 0 0-.77 1.14c-.71 1.15-1.11 1.1-2.36 2.52a15.12 15.12 0 0 0-1.22 1.63c-.32.41-.36.36-.6.67a16.62 16.62 0 0 1-1 1.68c-.09.09-.21.2-.43.43s-.4.46-.92 1c-1.09 1.07-1.26 1-1.85 1.74s-.51.89-1.12 1.63a17.61 17.61 0 0 1-1.9 1.69c-1.17 1.14-.88 1.44-2 2.57-.92.91-1.13.74-2.13 1.74s-.68 1-1.57 1.92c-1.16 1.23-1.56 1.13-2.39 2.21-.59.76-.39.82-1.07 1.68a8 8 0 0 1-1.91 1.77 3.14 3.14 0 0 1-1.15.57 2.9 2.9 0 0 1-2.19-.61 5.63 5.63 0 0 0-4.1-.81 8.85 8.85 0 0 1-1.51.44c-1.55.19-2.11-.57-3.13-.21-.7.25-.54.64-1.54 1.32-1.17.8-1.65.44-2.57 1s-.53 1-2 3.23c-.92 1.4-1.54 1.94-1.5 3a7.1 7.1 0 0 0 .3 1.19c.4 1.86-.17 2.42.3 3.44.35.77.68.44 1.55 1.58 1 1.3.89 2.14 1.64 2.39.55.19.7-.24 1.71-.25 1.17 0 1.31.56 2.31.51s1-.61 2.15-.73c.93-.1 1.07.25 2 .1s.89-.48 1.69-.63c.64-.12.77.06 2.26.28 1.79.27 2 .07 2.71.43a3.24 3.24 0 0 1 1.4 1.35 4.21 4.21 0 0 1 .07 3c-.3 1.36-.64 1.3-.82 2.45s.22 1.27.06 2.85a6.44 6.44 0 0 0-.18 2.44 7.87 7.87 0 0 0 .58 1.28c.6 1.44.18 1.89.59 2.82.32.73 1.14 1.22 2.77 2.21a6.26 6.26 0 0 0 2.64 1.19c.78.06.78-.19 2.52-.46s1.89-.07 2.66-.42a9.67 9.67 0 0 0 1.72-1.32c1.49-1.12 1.75-.8 2.49-1.49.94-.89.47-1.38 1.72-4 .68-1.44 1-1.65 1.1-2.55a18.23 18.23 0 0 0-.19-2.52c-.08-1.78.15-1.91-.14-2.48-.39-.78-.91-.7-1.53-1.77a2.66 2.66 0 0 1-.45-1.42 3.06 3.06 0 0 1 .64-1.55 7.75 7.75 0 0 1 1.21-1.51 21.41 21.41 0 0 1 1.81-1.32m0 0a14.19 14.19 0 0 0 1.62-1.87c1.23-1.38 1.48-1.14 2.53-2.35s.76-1.52 1.76-2.47 1.26-.77 2.22-1.75.81-1.23 1.7-2.24a5.37 5.37 0 0 1 .83-.79v-.59a10.57 10.57 0 0 0 1.25-1.08 9.74 9.74 0 0 0 .86-1 15.84 15.84 0 0 1 2.12-2.8c1-.93 1-.69 1.9-1.62 1.12-1.18 1.15-1.69 2.25-2.69.85-.77 1.08-.69 1.77-1.38l.3-.32"/><path class="cls-1" d="M73.31 130.62a6 6 0 0 1 1.46 2.58 16.07 16.07 0 0 1 .19 2.52c.23 2.36.75 2.65.42 3.62s-.7.69-1.55 2.15a19 19 0 0 1-1 2A4.19 4.19 0 0 1 70 145c-1.57 0-2.25-1.23-3.31-.81-.68.28-.74.94-1.31 1s-1.25-.74-1.65-1.41m53.04-56.85a13.9 13.9 0 0 0 .85 2.2 7.38 7.38 0 0 1 .93 2 3.84 3.84 0 0 1-.69 2.64c-.56.78-.89.59-1.67 1.53s-.58 1.27-1.24 1.86a5.63 5.63 0 0 1-2.15.92 14.1 14.1 0 0 1-2.92.81c-.66 0-1-.12-2.89-.77L103.73 97m-7.21-29.15c1.95.9 2.4 1.74 2.45 2.33.07.78-.56 1-.53 2.27a4.37 4.37 0 0 1 0 1.84c-.16.47-.31.43-.39.79-.15.68.34 1 .72 2.14a6.93 6.93 0 0 1 .33 1.87A8.91 8.91 0 0 1 99 81m-41.77 45.22a8.23 8.23 0 0 1-2.41 0c-1.26-.21-1.78-.61-2.63-.36a6.9 6.9 0 0 0-1.36.95c-.2.12-2 1.12-3.39.5a5 5 0 0 1-1.26-1.09 9.85 9.85 0 0 0-2.41-1.59M89 93.24a1.55 1.55 0 0 1 1-1.38c1-.4 2.29.57 2.24 1.1a2.76 2.76 0 0 1-.78.75c-.59.62-.54 1-.86 1.07a1.59 1.59 0 0 1-1.6-1.54zm-7.8 12.56c-.12.31-.6.16-1.07.63s-.35 1.07-.63 1.14-1.23-.82-1.18-1.84a1.45 1.45 0 1 1 2.88.07zm-14.63 11.96c-.25 1.06.79 2.12 1.2 2a5.74 5.74 0 0 0 .51-.93c.49-.59 1.06-.47 1.19-.84a1.48 1.48 0 0 0-1.4-1.48 1.58 1.58 0 0 0-1.5 1.25zM87 113.7a7.94 7.94 0 0 0-.91.73c-1.21 1.11-1 1.39-2.41 2.73s-1.6 1.14-2.62 2.26a29.75 29.75 0 0 0-2.1 3 16.77 16.77 0 0 1-2.76 2.91m22.63-25.56a9 9 0 0 1-1.1 1.59A15.88 15.88 0 0 1 96 103c-1.07 1-1 1.43-2.08 2.92s-1.27 1.11-2.53 2.63c-1.45 1.75-1.19 2.13-2.45 3.46a10.64 10.64 0 0 1-1.81 1.46M101 137.24a11.28 11.28 0 0 1 1.9 1.63c.62.72.45.75 1.07 1.42.79.85 1.15.89 1.81 1.72.51.64.45.8.9 1.32a5 5 0 0 0 1.69 1.24 1.6 1.6 0 0 1 .3.83 1.65 1.65 0 0 1-.41 1.16 3.71 3.71 0 0 0-.81 1.85 10.25 10.25 0 0 0 .21 1.87c.1 1.53-.35 1.86 0 2.72.23.55.42.45.84 1.25s.26 1.05.6 1.72a4 4 0 0 0 2.08 1.81c.64.2.66 0 1.7.21a6.51 6.51 0 0 0 1.63.41 10.2 10.2 0 0 0 1.49-.4 6 6 0 0 0 1.67-.28 6.28 6.28 0 0 0 .89-.74 6.63 6.63 0 0 0 1.12-.93 4 4 0 0 0 .38-1.58 6.93 6.93 0 0 0 .22-1.77c-.09-.66-.33-.67-.48-1.48s0-.74-.08-1.41c-.17-.89-.52-1-.51-1.64a7 7 0 0 1 .31-1.14 7.69 7.69 0 0 1 .28-1.53 1.8 1.8 0 0 1 1-1 12.25 12.25 0 0 1 1.35.07c.6-.08.62-.33 1.12-.38s.79.33 1.7.61a13.14 13.14 0 0 0 1.93.18 5.62 5.62 0 0 0 1.86.12c.5-.1.5-.23 1.08-.35a11.74 11.74 0 0 0 1.51-.14 3.87 3.87 0 0 0 1.13-1.27 6.1 6.1 0 0 0 .9-1.2 5.21 5.21 0 0 0 0-2 9.76 9.76 0 0 0-.11-1.7c-.14-.62-.28-.66-.44-1.38s0-.89-.21-1.41a5.17 5.17 0 0 0-1.13-1.58 8 8 0 0 0-1.2-1.2 3.6 3.6 0 0 0-1.24-.73c-.54-.16-.63 0-1.44-.15a10.1 10.1 0 0 0-1.27-.31 10.93 10.93 0 0 0-1.34.21c-.77.07-.9-.08-1.34 0a2.35 2.35 0 0 0-1.35 1 2.11 2.11 0 0 1-2.32.07 3.73 3.73 0 0 0-.78-1.17 4.7 4.7 0 0 0-.78-.6 13.47 13.47 0 0 1-1.68-1.79 10.77 10.77 0 0 0-1.11-.94c-.28-.24-.24-.27-.45-.45a11.84 11.84 0 0 1-1.15-.75l-.29-.33c-.2-.21-.31-.3-.65-.7-.72-.82-.68-.94-1.15-1.39s-.61-.4-1.11-.87a12.54 12.54 0 0 1-1.12-1.42c-.76-.88-1-.69-1.74-1.55-.6-.69-.48-.84-1.14-1.59s-.67-.53-1.29-1.2a21.57 21.57 0 0 0-1.46-1.8c-.52-.45-.56-.31-1.14-.83a5.67 5.67 0 0 1-1.17-1.44 2.24 2.24 0 0 1-.36-.84 2.07 2.07 0 0 1 .53-1.53 4 4 0 0 0 .76-2.88 6.3 6.3 0 0 1-.25-1.09c-.06-1.11.5-1.47.29-2.22a6.8 6.8 0 0 0-.87-1.15c-.51-.86-.24-1.19-.63-1.87m-20.2 22.51a5.65 5.65 0 0 0 1.76.89 13 13 0 0 0 1.8 0c1.27 0 1.35.19 1.77 0 .57-.25.53-.62 1.33-1a1.89 1.89 0 0 1 1-.26 2.18 2.18 0 0 1 1.07.53 5.52 5.52 0 0 1 1 .93 15.24 15.24 0 0 1 .86 1.35 10.11 10.11 0 0 0 1.26 1.23c.92.94.75 1.1 1.56 1.9s1 .63 1.61 1.35.49.93 1.14 1.65.79.69 1.46 1.36a3.82 3.82 0 0 1 .52.63h.42a7.53 7.53 0 0 0 .72.94 6.94 6.94 0 0 0 .66.66m-12.74-14.7a4.31 4.31 0 0 1-1.9.92 11.44 11.44 0 0 1-1.8 0c-1.69.06-1.92.42-2.59.14"/><path class="cls-1" d="M117.38 155.35a9.9 9.9 0 0 0-1.6.51 5.25 5.25 0 0 1-1.45.57 2.73 2.73 0 0 1-1.85-.61c-.53-.43-.38-.66-1-1.25a13.68 13.68 0 0 1-1.27-1 4 4 0 0 1-.56-1.57 10 10 0 0 1-.45-2.11 5.88 5.88 0 0 1 .68-2c.19-.47.52-1.25.93-2.27m21.02-3.82c-.73 1.35-1.34 1.63-1.76 1.64s-.71-.45-1.59-.47a3.11 3.11 0 0 1-1.31-.08c-.32-.13-.29-.24-.54-.31-.48-.14-.74.2-1.55.42a4.94 4.94 0 0 1-1.34.15 6.34 6.34 0 0 1-1.34-.13m-8.27-7.69a1.1 1.1 0 0 1 .94.77 1.28 1.28 0 0 1-.88 1.54 2 2 0 0 1-.5-.59 3.42 3.42 0 0 1-.72-.66 1.13 1.13 0 0 1 1.16-1.06zm-8.59-6.1c-.21-.1-.08-.43-.4-.79s-.74-.3-.78-.5a1.24 1.24 0 0 1 1.36-.76 1 1 0 1 1-.18 2.05zm-7.84-10.92a1.24 1.24 0 0 0-1.49.76 4.09 4.09 0 0 0 .64.41c.4.37.29.78.55.88a1.05 1.05 0 0 0 1.11-.93 1.12 1.12 0 0 0-.81-1.12zM99.67 133a5.65 5.65 0 0 0-.48-.68c-.73-.91-.94-.81-1.83-1.84s-.74-1.19-1.49-2a21.18 21.18 0 0 0-2.06-1.63 11.94 11.94 0 0 1-1.94-2.09M109 142a6.39 6.39 0 0 1-1.08-.85 11.31 11.31 0 0 1-1.05-1.31 12.94 12.94 0 0 0-2-1.61c-1-.84-.74-.95-1.76-1.91-1.18-1.11-1.46-.94-2.35-1.89a7.57 7.57 0 0 1-1-1.35"/></svg>