<svg id="Слой_1" data-name="Слой 1" xmlns="http://www.w3.org/2000/svg" viewBox="0 0 200 160"><defs><style>.cls-1{fill:none;stroke:#070707;stroke-miterlimit:10}</style></defs><title>type</title><rect class="cls-1" x="35.5" y="150.33" width="129" height="9.54" rx="3.86" ry="3.86"/><rect class="cls-1" x="84.59" y="21.66" width="30.75" height="7.13" rx="2.61" ry="2.61"/><rect class="cls-1" x="84.59" y="28.79" width="30.75" height="7.13" rx="2.61" ry="2.61"/><rect class="cls-1" x="84.59" y="35.91" width="30.75" height="7.13" rx="2.61" ry="2.61"/><rect class="cls-1" x="84.59" y="43.04" width="30.75" height="7.13" rx="2.61" ry="2.61"/><rect class="cls-1" x="84.59" y="50.16" width="30.75" height="7.13" rx="2.61" ry="2.61"/><rect class="cls-1" x="84.59" y="57.29" width="30.75" height="7.13" rx="2.61" ry="2.61"/><rect class="cls-1" x="84.59" y="64.41" width="30.75" height="7.13" rx="2.61" ry="2.61"/><rect class="cls-1" x="84.59" y="71.54" width="30.75" height="7.13" rx="2.61" ry="2.61"/><rect class="cls-1" x="84.59" y="78.66" width="30.75" height="7.13" rx="2.61" ry="2.61"/><rect class="cls-1" x="84.59" y="85.79" width="30.75" height="7.13" rx="2.61" ry="2.61"/><rect class="cls-1" x="84.59" y="92.91" width="30.75" height="7.13" rx="2.61" ry="2.61"/><rect class="cls-1" x="84.59" y="100.04" width="30.75" height="7.13" rx="2.61" ry="2.61"/><rect class="cls-1" x="84.59" y="107.16" width="30.75" height="7.13" rx="2.61" ry="2.61"/><rect class="cls-1" x="84.59" y="114.29" width="30.75" height="7.13" rx="2.61" ry="2.61"/><rect class="cls-1" x="84.59" y="121.41" width="30.75" height="7.13" rx="2.61" ry="2.61"/><rect class="cls-1" x="84.59" y="128.54" width="30.75" height="7.13" rx="2.61" ry="2.61"/><rect class="cls-1" x="84.59" y="135.66" width="30.75" height="7.13" rx="2.61" ry="2.61"/><rect class="cls-1" x="84.59" y="142.79" width="30.75" height="7.13" rx="2.61" ry="2.61"/><path class="cls-1" d="M86.5 21.66v-2.2a2.92 2.92 0 0 1 2.92-2.92h21.16a2.92 2.92 0 0 1 2.92 2.92v2.21m9.85 56.09c-1.81 3.14-8.32-4.09-5-5.56-3.31 1.47-4.32-8.2-.78-7.45-3.54-.75 1.32-9.18 3.74-6.49-2.42-2.69 6.46-6.65 6.84-3-.38-3.6 9.14-1.58 7.32 1.56 1.81-3.14 8.32 4.09 5 5.56 3.31-1.47 4.32 8.2.78 7.45 3.54.75-1.32 9.18-3.74 6.49 2.42 2.69-6.46 6.65-6.84 3 .33 3.6-9.13 1.58-7.32-1.56z"/><path class="cls-1" d="M123 69.58a2.38 2.38 0 0 0 .17 2.5 2.48 2.48 0 0 0 3.33.33m2.92 2.42a3 3 0 0 0 2.58 1.59 3.11 3.11 0 0 0 2.83-3m1.09-10a2.79 2.79 0 0 1 3 .92 2.9 2.9 0 0 1-1.08 4m-14.34-5.26a2.45 2.45 0 0 1-.08-2.75 2.53 2.53 0 0 1 3.5-.42m-.08 1.09a2.78 2.78 0 0 1 5.5.67m1.25 3.75a2.69 2.69 0 0 1 1.17 2 2.77 2.77 0 0 1-2.5 2.58M125 65.33a2.5 2.5 0 0 0 .92 4.67M113.5 19.21a68.49 68.49 0 0 1 5 7.5 71 71 0 0 1 8.83 26.83"/></svg>