<svg id="Слой_1" data-name="Слой 1" xmlns="http://www.w3.org/2000/svg" viewBox="0 0 200 160"><defs><style>.cls-1{fill:none;stroke:#070707;stroke-miterlimit:10}.cls-2{fill:#070707}</style></defs><title>type</title><path class="cls-1" d="M119.17 100.54A26.42 26.42 0 0 0 117.5 90L114 72.29l-4.45 10.95a47 47 0 0 0-20.16-.69l-7.22-10.09-2.5 18.67a24.36 24.36 0 0 0-1.21 9.41 23.8 23.8 0 0 0 .67 4.15l-2 2.43 2.58 1.17-.71 3.42 3.31.4a19.46 19.46 0 0 0 5.69 5.68 19.86 19.86 0 0 0 10.81 3.1 20.09 20.09 0 0 0 12.19-3.77 18.8 18.8 0 0 0 3.88-3.88l3.54-.2-1.42-3.27 2.71-1.06-1.43-2.46a26 26 0 0 0 .89-5.71z"/><path class="cls-2" d="M88.75 98a1.83 1.83 0 0 0 2.67-.08 2 2 0 0 0-1.33-2.5 1.51 1.51 0 0 0-1.42.42 1.68 1.68 0 0 0 .08 2.16zm18.33-.63a1.8 1.8 0 0 1 1.17-2.37 1.88 1.88 0 0 1 2.17 2 1.72 1.72 0 0 1-1.33 1.42 1.76 1.76 0 0 1-2.01-1.05zm-5.25 4.21c0-.5-1.14-1.12-2.25-1.17s-2.43.53-2.42 1 .74.31 1.42 1.08.58 1.47.92 1.5.44-.77 1.33-1.58c.61-.54.99-.54 1-.83z"/><path class="cls-1" d="M93.5 86.62l-.25-4.25M99 88.21a34.55 34.55 0 0 0 0-3.5c0-1-.14-1.9-.25-2.75m4.83 5.83q.15-5.41.08-5.42s-.08.72-.17 2.17m-6.42 24.79c-.15 2 .87 3.59 1.88 3.75s2.86-1.27 3-3.75"/><path class="cls-1" d="M51.49 38.89h94.7v116.33h-94.7z"/><rect class="cls-1" x="50" y="33.7" width="98.11" height="5.18" rx="2.59" ry="2.59"/><rect class="cls-1" x="50" y="155.22" width="98.11" height="5.18" rx="2.59" ry="2.59"/><path class="cls-1" d="M53.06 33.37a10.87 10.87 0 0 0 6.51-4.86c2.62-4.75 0-10.36-2.5-13.25A13.65 13.65 0 0 0 42.82 11c-5.55 1.8-10.24 7.7-9 13.25.69 3.09 3.43 7.06 7.75 7.25a8.23 8.23 0 0 0 8.25-6.5c.46-2.73-.68-6.43-3-7-2.72-.67-6.71 3-6 6.25.44 2 2.56 3 3 3.25l-1.5 1.25a9.52 9.52 0 0 1-1.92-1.83 6.67 6.67 0 0 1-1.67-3.42 6.1 6.1 0 0 1 1.5-4.42 7.58 7.58 0 0 1 3.92-2.42c1.37-.43 3-.93 4.42-.17 1.08.57 1.55 1.55 2.17 2.83a9.38 9.38 0 0 1 1 4.33A9.5 9.5 0 0 1 50.57 28a10 10 0 0 1-3.33 3.83 10.23 10.23 0 0 1-7.83 1.33 10.1 10.1 0 0 1-4.67-2.75 11.2 11.2 0 0 1-2.92-7 13.79 13.79 0 0 1 2.83-9.5 14.06 14.06 0 0 1 7.5-4.75 16.23 16.23 0 0 1 10.25.58 15.94 15.94 0 0 1 7.42 5.58c1 1.39 4.07 5.7 2.67 10.92a12.24 12.24 0 0 1-5.58 7.08m3.77.13a6.33 6.33 0 0 1 .88-1.5c2.08-2.64 5.67-2.73 6.51-2.75a10.42 10.42 0 0 1 5.56 1.5c.13-.32 1.85-4.57 6.29-5.5a8.7 8.7 0 0 1 7 1.75c.17-.33 2.51-4.62 7.25-5a9 9 0 0 1 6.53 2.25 8.07 8.07 0 0 1 4.59-1.2c3.45.18 6.61 2.83 8.14 6.75a6.21 6.21 0 0 1 4.67-3.17 6.13 6.13 0 0 1 5.16 2.33c5.85-1.26 10.69-1 13.22 0a9.91 9.91 0 0 1 3.45 2.33 8 8 0 0 1 1.38 2.25M51.56 98.87a72.33 72.33 0 0 1 12.33-18.5c28.19-30.61 74.16-25.79 82.17-24.83m-94.5 82.16a88 88 0 0 0 35 2.17c33.85-4.83 54.06-28.49 59.5-35.33"/></svg>