<svg id="Слой_1" data-name="Слой 1" xmlns="http://www.w3.org/2000/svg" viewBox="0 0 60 60"><defs><style>.cls-1{fill:none;stroke:#070707;stroke-miterlimit:10;stroke-width:2px;}.cls-2{fill:#070707;}</style></defs><title>animal</title><path class="cls-1" d="M54.48,34.71a30.64,30.64,0,0,0-1.93-12.27L48.49,2l-5.17,12.7a54.49,54.49,0,0,0-23.38-.8L11.57,2.15,8.67,23.79a28.25,28.25,0,0,0-1.4,10.92,27.6,27.6,0,0,0,.78,4.82L5.77,42.35l3,1.35-0.87,4,3.84,0.47a22.56,22.56,0,0,0,6.6,6.59,23,23,0,0,0,12.54,3.6A23.3,23.3,0,0,0,45,53.94a21.8,21.8,0,0,0,4.5-4.5l4.1-.23-1.7-3.79,3.15-1.23L53.4,41.33A30.11,30.11,0,0,0,54.48,34.71Z"/><path class="cls-2" d="M19.21,31.72a2.12,2.12,0,0,0,3.09-.1c0.56-.92-0.32-2.62-1.55-2.9a1.75,1.75,0,0,0-1.64.48A2,2,0,0,0,19.21,31.72Z"/><path class="cls-2" d="M40.47,31a2.08,2.08,0,0,1,1.35-2.71,2.18,2.18,0,0,1,2.51,2.22,2,2,0,0,1-1.55,1.64A2,2,0,0,1,40.47,31Z"/><path class="cls-2" d="M34.38,35.92c0-.58-1.32-1.29-2.61-1.35S29,35.19,29,35.73s0.86,0.36,1.64,1.26,0.67,1.7,1.06,1.74,0.5-.9,1.55-1.84C33.92,36.26,34.36,36.25,34.38,35.92Z"/><path class="cls-1" d="M24.72,18.58l-0.29-4.93"/><path class="cls-1" d="M31.09,20.41a40.07,40.07,0,0,0,0-4.06c-0.06-1.13-.16-2.2-0.29-3.19"/><path class="cls-1" d="M36.41,19.93q0.17-6.28.1-6.28s-0.1.84-.19,2.51"/><path class="cls-1" d="M28.85,44.91c-0.17,2.34,1,4.16,2.17,4.35s3.31-1.47,3.48-4.35"/></svg>