<svg id="Слой_1" data-name="Слой 1" xmlns="http://www.w3.org/2000/svg" viewBox="0 0 60 60"><defs><style>.cls-1{fill:none;stroke:#070707;stroke-miterlimit:10;stroke-width:2px;}.cls-2{fill:#070707;}</style></defs><title>animal</title><path class="cls-1" d="M50.33,40.29c0.48,0.28,3.47,1.94,5.91.66,2.14-1.12,2.56-3.84,2.85-6C60,28.28,57.3,22.71,55.37,18.89c-2.78-5.51-5.3-10.5-10-11.28a9,9,0,0,0-5,.69,34.26,34.26,0,0,0-21.08-.07,7.2,7.2,0,0,0-3.6-.74c-0.84.06-4,.53-9.05,8.43C4.43,19.4-.36,27.19.94,36c0.47,3.18,1.44,4.44,2.44,5.12,2.75,1.87,6.68,0,7.19-.25"/><path class="cls-1" d="M6.93,21c0.52-1.56,1.93-5.31,4.46-6.78a2.27,2.27,0,0,1,2-.41c0.91,0.43.95,1.89,1,2a43.56,43.56,0,0,0-3.22,12.52c-0.58,5.68-1.43,14,3,19.42C21.77,57,43,54.92,48.76,45.09c2.68-4.6,1.82-10.63,1-16.45A46.92,46.92,0,0,0,46,15.91a2.83,2.83,0,0,1,1.49-1.32,3,3,0,0,1,2.23.25c1.79,0.79,3.63,4.14,4.79,8.76"/><path class="cls-2" d="M21.36,22.44A1.82,1.82,0,0,0,24,22.36a1.93,1.93,0,0,0-1.32-2.48,1.5,1.5,0,0,0-1.41.41A1.67,1.67,0,0,0,21.36,22.44Z"/><path class="cls-2" d="M35.25,22.07a1.78,1.78,0,0,1,1.16-2.31,1.87,1.87,0,0,1,2.15,1.9,1.71,1.71,0,0,1-1.32,1.41A1.75,1.75,0,0,1,35.25,22.07Z"/><path class="cls-2" d="M32.72,33.14c0-.5-1.13-1.11-2.23-1.16s-2.41.53-2.4,1,0.73,0.31,1.41,1.07,0.57,1.46.91,1.49,0.43-.77,1.32-1.57C32.33,33.43,32.71,33.42,32.72,33.14Z"/><path class="cls-1" d="M28.59,40.83c-0.15,2,.87,3.56,1.86,3.72s2.83-1.26,3-3.72"/></svg>