<svg id="Слой_1" data-name="Слой 1" xmlns="http://www.w3.org/2000/svg" viewBox="0 0 60 60"><defs><style>.cls-1{fill:none;stroke:#070707;stroke-miterlimit:10;stroke-width:2px;}</style></defs><title>animal</title><path class="cls-1" d="M13.2,35.55a2.42,2.42,0,0,0-4.76-.13"/><path class="cls-1" d="M4.46,34.81L8.66,45.34A4.85,4.85,0,0,0,14.95,48l1.59-.64h0L57.72,31l-2.4-6"/><circle class="cls-1" cx="10.83" cy="35.06" r="2.42" transform="translate(-15.67 9.68) rotate(-29.08)"/><path class="cls-1" d="M55.32,25l1.41-.78L44.3,1.82,5.17,23.56h0L4,24.2a4.85,4.85,0,0,0-1.88,6.58l7.73,13.9a4.85,4.85,0,0,0,6.58,1.88l1.5-.83h0L55.32,25"/><line class="cls-1" x1="28.35" y1="34.29" x2="33.93" y2="13.2"/><rect class="cls-1" x="20.19" y="18.24" width="7.1" height="7.1" rx="3.45" ry="3.45" transform="translate(-7.6 14.28) rotate(-29.08)"/><rect class="cls-1" x="33.96" y="21.65" width="7.71" height="7.71" rx="3.74" ry="3.74" transform="translate(-7.63 21.59) rotate(-29.08)"/><path class="cls-1" d="M10.44,37.3a1.74,1.74,0,0,0,.28-1.38,1.87,1.87,0,0,0-1.38-1.1C7.46,34.5,3.44,40,3.48,44.75,3.52,50.22,9,55.58,17,58.18"/><path class="cls-1" d="M5,39.3a2.2,2.2,0,0,0,2,.07"/></svg>