<svg id="Слой_2" data-name="Слой 2" xmlns="http://www.w3.org/2000/svg" viewBox="0 0 500 424"><defs><style>.cls-1,.cls-3,.cls-5{fill:none;stroke-miterlimit:10;}.cls-1{stroke:#070707;}.cls-2{fill:#070707;}.cls-3{stroke:#000333;}.cls-4{fill:#333;}.cls-5{stroke:#333;}</style></defs><title>category</title><path class="cls-1" d="M230,100.32c3.52,3.86,10.69,3.06,12.82-.4,2.33-3.79-1.32-10.88-6.41-12a7.26,7.26,0,0,0-6.81,2C227,92.76,227.51,97.61,230,100.32Z"/><path class="cls-2" d="M399.75,93.22c-4.21-16-11-27.42-24.56-50.19-6.77-11.37-10.52-16.53-17.33-20.22a39.12,39.12,0,0,0-20.22-4.33,37.91,37.91,0,0,0-13,3.25,94.28,94.28,0,0,0-33.22-7.22c-5.18,9.77-13.65,29.56-9.65,53,6.29,36.83,40.78,67.37,86.57,75.2L367,155.87c4.91,2.85,15,7.63,23.37,3.79,12.71-5.8,13.14-27.37,13.36-38.28C404,109.5,401.71,100.68,399.75,93.22Zm-69.54,2.1c-2.13,3.46-9.29,4.26-12.82.4-2.48-2.71-3-7.56-.4-10.41a7.26,7.26,0,0,1,6.81-2C328.89,84.44,332.55,91.53,330.21,95.32Z"/><path class="cls-2" d="M325.68,92.25a2.71,2.71,0,0,1-3.94-.12c-0.72-1.17.41-3.35,2-3.7a2.23,2.23,0,0,1,2.09.62A2.48,2.48,0,0,1,325.68,92.25Z"/><path class="cls-2" d="M237.45,96.85a2.71,2.71,0,0,1-3.94-.12c-0.72-1.17.41-3.35,2-3.7a2.23,2.23,0,0,1,2.09.62A2.48,2.48,0,0,1,237.45,96.85Z"/><path class="cls-3" d="M196.67,233.84c9.47,60,17,105.37,19.72,131,1,9.49,3,31.31,18,51.7a85.79,85.79,0,0,0,6.13,7.45h36.81a13.65,13.65,0,0,0-11-15.77l3.29-131.45"/><path class="cls-3" d="M251.88,412.61A9.45,9.45,0,0,1,258,422.69"/><path class="cls-3" d="M263.71,412.61A14.27,14.27,0,0,1,267.65,424"/><path class="cls-3" d="M363.51,233.84c-9.47,60-17,105.37-19.72,131-1,9.49-3,31.31-18,51.7a85.79,85.79,0,0,1-6.13,7.45H282.89a13.65,13.65,0,0,1,11-15.77l-3.29-131.45"/><path class="cls-3" d="M308.3,412.61a9.45,9.45,0,0,0-6.13,10.08"/><path class="cls-3" d="M296.47,412.61A14.27,14.27,0,0,0,292.53,424"/><path class="cls-3" d="M203.12,167.79c-5.71,5-115.06,102.05-88.8,186.54,5.52,17.76,24.68,59.59,53.68,64.85,4.8,0.87,18.25,3.31,29.8-4.38,7.88-5.25,11.88-13.2,13.14-15.77,2-4.09,3.09-6.29,2.63-9.2-1.13-7.2-10.67-12.07-18.4-12.49-2.59-.14-7.42-0.4-11.17,2.63-4.29,3.46-3.71,8.41-7.89,10.52-2.7,1.36-5.77.72-7.89,0"/><path class="cls-3" d="M192.42,385a20.36,20.36,0,0,1,4.82-6.9"/><path class="cls-3" d="M203.82,388.73a12,12,0,0,1,3.18-3.94,11.79,11.79,0,0,1,2.74-1.64"/><path class="cls-4" d="M186.73,406.58c-3.81-3-2.9-9.38-1.31-12.82a7.93,7.93,0,0,1,3.18-3.94c4.29-2.42,11.88.35,13.58,5.7a9.14,9.14,0,0,1-1.1,7.23C198.2,407.37,190.86,409.86,186.73,406.58Z"/><path class="cls-4" d="M138.67,399.08c-3-.13-39.05-2.14-51.29-27.54-7.66-15.9-4.83-38.53,2.48-41.05,4.54-1.57,12,4.31,14.81,11,3.22,7.71-2.62,12.88-.22,20.07,1.43,4.27,5.68,9.34,18,13A112.61,112.61,0,0,0,138.67,399.08Z"/><path class="cls-3" d="M201.69,411.59L231,411.87"/><path class="cls-3" d="M326,415.13a46.74,46.74,0,0,0,12,4.05c4.73,0.91,17.89,3.55,29.8-4.38,7.88-5.25,11.88-13.2,13.14-15.77,2-4.09,3.09-6.29,2.63-9.2-1.13-7.2-10.67-12.07-18.4-12.49-2.59-.14-7.42-0.4-11.17,2.63-4.29,3.46-3.71,8.41-7.89,10.52-2.7,1.36-5.77.72-7.89,0"/><path class="cls-3" d="M362.34,385a20.36,20.36,0,0,1,4.82-6.9"/><path class="cls-3" d="M373.74,388.73a12,12,0,0,1,3.18-3.94,11.79,11.79,0,0,1,2.74-1.64"/><path class="cls-4" d="M356.65,406.58c-3.81-3-2.9-9.38-1.31-12.82a7.93,7.93,0,0,1,3.18-3.94c4.29-2.42,11.88.35,13.58,5.7a9.14,9.14,0,0,1-1.1,7.23C368.12,407.37,360.78,409.86,356.65,406.58Z"/><path class="cls-3" d="M356,181.26c16.19,40.15,38.85,115.79,5.7,183.59A160.23,160.23,0,0,1,353.23,380"/><path class="cls-3" d="M168.43,330.23c0.93,4.5,6.3,28.16,28,40.31a53.89,53.89,0,0,0,21.91,6.57"/><path class="cls-3" d="M267.46,380.18a63.93,63.93,0,0,0,25.85-1.75"/><path class="cls-3" d="M275.1,414.8a15.36,15.36,0,0,0,5.07.27,16.42,16.42,0,0,0,4.9-1.37"/><path class="cls-3" d="M344.14,363.1a63.45,63.45,0,0,0,14-28"/><path class="cls-2" d="M281.46,242.78a1.26,1.26,0,0,1-1.84-.06,1.35,1.35,0,0,1,.92-1.73,1,1,0,0,1,1,.29A1.16,1.16,0,0,1,281.46,242.78Z"/><path class="cls-4" d="M340.17,197c-24,16.87-50.31,16.77-58.17,16.63-8.44-.15-30.13-0.78-52-14.9a92.61,92.61,0,0,1-20.69-18.32c0,0.12-.11.24-0.15,0.37-5,14.57,18.44,35.73,35.49,44.69,26.4,13.89,62.76,9,85.88-11.39A73.11,73.11,0,0,0,348,190.81,85.85,85.85,0,0,1,340.17,197Zm-59.52,33.61a3.16,3.16,0,1,1,3.16-3.16A3.16,3.16,0,0,1,280.64,230.65Z"/><path class="cls-5" d="M278.71,239.59a18.47,18.47,0,0,1-.63-3.57c-0.26-3.52.73-8.06,2.3-8.22s3.34,3.34,3.51,6.57c0.2,3.82-2,7.81-3.51,7.67"/><path class="cls-2" d="M267.58,367.67c-1.91-1.55-15.45-12.93-15.71-32.18-0.28-21,15.54-33.22,17.17-34.42q-0.38,16.33-.74,32.66Q267.93,350.69,267.58,367.67Z"/><path class="cls-1" d="M366.54,155.88c2,1.16,14.59,8.15,24.84,2.78,9-4.72,10.76-16.14,12-25,3.92-28.26-7.52-51.67-15.63-67.74C376,42.75,365.46,21.77,345.52,18.48c-8.49-1.4-16,.85-20.83,2.89a144,144,0,0,0-88.6-.29A30.25,30.25,0,0,0,221,18c-3.54.25-17,2.23-38,35.44-9.3,14.68-29.45,47.41-24,84.42,2,13.55,6.17,18.75,10.25,21.54,12.09,8.27,29.73-.55,31.74-1.59"/><path class="cls-1" d="M184.15,74.59c2.18-6.55,8.12-22.31,18.76-28.49,2-1.14,5.39-3.13,8.34-1.74,3.82,1.8,4,7.93,4,8.51a183.1,183.1,0,0,0-13.55,52.63c-2.88,28.19-6.31,58.35,12.68,81.64,22.82,28,62.17,26.91,70.27,26.68,5.88-.16,55.1-2.23,75.29-37.8,11.43-20.13,8.09-41.61,4.17-69.13a197.2,197.2,0,0,0-15.63-53.5,11.88,11.88,0,0,1,6.25-5.56c3.94-1.35,7.58.25,9.38,1,7.54,3.32,15.27,17.38,20.15,36.82"/><path class="cls-2" d="M292.54,125.84c0.12-2.1-4.76-4.65-9.38-4.86-5-.23-10.13,2.22-10.07,4.17,0,1.48,3.08,1.29,5.91,4.52s2.4,6.13,3.82,6.25,1.81-3.22,5.56-6.6C290.9,127,292.48,127,292.54,125.84Z"/><path class="cls-1" d="M275.17,158.14c-0.61,8.43,3.65,15,7.82,15.63,4.64,0.76,11.91-5.3,12.51-15.63"/><path class="cls-4" d="M115.55,294a53.61,53.61,0,0,0,21.67-8.31c12.14-8.18,17.37-19.6,27.08-44.78q10.84-28.11,19.5-53.81A258.52,258.52,0,0,0,115.55,294Z"/><path class="cls-4" d="M188.86,195.42c-4.06.74-6.68,7.08-5.06,11.92,1.52,4.54,6.87,8,10.47,6.5,3.9-1.58,4.79-8.5,2.53-13C195.42,198.08,192.15,194.81,188.86,195.42Z"/><path class="cls-4" d="M358.94,262.22C346.23,261.14,335.14,268,332,277.8c-3.26,10.21,2,24,10.64,26,1.49,0.34,5.2.79,10.37-2.59Z"/><path class="cls-5" d="M302,249.33v-0.22a8.15,8.15,0,1,0-8-9.62H267.75a8.14,8.14,0,1,0-10.59,10.18,8.15,8.15,0,1,0,10.31,9.49H294A8.15,8.15,0,1,0,302,249.33Z"/></svg>