<svg id="Слой_1" data-name="Слой 1" xmlns="http://www.w3.org/2000/svg" viewBox="0 0 160 160"><defs><style>.cls-1,.cls-2{fill:none;stroke:#070707;stroke-miterlimit:10;}.cls-2{stroke-width:2px;}</style></defs><title>info-discount</title><path class="cls-1" d="M47.14,93.48a5.36,5.36,0,0,0-10.55-.29"/><path class="cls-1" d="M130.15,43.9l-5.31-13.29-1.71.68"/><path class="cls-1" d="M27.76,91.83l9.33,23.36a10.76,10.76,0,0,0,13.94,6l3.53-1.41h0L145.88,83.3,140.56,70"/><circle class="cls-1" cx="41.89" cy="92.39" r="5.36" transform="translate(-39.62 32.01) rotate(-29.08)"/><path class="cls-1" d="M140.56,70l3.13-1.74L116.11,18.67,29.33,66.9v0l-2.49,1.39A10.76,10.76,0,0,0,22.7,82.9l17.15,30.83a10.76,10.76,0,0,0,14.59,4.16L57.75,116h0L140.56,70"/><line class="cls-2" x1="80.75" y1="90.69" x2="93.12" y2="43.91"/><rect class="cls-2" x="62.65" y="55.08" width="15.76" height="15.76" rx="7.88" ry="7.88" transform="matrix(0.87, -0.49, 0.49, 0.87, -21.71, 42.21)"/><rect class="cls-2" x="93.19" y="62.66" width="17.1" height="17.1" rx="8.55" ry="8.55" transform="translate(-21.79 58.43) rotate(-29.08)"/><path class="cls-1" d="M41,97.37a3.87,3.87,0,0,0,.61-3.06,4.15,4.15,0,0,0-3.06-2.45c-4.16-.72-13.08,11.5-13,22,0.1,12.15,12.27,24,30,29.8"/><path class="cls-1" d="M29,101.8a4.88,4.88,0,0,0,4.43.15"/></svg>