<svg id="Слой_1" data-name="Слой 1" xmlns="http://www.w3.org/2000/svg" viewBox="0 0 200 160"><defs><style>.cls-1{fill:none;stroke:#070707;stroke-miterlimit:10;}.cls-2{fill:#070707;}</style></defs><title>type</title><path class="cls-1" d="M171.43,100.95a6.38,6.38,0,0,0-4.68-4H32.65a6.37,6.37,0,0,0-4.46,3.42C24.71,117.71,17.74,137.12,4,155q-2,2.6-4,5H200q-2.24-2.84-4.42-5.9A156.47,156.47,0,0,1,171.43,100.95Z"/><path class="cls-1" d="M166.26,96.77c0.08-5.15-2.29-9.86-6.06-12-5.22-3-10.23.51-10.81,0.93-5,3.61-5.49,10.11-5.54,10.8"/><path class="cls-1" d="M144.91,91.22c-2.1-5-6.21-8.32-10.54-8.33-5.8,0-11.25,5.85-11.86,13.88"/><path class="cls-1" d="M84.77,96.8A6.22,6.22,0,0,1,96.3,97"/><path class="cls-1" d="M90.67,93a11.59,11.59,0,0,0-9.55-6.72,11.54,11.54,0,0,0-10.81,5.55A10.68,10.68,0,0,0,69,97.08"/><path class="cls-1" d="M70.57,90.91C70.14,90.43,66,86,60.29,87.21c-4.35.93-7.92,4.76-9.23,9.87"/><path class="cls-1" d="M50.5,96.5a28,28,0,0,0-7.33-7.17,8.83,8.83,0,0,0-3.83-1.5,7,7,0,0,0-4.17.67c-2.22,1.33-3.22,4.72-2.33,8.33"/><path class="cls-1" d="M57.39,87.21a12.27,12.27,0,0,0-4.22-4.94,10.06,10.06,0,0,0-9.49-.62,12.73,12.73,0,0,0-5.8,5.86"/><path class="cls-1" d="M125.14,88.75a13,13,0,0,0-8.44-3.39,10.64,10.64,0,0,0-6.37,1.81c-4.41,3.13-4.35,8.9-4.33,9.5"/><path class="cls-1" d="M110.12,86.9a13,13,0,0,0-10.28-3.09c-6.07,1-9.25,6.24-9.75,7.1"/><path class="cls-1" d="M125.14,59.13c0.43,0.7,3.58,6,1.32,11.11A8.62,8.62,0,0,1,117,75.18c-4.82-.94-8.75-6.54-8.17-12.34,0.36-3.61,2.48-7.35,5.8-8.64C119,52.5,123.16,55.91,125.14,59.13Z"/><path class="cls-1" d="M67.94,43.4c2.84,4.32,1.37,12-2.9,15.43-4.87,3.93-12.08,1.28-14.5-4a11.37,11.37,0,0,1,0-9.26c1.76-3.67,5.16-4.51,6.85-4.94C58.41,40.37,64.88,38.76,67.94,43.4Z"/><path class="cls-1" d="M142.54,49.26c-5.2,3.43-13.35-1.87-13.71-8-0.27-4.75,4.11-9.86,9-10.18A8.43,8.43,0,0,1,146,36C148.11,40.72,146,46.94,142.54,49.26Z"/><path class="cls-1" d="M95.88,20.88c5.62,0.71,10,7.89,9,12.34-1.45,5.92-13.18,9.09-17.13,3.39-2.08-3-2.14-8.67.53-12.34A8.43,8.43,0,0,1,95.88,20.88Z"/><path class="cls-1" d="M91.16,45.36C91,40.24,85.51,35.7,80.35,36.1S69.94,42,70.6,47.51c0.54,4.51,4.74,7.46,8.17,8C84.56,56.49,91.36,51.21,91.16,45.36Z"/><path class="cls-1" d="M55.83,40.83a9.16,9.16,0,0,0-4-4.22c-3.38-1.74-8.75-1.61-11.07,2.16a10.94,10.94,0,0,0,.53,11.42,8.78,8.78,0,0,0,5.95,3.58,7.44,7.44,0,0,0,2.49-.19"/><path class="cls-1" d="M94.3,74.56c-0.33,1.22-1.39,5.15-4.48,6.79C86.27,83.23,81.33,81.42,79,77c-2.13-4-1.67-9.53,1.05-12.65,4.19-4.8,12.13-2.16,14.23,2.78C95.52,70,94.63,73.34,94.3,74.56Z"/><path class="cls-1" d="M95.62,71.17a10.23,10.23,0,0,1,8.17,2.16c5.29,4.33,4.77,12.32,4.74,12.65"/><path class="cls-1" d="M91.29,88.88A8.92,8.92,0,0,1,89.55,81"/><path class="cls-1" d="M73.47,87.83c0.79-7.09-3.69-13.21-9-13.58-4.45-.31-8.84,3.51-10,9.26"/><path class="cls-1" d="M65.57,73.63c1.1-7.85,5.78-13.55,11.07-14.19,3.77-.45,6.76,1.8,7.91,2.78"/><path class="cls-1" d="M72.95,83.2a6,6,0,0,0,5.27-.31,7.22,7.22,0,0,0,2.64-2.78"/><path class="cls-1" d="M141.75,85c-1.68-5.26-6-8.73-10.81-8.64s-9,3.68-10.54,8.95"/><path class="cls-1" d="M143.11,56.54a5.52,5.52,0,0,0-5.12,3c-1.94,4.27,3.21,10.57,5.49,12.84,1.62,1.62,4,4,6.95,3.42,0.13,0,3.23-.65,4-3.21,0.73-2.34-.94-4.78-3.66-8.78C147.61,59.14,145.9,56.64,143.11,56.54Z"/><path class="cls-1" d="M51.67,68.1c-0.1,4.59-4.33,7.27-6,8.35-1.55,1-4.44,2.81-6.58,1.28a4.66,4.66,0,0,1-1.83-3.42c-0.11-2.11,1.39-3.09,6.22-8.35,3.23-3.52,3.83-4.47,4.94-4.28C50.26,62,51.73,65.3,51.67,68.1Z"/><path class="cls-1" d="M121.35,54.4a25.87,25.87,0,0,0-6-7.49c-2.45-2.05-6.44-5.38-9.51-3.64a6,6,0,0,0-2.74,5.35c0.14,1.68,1.15,2.76,2.38,4.07a14.18,14.18,0,0,0,5.49,3.64"/><path class="cls-1" d="M157,82.83a8.35,8.35,0,0,0-1.82-6.6,6.92,6.92,0,0,0-2-1.5"/><path class="cls-1" d="M143.29,72.81a5.62,5.62,0,0,0-4.39,1.07,7.49,7.49,0,0,0-2.56,3.85"/><path class="cls-1" d="M132.14,76.23a9.05,9.05,0,0,0-1.65-3.85,7,7,0,0,0-3.66-2.57"/><path class="cls-1" d="M109.83,68.74a4.6,4.6,0,0,0-3.84,1.5,6.18,6.18,0,0,0-1.46,3.21"/><path class="cls-1" d="M100.74,70.88a14.17,14.17,0,0,0-1-9.13c-0.41-.82-2.86-5.53-7.56-5.71-3.26-.12-6.36,2-8,5.42"/><path class="cls-1" d="M58.8,74.88a8.34,8.34,0,0,0-3.41-4.57,6.19,6.19,0,0,0-3.9-.86"/><path class="cls-1" d="M39.05,78a6.4,6.4,0,0,0-1.22,3.14,6.81,6.81,0,0,0,1,4.28"/><path class="cls-1" d="M119.58,140.33c0.48,0.28,3.5,2,6,.67,2.16-1.13,2.58-3.87,2.88-6,0.94-6.78-1.8-12.39-3.75-16.25-2.8-5.55-5.34-10.59-10.12-11.37a9.12,9.12,0,0,0-5,.69A34.55,34.55,0,0,0,88.29,108a7.26,7.26,0,0,0-3.62-.75c-0.85.06-4.08,0.53-9.12,8.5-2.23,3.52-7.06,11.37-5.75,20.25,0.48,3.21,1.45,4.48,2.46,5.17,2.78,1.89,6.74,0,7.25-.25"/><path class="cls-1" d="M75.83,120.83c0.52-1.57,1.95-5.35,4.5-6.83a2.28,2.28,0,0,1,2-.42c0.92,0.43,1,1.9,1,2A43.92,43.92,0,0,0,80,128.25c-0.59,5.73-1.45,14.16,3,19.58,7.71,9.32,29.13,7.25,34.92-2.67,2.7-4.63,1.84-10.72,1-16.58a47.3,47.3,0,0,0-3.75-12.83,2.85,2.85,0,0,1,1.5-1.33,3.05,3.05,0,0,1,2.25.25c1.81,0.8,3.66,4.17,4.83,8.83"/><path class="cls-2" d="M90.38,122.33a1.83,1.83,0,0,0,2.67-.08,2,2,0,0,0-1.33-2.5,1.51,1.51,0,0,0-1.42.42A1.68,1.68,0,0,0,90.38,122.33Z"/><path class="cls-2" d="M104.39,122a1.8,1.8,0,0,1,1.17-2.33,1.88,1.88,0,0,1,2.17,1.92,1.72,1.72,0,0,1-1.33,1.42A1.76,1.76,0,0,1,104.39,122Z"/><path class="cls-2" d="M101.83,133.13c0-.5-1.14-1.12-2.25-1.17s-2.43.53-2.42,1,0.74,0.31,1.42,1.08,0.58,1.47.92,1.5,0.44-.77,1.33-1.58C101.44,133.41,101.82,133.41,101.83,133.13Z"/><path class="cls-1" d="M97.67,140.88c-0.15,2,.87,3.59,1.88,3.75s2.86-1.27,3-3.75"/><path class="cls-1" d="M113.33,56.83c-0.27.4-3.26,4.87-1.33,9.67a9.18,9.18,0,0,0,5,5.17,8.52,8.52,0,0,0,4,.5"/><path class="cls-1" d="M132.5,43.5a7.84,7.84,0,0,0,5,2.83,8.37,8.37,0,0,0,8.17-5"/><path class="cls-1" d="M129,87.33a8.45,8.45,0,0,0-1.83,6,7.88,7.88,0,0,0,1.17,3.33"/><path class="cls-1" d="M150.5,88.5a6.93,6.93,0,0,0-1.67,4.83A6.66,6.66,0,0,0,150,96.67"/><path class="cls-1" d="M140.17,80.83A13.17,13.17,0,0,0,149.5,85"/><path class="cls-1" d="M109.83,75.33A7.88,7.88,0,0,0,111.17,81,7.48,7.48,0,0,0,114,83.33"/><path class="cls-1" d="M115.33,87.83a5.88,5.88,0,0,1,6.33,4.5"/><path class="cls-1" d="M98.67,87.83a4.5,4.5,0,0,0-2,1.5,4.65,4.65,0,0,0-.83,3.33"/><path class="cls-1" d="M81.83,67.17c-1.86,3.55-1.45,7.54.83,9.83a7.36,7.36,0,0,0,4.67,2"/><path class="cls-1" d="M84.17,40.67a7,7,0,0,1,1.5,7.17,7.34,7.34,0,0,1-4.83,4.33"/><path class="cls-1" d="M89.5,30.33a6.21,6.21,0,0,0,10,3.5"/><path class="cls-1" d="M52.83,53.67A6.38,6.38,0,0,0,64.67,51"/><path class="cls-1" d="M42.17,45a7.54,7.54,0,0,0,5.5,4.83"/><path class="cls-1" d="M60.33,78.83a4.54,4.54,0,0,0-1.5,4.33,4.4,4.4,0,0,0,1.67,2.5"/><path class="cls-1" d="M56.5,95A6.37,6.37,0,0,1,58,92.67a6.27,6.27,0,0,1,1.33-1"/><path class="cls-1" d="M48.33,84.33A7.15,7.15,0,0,1,50.5,90.5"/></svg>