<svg id="Слой_1" data-name="Слой 1" xmlns="http://www.w3.org/2000/svg" viewBox="0 0 200 160"><defs><style>.cls-1{fill:none;stroke:#070707;stroke-miterlimit:10;}</style></defs><title>type</title><path class="cls-1" d="M24.76,120.74a4.69,4.69,0,0,1,2.55-4.32,4.89,4.89,0,0,1,4.54.33,5.22,5.22,0,0,1,2.33,3.88"/><path class="cls-1" d="M33.73,118.75a5.1,5.1,0,0,1,4.43-3,5.28,5.28,0,0,1,5,5"/><path class="cls-1" d="M55.78,120.85a5.41,5.41,0,0,1,2-2.88,5.33,5.33,0,0,1,2.77-1c0.19,0,3.22-.17,4.54,2a4,4,0,0,1,.55,1.88"/><path class="cls-1" d="M65,118.64a5.22,5.22,0,0,1,4.32-1.33,5,5,0,0,1,3.88,3.54"/><path class="cls-1" d="M75.5,120.85a5.49,5.49,0,0,1,7.75-3.21,5.7,5.7,0,0,1,2.66,3.1"/><path class="cls-1" d="M70.51,117.31a4.65,4.65,0,0,1,1.77-1.77,4.86,4.86,0,0,1,4-.22,5,5,0,0,1,2.44,2.1"/><path class="cls-1" d="M42,117.86a5.32,5.32,0,0,1,3.54-1.22,6,6,0,0,1,5.08,4.69"/><path class="cls-1" d="M48.36,117.2a5.91,5.91,0,0,1,8.42,1.44"/><path class="cls-1" d="M18.67,120.85a4.77,4.77,0,0,1,3.88-3.66,4.36,4.36,0,0,1,2.88.78"/><path class="cls-1" d="M85,118.53a4.7,4.7,0,0,1,8.86,2.33"/><path class="cls-1" d="M42,107.23c-0.18.25-1.5,2.16-.55,4a3.81,3.81,0,0,0,4,1.77,4.2,4.2,0,0,0,3.43-4.43,3.75,3.75,0,0,0-2.44-3.1C44.63,104.85,42.87,106.07,42,107.23Z"/><path class="cls-1" d="M102.86,104.15c-1.19,1.55-.57,4.3,1.22,5.54a4.42,4.42,0,0,0,6.09-1.44,3.54,3.54,0,0,0,0-3.32,4,4,0,0,0-2.88-1.77C106.87,103.06,104.15,102.48,102.86,104.15Z"/><path class="cls-1" d="M21.44,113.32c1.32,0.12,4,.35,4.76-1.22,0.65-1.26-.15-3.15-1.44-4.1a3.74,3.74,0,0,0-3.77-.44c-2,1-2.65,3.93-1.66,5.1A2.89,2.89,0,0,0,21.44,113.32Z"/><path class="cls-1" d="M79,109.78c0.07-1.84,2.37-3.47,4.54-3.32s4.38,2.1,4.1,4.1c-0.23,1.62-2,2.68-3.43,2.88C81.82,113.77,79,111.88,79,109.78Z"/><path class="cls-1" d="M86.18,107.17a3.83,3.83,0,0,1,1.44-1.33c1.33-.69,3.55-0.76,4.65.78a3.45,3.45,0,0,1-.22,4.1,3.61,3.61,0,0,1-3.54,1.22"/><path class="cls-1" d="M55,112.77a3.84,3.84,0,0,0,1.88,2.44,3.77,3.77,0,0,0,4.1-6.09c-1.76-1.72-5.1-.77-6,1A3.64,3.64,0,0,0,55,112.77Z"/><path class="cls-1" d="M54.45,111.55a4.88,4.88,0,0,0-3.43.78,5.3,5.3,0,0,0-2,4.54"/><path class="cls-1" d="M56.44,117.75L57,115.09"/><path class="cls-1" d="M63.75,117.53a4.27,4.27,0,0,1,3.77-4.87A4.23,4.23,0,0,1,71.73,116"/><path class="cls-1" d="M55.09,106.2a4.27,4.27,0,0,1,5.3-3.14,4.23,4.23,0,0,1,2.68,4.64"/><path class="cls-1" d="M67.08,112.44c-0.46-2.82-2.43-4.87-4.65-5.1a4.93,4.93,0,0,0-3.32,1"/><path class="cls-1" d="M64,115.87a2.93,2.93,0,0,1-2.22-.11,2.8,2.8,0,0,1-1.11-1"/><path class="cls-1" d="M35.06,116.53a4.77,4.77,0,0,1,9,.11"/><path class="cls-1" d="M34.49,106.3a2.41,2.41,0,0,1,2.15,1.08c0.81,1.53-1.35,3.8-2.31,4.61a3.75,3.75,0,0,1-2.92,1.23,2.3,2.3,0,0,1-1.69-1.15c-0.31-.84.39-1.72,1.54-3.15C32.6,107.23,33.32,106.33,34.49,106.3Z"/><path class="cls-1" d="M72.92,110.45c0,1.65,1.82,2.61,2.54,3s1.87,1,2.77.46a1.63,1.63,0,0,0,.77-1.23c0-.76-0.58-1.11-2.61-3-1.36-1.26-1.61-1.6-2.07-1.54C73.51,108.26,72.89,109.44,72.92,110.45Z"/><path class="cls-1" d="M93.29,111.63a10.29,10.29,0,0,1,2.06-1.9c1.11-.77,2.74-1.91,4-1.31a2.07,2.07,0,0,1,1.15,1.92,2.31,2.31,0,0,1-1,1.46,10.24,10.24,0,0,1-3.34,2"/><path class="cls-1" d="M15.43,120.9A5.23,5.23,0,0,1,16.74,117a5.33,5.33,0,0,1,7.38,0"/><path class="cls-1" d="M19.27,115.44a2.62,2.62,0,0,1,1-2.31"/><path class="cls-1" d="M26.42,112.29a3,3,0,0,1,2,1.54,2.94,2.94,0,0,1,.15,2.15"/><path class="cls-1" d="M24.81,107.68a4.44,4.44,0,0,1,4.69-1.23,4,4,0,0,1,1.92,1.69"/><path class="cls-1" d="M29,114.37a1.86,1.86,0,0,1,1.31-1.54"/><path class="cls-1" d="M34.41,112.14a2.64,2.64,0,0,1,2.92,1.77"/><path class="cls-1" d="M39.1,113.37a3,3,0,0,1,2.23-2.31"/><path class="cls-1" d="M48.48,110.68a2.14,2.14,0,0,1,1.61.54,2.07,2.07,0,0,1,.61,1.15"/><path class="cls-1" d="M52.29,111.45a4.41,4.41,0,0,1,.41-3.28,4,4,0,0,1,3.18-2,3.8,3.8,0,0,1,3.38,1.95"/><path class="cls-1" d="M69.92,112.88a3.05,3.05,0,0,1,1.43-1.64,3,3,0,0,1,1.64-.31"/><path class="cls-1" d="M78.22,114a2.13,2.13,0,0,1,.51,1.13,2.18,2.18,0,0,1-.41,1.54"/><path class="cls-1" d="M81.91,113.39a2.56,2.56,0,0,0-.51,2.25,2.35,2.35,0,0,0,.92,1.23"/><path class="cls-1" d="M87.34,112a3.33,3.33,0,0,1,2,2,3.13,3.13,0,0,1-.1,2"/><path class="cls-1" d="M177.05,121.3a4.69,4.69,0,0,0-2.55-4.32,4.89,4.89,0,0,0-4.54.33,5.22,5.22,0,0,0-2.33,3.88"/><path class="cls-1" d="M168.08,119.31a5.1,5.1,0,0,0-4.43-3,5.28,5.28,0,0,0-5,5"/><path class="cls-1" d="M146,121.41a5.41,5.41,0,0,0-2-2.88,5.33,5.33,0,0,0-2.77-1c-0.19,0-3.22-.17-4.54,2a4,4,0,0,0-.55,1.88"/><path class="cls-1" d="M136.84,119.2a5.22,5.22,0,0,0-4.32-1.33,5,5,0,0,0-3.88,3.54"/><path class="cls-1" d="M126.32,121.41a5.49,5.49,0,0,0-7.75-3.21,5.7,5.7,0,0,0-2.66,3.1"/><path class="cls-1" d="M131.3,117.87a4.65,4.65,0,0,0-1.77-1.77,4.86,4.86,0,0,0-4-.22,5,5,0,0,0-2.44,2.1"/><path class="cls-1" d="M159.77,118.42a5.19,5.19,0,0,0-3.54-1.22,5.55,5.55,0,0,0-4.73,4.13"/><path class="cls-1" d="M153.46,117.76A5.91,5.91,0,0,0,145,119.2"/><path class="cls-1" d="M183.15,121.41a4.77,4.77,0,0,0-3.88-3.66,4.36,4.36,0,0,0-2.88.78"/><path class="cls-1" d="M116.79,119.09a4.7,4.7,0,0,0-8.86,2.33"/><path class="cls-1" d="M159.77,107.79c0.18,0.25,1.5,2.16.55,4a3.81,3.81,0,0,1-4,1.77,4.2,4.2,0,0,1-3.43-4.43,3.75,3.75,0,0,1,2.44-3.1C157.18,105.4,158.94,106.63,159.77,107.79Z"/><path class="cls-1" d="M135.74,102.14c1.19,1.55.57,4.3-1.22,5.54a4.42,4.42,0,0,1-6.09-1.44,3.54,3.54,0,0,1,0-3.32,4,4,0,0,1,2.88-1.77C131.73,101,134.45,100.47,135.74,102.14Z"/><path class="cls-1" d="M180.38,113.88c-1.32.12-4,.35-4.76-1.22-0.65-1.26.15-3.15,1.44-4.1a3.74,3.74,0,0,1,3.77-.44c2,1,2.65,3.93,1.66,5.1A2.89,2.89,0,0,1,180.38,113.88Z"/><path class="cls-1" d="M122.77,110.33c-0.07-1.84-2.37-3.47-4.54-3.32s-4.38,2.1-4.1,4.1c0.23,1.62,2,2.68,3.43,2.88C120,114.33,122.86,112.44,122.77,110.33Z"/><path class="cls-1" d="M130.42,101A3.83,3.83,0,0,0,129,99.7c-1.33-.69-3.55-0.76-4.65.78a3.45,3.45,0,0,0,.22,4.1,3.61,3.61,0,0,0,3.54,1.22"/><path class="cls-1" d="M146.81,113.33a3.84,3.84,0,0,1-1.88,2.44,3.77,3.77,0,0,1-4.1-6.09c1.76-1.72,5.1-.77,6,1A3.64,3.64,0,0,1,146.81,113.33Z"/><path class="cls-1" d="M147.37,112.11a4.88,4.88,0,0,1,3.43.78,5.3,5.3,0,0,1,2,4.54"/><path class="cls-1" d="M145.37,118.31l-0.55-2.66"/><path class="cls-1" d="M138.06,118.09a4.27,4.27,0,0,0-3.77-4.87,4.23,4.23,0,0,0-4.21,3.32"/><path class="cls-1" d="M146.73,106.76a4.27,4.27,0,0,0-5.3-3.14,4.23,4.23,0,0,0-2.68,4.64"/><path class="cls-1" d="M134.74,113c0.46-2.82,2.43-4.87,4.65-5.1a4.93,4.93,0,0,1,3.32,1"/><path class="cls-1" d="M137.84,116.43a2.93,2.93,0,0,0,2.22-.11,2.8,2.8,0,0,0,1.11-1"/><path class="cls-1" d="M166.75,117.09a4.77,4.77,0,0,0-9,.11"/><path class="cls-1" d="M167.32,106.86a2.41,2.41,0,0,0-2.15,1.08c-0.81,1.53,1.35,3.8,2.31,4.61a3.75,3.75,0,0,0,2.92,1.23,2.3,2.3,0,0,0,1.69-1.15c0.31-.84-0.39-1.72-1.54-3.15C169.21,107.79,168.5,106.89,167.32,106.86Z"/><path class="cls-1" d="M128.9,111c0,1.65-1.82,2.61-2.54,3s-1.87,1-2.77.46a1.63,1.63,0,0,1-.77-1.23c0-.76.58-1.11,2.61-3,1.36-1.26,1.61-1.6,2.07-1.54C128.31,108.82,128.93,110,128.9,111Z"/><path class="cls-1" d="M158.18,106.09a9.7,9.7,0,0,0-2.54-2.69c-1-.74-2.7-1.93-4-1.31a2.07,2.07,0,0,0-1.15,1.92,2.4,2.4,0,0,0,1,1.46,6.09,6.09,0,0,0,2.31,1.31"/><path class="cls-1" d="M186.38,121.46a5.12,5.12,0,0,0-8.68-3.92"/><path class="cls-1" d="M182.54,116a2.62,2.62,0,0,0-1-2.31"/><path class="cls-1" d="M175.39,112.85a3,3,0,0,0-2,1.54,2.94,2.94,0,0,0-.15,2.15"/><path class="cls-1" d="M177,108.24a4.44,4.44,0,0,0-4.69-1.23,4,4,0,0,0-1.92,1.69"/><path class="cls-1" d="M172.86,114.92a1.86,1.86,0,0,0-1.31-1.54"/><path class="cls-1" d="M167.4,112.7a2.64,2.64,0,0,0-2.92,1.77"/><path class="cls-1" d="M162.71,113.93a3,3,0,0,0-2.23-2.31"/><path class="cls-1" d="M153.34,111.24a2.14,2.14,0,0,0-1.61.54,2.07,2.07,0,0,0-.61,1.15"/><path class="cls-1" d="M149.52,112a4.41,4.41,0,0,0-.41-3.28,4,4,0,0,0-3.18-2,3.8,3.8,0,0,0-3.38,1.95"/><path class="cls-1" d="M131.9,113.44a3.05,3.05,0,0,0-1.43-1.64,3,3,0,0,0-1.64-.31"/><path class="cls-1" d="M123.6,114.57a2.13,2.13,0,0,0-.51,1.13,2.18,2.18,0,0,0,.41,1.54"/><path class="cls-1" d="M119.91,114a2.56,2.56,0,0,1,.51,2.25,2.35,2.35,0,0,1-.92,1.23"/><path class="cls-1" d="M114.48,112.52a3.33,3.33,0,0,0-2,2,3.13,3.13,0,0,0,.1,2"/><path class="cls-1" d="M15.29,156.5a11,11,0,0,0,3.63,3.38H181.67a15.62,15.62,0,0,0,3.75-3.62c-1-7-1.3-18.67,5.75-28a28.09,28.09,0,0,1,1.83-2.18H6.83q1,1,1.83,2.06C16.1,137.35,16.09,149.27,15.29,156.5Z"/><rect class="cls-1" x="0.67" y="121.5" width="198.67" height="4.57"/><path class="cls-1" d="M93.17,117.33a5.37,5.37,0,0,1,6.5-.83A5.57,5.57,0,0,1,102,121"/><path class="cls-1" d="M100.92,116.88a8.33,8.33,0,0,1,5.5-3.12,8.24,8.24,0,0,1,5.5,1.38"/><path class="cls-1" d="M89.17,113.13a4.66,4.66,0,0,1,5.25-1A4.58,4.58,0,0,1,96.67,115"/><path class="cls-1" d="M90,104.33c3.64-8,8.38-18.09,14.17-29.83a27.44,27.44,0,0,1,3-5.33c12.1-15.48,48.1-11.49,51.5-1,0.66,2-.12,3.63-2.67,9.17-5.36,11.65-9.39,20.74-11.83,26.33"/><path class="cls-1" d="M111,71a33.87,33.87,0,0,1,11.33,9.17"/><path class="cls-1" d="M109.33,103.17c4.65-9.68,8.38-16.83,10-19.67a7.21,7.21,0,0,1,3.17-3.17,6.51,6.51,0,0,1,3.33-.5c3.13,0.27,13.71.85,28.17,1.67"/><path class="cls-1" d="M159.17,105.83c2.51-7.95,4.11-14,4.67-16.67a12.41,12.41,0,0,0,.17-4.83,11.53,11.53,0,0,0-.67-2.33l-4.17-14"/><path class="cls-1" d="M138.33,58.67q3.69-9,7.33-18.17,4.74-11.95,9.17-23.67A5.81,5.81,0,0,1,157,14.5c2.59-1.51,6.71-.91,7.67,1.33a3.73,3.73,0,0,1-.33,3.17L147.5,60"/><path class="cls-1" d="M149.83,61.33q5.32-14.12,11.33-28.67,2.23-5.39,4.5-10.67a5.23,5.23,0,0,0,.83-2.75,5.16,5.16,0,0,0-.42-2.08l-1.83-2.25"/><path class="cls-1" d="M115.17,66.5A24.47,24.47,0,0,1,125,78.17"/><path class="cls-1" d="M121.33,64a33.59,33.59,0,0,1,7.83,14.67"/><path class="cls-1" d="M128.33,63.33a60.39,60.39,0,0,1,5.33,15"/><path class="cls-1" d="M134,62.83l3.5,15.67"/><path class="cls-1" d="M139.17,62.33q0.52,3.61,1,7.33,0.55,4.31,1,8.5"/><path class="cls-1" d="M143.83,63.83l2.5,14.67"/><path class="cls-1" d="M149,65.5l2.5,13.17"/><path class="cls-1" d="M153.83,68L156,77.5"/></svg>