<svg id="Слой_1" data-name="Слой 1" xmlns="http://www.w3.org/2000/svg" viewBox="0 0 200 160"><defs><style>.cls-1{fill:none;stroke:#070707;stroke-miterlimit:10;}.cls-2{fill:#070707;}</style></defs><title>type</title><path class="cls-1" d="M119.17,100.54A26.42,26.42,0,0,0,117.5,90L114,72.29l-4.45,10.95a47,47,0,0,0-20.16-.69L82.17,72.46l-2.5,18.67a24.36,24.36,0,0,0-1.21,9.41,23.8,23.8,0,0,0,.67,4.15l-2,2.43,2.58,1.17L79,111.71l3.31,0.4A19.46,19.46,0,0,0,88,117.79a19.86,19.86,0,0,0,10.81,3.1A20.09,20.09,0,0,0,111,117.12a18.8,18.8,0,0,0,3.88-3.88l3.54-.2L117,109.77l2.71-1.06-1.43-2.46A26,26,0,0,0,119.17,100.54Z"/><path class="cls-2" d="M88.75,98a1.83,1.83,0,0,0,2.67-.08,2,2,0,0,0-1.33-2.5,1.51,1.51,0,0,0-1.42.42A1.68,1.68,0,0,0,88.75,98Z"/><path class="cls-2" d="M107.08,97.37A1.8,1.8,0,0,1,108.25,95,1.88,1.88,0,0,1,110.42,97a1.72,1.72,0,0,1-1.33,1.42A1.76,1.76,0,0,1,107.08,97.37Z"/><path class="cls-2" d="M101.83,101.58c0-.5-1.14-1.12-2.25-1.17s-2.43.53-2.42,1,0.74,0.31,1.42,1.08,0.58,1.47.92,1.5,0.44-.77,1.33-1.58C101.44,101.87,101.82,101.87,101.83,101.58Z"/><path class="cls-1" d="M93.5,86.62l-0.25-4.25"/><path class="cls-1" d="M99,88.21a34.55,34.55,0,0,0,0-3.5c0-1-.14-1.9-0.25-2.75"/><path class="cls-1" d="M103.58,87.79q0.15-5.41.08-5.42s-0.08.72-.17,2.17"/><path class="cls-1" d="M97.07,109.33c-0.15,2,.87,3.59,1.88,3.75s2.86-1.27,3-3.75"/><rect class="cls-1" x="51.49" y="38.89" width="94.7" height="116.33"/><rect class="cls-1" x="50" y="33.7" width="98.11" height="5.18" rx="2.59" ry="2.59"/><rect class="cls-1" x="50" y="155.22" width="98.11" height="5.18" rx="2.59" ry="2.59"/><path class="cls-1" d="M53.06,33.37a10.87,10.87,0,0,0,6.51-4.86c2.62-4.75,0-10.36-2.5-13.25A13.65,13.65,0,0,0,42.82,11c-5.55,1.8-10.24,7.7-9,13.25,0.69,3.09,3.43,7.06,7.75,7.25A8.23,8.23,0,0,0,49.82,25c0.46-2.73-.68-6.43-3-7-2.72-.67-6.71,3-6,6.25,0.44,2,2.56,3,3,3.25l-1.5,1.25a9.52,9.52,0,0,1-1.92-1.83,6.67,6.67,0,0,1-1.67-3.42,6.1,6.1,0,0,1,1.5-4.42,7.58,7.58,0,0,1,3.92-2.42c1.37-.43,3-0.93,4.42-0.17,1.08,0.57,1.55,1.55,2.17,2.83a9.38,9.38,0,0,1,1,4.33A9.5,9.5,0,0,1,50.57,28a10,10,0,0,1-3.33,3.83,10.23,10.23,0,0,1-7.83,1.33,10.1,10.1,0,0,1-4.67-2.75,11.2,11.2,0,0,1-2.92-7,13.79,13.79,0,0,1,2.83-9.5,14.06,14.06,0,0,1,7.5-4.75,16.23,16.23,0,0,1,10.25.58,15.94,15.94,0,0,1,7.42,5.58c1,1.39,4.07,5.7,2.67,10.92a12.24,12.24,0,0,1-5.58,7.08"/><path class="cls-1" d="M60.68,33.45a6.33,6.33,0,0,1,.88-1.5c2.08-2.64,5.67-2.73,6.51-2.75a10.42,10.42,0,0,1,5.56,1.5c0.13-.32,1.85-4.57,6.29-5.5a8.7,8.7,0,0,1,7,1.75c0.17-.33,2.51-4.62,7.25-5a9,9,0,0,1,6.53,2.25A8.07,8.07,0,0,1,105.29,23c3.45,0.18,6.61,2.83,8.14,6.75a6.21,6.21,0,0,1,4.67-3.17,6.13,6.13,0,0,1,5.16,2.33c5.85-1.26,10.69-1,13.22,0a9.91,9.91,0,0,1,3.45,2.33,8,8,0,0,1,1.38,2.25"/><path class="cls-1" d="M51.56,98.87a72.33,72.33,0,0,1,12.33-18.5c28.19-30.61,74.16-25.79,82.17-24.83"/><path class="cls-1" d="M51.56,137.7a88,88,0,0,0,35,2.17c33.85-4.83,54.06-28.49,59.5-35.33"/></svg>