<svg id="Слой_1" data-name="Слой 1" xmlns="http://www.w3.org/2000/svg" viewBox="0 0 200 160"><defs><style>.cls-1{fill:none;stroke:#070707;stroke-miterlimit:10;}.cls-2{fill:#070707;}</style></defs><title>type</title><path class="cls-1" d="M171.43,100.95a6.38,6.38,0,0,0-4.68-4H32.65a6.37,6.37,0,0,0-4.46,3.42C24.71,117.71,17.74,137.12,4,155q-2,2.6-4,5H200q-2.24-2.84-4.42-5.9A156.47,156.47,0,0,1,171.43,100.95Z"/><path class="cls-1" d="M67.91,93.71a7.4,7.4,0,0,1,6.43-4.34c3.54,0,6.86,3,7.24,7.24"/><path class="cls-1" d="M84.77,96.8A6.22,6.22,0,0,1,96.3,97"/><path class="cls-1" d="M113.27,93.55a7.58,7.58,0,0,1,6.27-1.93,7.31,7.31,0,0,1,5.63,5.15"/><path class="cls-1" d="M46,96.77a6.93,6.93,0,0,1,5.63-5.31,6.33,6.33,0,0,1,4.18,1.13"/><path class="cls-1" d="M97.83,57c-3.43.37-6.13,4.11-5.47,6.43,0.88,3.09,8,4.74,10.45,1.77a5.34,5.34,0,0,0-.32-6.43A5.63,5.63,0,0,0,97.83,57Z"/><path class="cls-1" d="M133.7,80.69c0.11-2.66,3.45-5,6.59-4.83s6.35,3.05,6,6c-0.33,2.35-2.89,3.89-5,4.18C137.73,86.49,133.58,83.74,133.7,80.69Z"/><path class="cls-1" d="M122.6,67.18a5.57,5.57,0,0,1,2.09-1.93c1.93-1,5.15-1.1,6.76,1.13a5,5,0,0,1-.32,6A5.24,5.24,0,0,1,126,74.09"/><path class="cls-1" d="M98,83.26a7.08,7.08,0,0,0-5,1.13c-3.23,2.26-2.91,6.42-2.9,6.59"/><path class="cls-1" d="M100.89,92.27l0.8-3.86"/><path class="cls-1" d="M111.5,91.94A6.2,6.2,0,0,1,117,84.87a6.14,6.14,0,0,1,6.11,4.83"/><path class="cls-1" d="M98.92,75.49a6.2,6.2,0,0,1,7.7-4.55,6.14,6.14,0,0,1,3.89,6.74"/><path class="cls-1" d="M111.82,89.53a4.26,4.26,0,0,1-3.22-.16A4.07,4.07,0,0,1,107,87.92"/><path class="cls-1" d="M82.29,74.52A14.08,14.08,0,0,1,86,70.61c1.5-1.07,3.93-2.8,5.8-1.9a3,3,0,0,1,1.67,2.79A3.49,3.49,0,0,1,92,73.63a8.84,8.84,0,0,1-3.35,1.9"/><path class="cls-1" d="M69.35,62.47a4,4,0,0,1,.45-2.23c0.87-1.54,2.68-1.91,4.91-2.34,3.26-.63,5.09-1,6.25.22a3.79,3.79,0,0,1,.33,4.57A3.9,3.9,0,0,1,76.6,64"/><path class="cls-1" d="M46.92,88.91a3.8,3.8,0,0,1,1.45-3.35"/><path class="cls-1" d="M57.3,84.34a4.37,4.37,0,0,1,2.9,2.23,4.27,4.27,0,0,1,.22,3.12"/><path class="cls-1" d="M55,77.64a6.45,6.45,0,0,1,6.81-1.79,5.78,5.78,0,0,1,2.79,2.45"/><path class="cls-1" d="M61,87.35a2.71,2.71,0,0,1,1.9-2.23"/><path class="cls-1" d="M68.9,84.11a3.83,3.83,0,0,1,4.24,2.57"/><path class="cls-1" d="M75.71,85.9a4.34,4.34,0,0,1,3.24-3.35"/><path class="cls-1" d="M89.32,82a3.11,3.11,0,0,1,2.34.78,3,3,0,0,1,.89,1.67"/><path class="cls-1" d="M94.86,83.11a6.4,6.4,0,0,1,.6-4.76,5.82,5.82,0,0,1,4.61-3A5.52,5.52,0,0,1,105,78.2"/><path class="cls-1" d="M96.81,28.95c3.43,0.37,6.13,4.11,5.47,6.43-0.88,3.09-8,4.74-10.45,1.77a5.34,5.34,0,0,1,.32-6.43A5.63,5.63,0,0,1,96.81,28.95Z"/><path class="cls-1" d="M72,39.08A5.57,5.57,0,0,0,70,37.15c-1.93-1-5.15-1.1-6.76,1.13a5,5,0,0,0,.32,6A5.24,5.24,0,0,0,68.66,46"/><path class="cls-1" d="M125.63,47.54a3.5,3.5,0,0,0-3.12,1.56c-1.18,2.22,2,5.51,3.35,6.7,1,0.84,2.44,2.07,4.24,1.79,0.08,0,2-.34,2.45-1.67s-0.57-2.49-2.23-4.57C128.37,48.9,127.33,47.59,125.63,47.54Z"/><path class="cls-1" d="M112.35,46.43a14.08,14.08,0,0,0-3.68-3.91c-1.5-1.07-3.93-2.8-5.8-1.9a3,3,0,0,0-1.67,2.79,3.49,3.49,0,0,0,1.45,2.12,8.84,8.84,0,0,0,3.35,1.9"/><path class="cls-1" d="M125.3,34.37a4,4,0,0,0-.45-2.23c-0.87-1.54-2.68-1.91-4.91-2.34-3.26-.63-5.09-1-6.25.22a3.79,3.79,0,0,0-.33,4.57A3.9,3.9,0,0,0,118,35.94"/><path class="cls-1" d="M120.45,85.19a4.43,4.43,0,0,1,2.08-2.38,4.33,4.33,0,0,1,2.38-.45"/><path class="cls-1" d="M132.5,86.83a3.09,3.09,0,0,1,.74,1.64,3.17,3.17,0,0,1-.6,2.23"/><path class="cls-1" d="M137.86,85.94a3.72,3.72,0,0,0-.74,3.27A3.41,3.41,0,0,0,138.45,91"/><path class="cls-1" d="M145.74,83.85a4.83,4.83,0,0,1,3,3,4.54,4.54,0,0,1-.15,3"/><path class="cls-1" d="M119.17,132.08a26.42,26.42,0,0,0-1.67-10.58L114,103.83l-4.45,10.95a47,47,0,0,0-20.16-.69L82.17,104l-2.5,18.67a24.36,24.36,0,0,0-1.21,9.41,23.8,23.8,0,0,0,.67,4.15l-2,2.43,2.58,1.17L79,143.25l3.31,0.4A19.46,19.46,0,0,0,88,149.33a19.86,19.86,0,0,0,10.81,3.1A20.09,20.09,0,0,0,111,148.67a18.8,18.8,0,0,0,3.88-3.88l3.54-.2L117,141.31l2.71-1.06-1.43-2.46A26,26,0,0,0,119.17,132.08Z"/><path class="cls-2" d="M88.75,129.5a1.83,1.83,0,0,0,2.67-.08,2,2,0,0,0-1.33-2.5,1.51,1.51,0,0,0-1.42.42A1.68,1.68,0,0,0,88.75,129.5Z"/><path class="cls-2" d="M107.08,128.92a1.8,1.8,0,0,1,1.17-2.33,1.88,1.88,0,0,1,2.17,1.92,1.72,1.72,0,0,1-1.33,1.42A1.76,1.76,0,0,1,107.08,128.92Z"/><path class="cls-2" d="M101.83,133.13c0-.5-1.14-1.12-2.25-1.17s-2.43.53-2.42,1,0.74,0.31,1.42,1.08,0.58,1.47.92,1.5,0.44-.77,1.33-1.58C101.44,133.41,101.82,133.41,101.83,133.13Z"/><path class="cls-1" d="M93.5,118.17l-0.25-4.25"/><path class="cls-1" d="M99,119.75a34.55,34.55,0,0,0,0-3.5c0-1-.14-1.9-0.25-2.75"/><path class="cls-1" d="M103.58,119.33q0.15-5.41.08-5.42s-0.08.72-.17,2.17"/><path class="cls-1" d="M97.07,140.88c-0.15,2,.87,3.59,1.88,3.75s2.86-1.27,3-3.75"/><path class="cls-1" d="M100.7,83.22a2.54,2.54,0,0,0,3,2.57"/><path class="cls-1" d="M81.4,80.54a2.69,2.69,0,0,0,1.12,1.34,2.78,2.78,0,0,0,2.23.22"/><path class="cls-1" d="M112.64,60.57a3,3,0,0,1-4,3.91"/><path class="cls-1" d="M108.51,48.63a2.73,2.73,0,0,0-.45,4.8"/><path class="cls-1" d="M119.56,39.59A3.12,3.12,0,0,0,123,41.82"/><path class="cls-1" d="M93.11,33.68a3.81,3.81,0,0,0,2,2.57,3.86,3.86,0,0,0,4.57-1.56"/><path class="cls-1" d="M71.58,45.84a4.78,4.78,0,0,0,3.91.89,4.83,4.83,0,0,0,3.24-2.79"/><path class="cls-1" d="M68.57,66.71a3.79,3.79,0,0,0,1.56,3,3.73,3.73,0,0,0,4.69-.89"/><path class="cls-1" d="M48.48,81.88a5.23,5.23,0,0,0,2.45,1.67,5.43,5.43,0,0,0,4.13-.45"/><path class="cls-1" d="M59,92.82a2.5,2.5,0,0,0-.33,3.91"/><path class="cls-1" d="M150.8,92.82a2.7,2.7,0,0,1-.11,3.68"/><path class="cls-1" d="M76.6,92.93a4.59,4.59,0,0,1,.56,1.45A4.64,4.64,0,0,1,77,96.61"/><path class="cls-1" d="M92.22,49.64a2.74,2.74,0,0,0-.45,2.9A2.79,2.79,0,0,0,93.56,54"/><path class="cls-1" d="M62.43,46.62c-2.28-2.2-.95-4.57-3-6.25-2.26-1.87-5.19,0-6.25-1.49S53.92,33,56.78,32s5.62,2.07,6.55,1.19-0.54-5-3.57-8c-4.76-4.8-10.31-3.92-11-7.14-0.39-1.79.89-4,2.38-4.46,1.26-.35,2.59.65,3.57,1.49,5.89,5.07,6.32,10.71,12.2,16.37,2.13,2,4.68,3.82,5.36,3.27,1.31-1.06-6.09-9.56-3.57-13.09,1.35-1.89,5.41-2.2,6.84-.6,0.93,1,.7,2.81.6,3.57-0.23,1.73-.94,2.11-1.49,3.87-0.27.84-1.17,3.72,0,5.36,1.42,2,4.46.16,6.84,2.08,2.74,2.21,1.92,7.22,1.79,8s-1.13,6.31-6,8.33a7.94,7.94,0,0,1-6,.3c-1.81-.78-1.69-1.89-4.17-3.57S63.88,48,62.43,46.62Z"/><path class="cls-1" d="M113.53,26.38c-2,.88-4.29,3-4.46,5.58s3.79,3.2,4.69,7.14c0.49,2.13-.38,2.83.45,4,1.56,2.23,5.45.78,6.47,2.68,0.75,1.41-1,2.59-1.12,5.13-0.17,3.51,2.84,7.58,6.92,8.93,3.75,1.23,8.67.24,10-2.45,1-1.89-.62-3,0.22-5.58,1.1-3.31,5.33-5.93,8.26-5.13,2.22,0.61,2.46,2.85,4.46,2.9a4.18,4.18,0,0,0,3.79-3.12c0.61-2.53-1.82-5.11-4-5.58-1.86-.4-3.66.7-6.92,2.68-2.14,1.3-3.59,2.54-5.8,2.45a2.14,2.14,0,0,1-1.79-.67c-0.52-1,1.32-2.14,1.12-3.57-0.31-2.22-5.25-3-5.13-3.57s2.66,0.28,5.8-.22c1.51-.24,5.7-0.92,6.25-3.35,0.4-1.8-1.27-4.2-3.35-4.69a5.26,5.26,0,0,0-4,1.12c-1.52,1-1.49,1.93-3.35,3.35-1.15.87-2.18,1.67-2.9,1.34-1.28-.58.21-3.92-1.56-6.25-0.27-.35-0.87-1-4.24-2C118.41,26.05,115.94,25.33,113.53,26.38Z"/><path class="cls-1" d="M38.55,96.91a8.48,8.48,0,0,1,1.12-4.46c1.29-2.16,2.74-2,3.79-3.57,2.28-3.34-2.13-7.36-.22-10.71,0.5-.88,1.21-1.31,9.15-3.79,6.4-2,8-2.36,8.26-3.57,0.13-.57,0-1.27-4.91-6-4.37-4.26-5.28-4.73-6-4.46-1.42.5-.59,3-2.68,5.13A6.22,6.22,0,0,1,40.78,67c-2.61-.93-4.46-3.94-3.79-6.47,0.79-3,4.71-3.76,6-4a12.59,12.59,0,0,1,7.59,1.12c7.22,3.18,9.1,9.67,11.6,8.93,1.26-.38.89-2,3.35-5.8a17.38,17.38,0,0,1,4-4.69c3.4-2.49,9.91-3.7,12.94-.22,2.32,2.65,2.22,7.6.22,9.15-1.11.87-2.45,0.39-3.35,1.56s-0.87,3,0,3.79c1.62,1.44,7.15-.51,9.6-4.46,0.39-.63,2.46-3.89,1.34-6.92-0.63-1.69-1.64-1.66-2.9-3.57-1.49-2.27-2.66-6.27-1.12-8.26,1.82-2.34,5.67.5,9.6-2.23,2.61-1.81,2-3.7,4.91-5.36,1.93-1.11,5.11-1.94,7.59-.67,1.8,0.92,1.46,2.05,4.69,6,2.43,3,2.91,2.7,3.57,4.24,0.8,1.86.31,2.79,0.22,8-0.07,3.9-.09,5.87.67,6.47,1.82,1.45,4.7-1.95,9.6-1.34,2.8,0.35,6.35,2,7.14,4.69,1.07,3.59-3.34,7.38-2.45,8.26,0.58,0.57,2.6-.79,5.36-2.23,5.69-3,10.09-5.29,13.61-4,3.74,1.35,6.07,6.58,4.91,8.26-0.61.89-2.3,0.91-3.35,0.67-2.31-.53-2.46-2.53-5.13-3.79-1.92-.9-4.06-0.91-4.24-0.45-0.24.62,4,1.6,5.58,5.13,1,2.3-.08,3.3,1.12,5.36s3.16,2.18,5.13,3.79c1.57,1.28,3.32,3.7,3.79,8.7"/><path class="cls-1" d="M142.77,64.1c-0.74-.87,3.49-8.45,8.7-8,2.69,0.21,5.6,2.55,5.36,4.46-0.19,1.5-2.31,2.56-3.79,2.9-2.32.53-3.12-.7-6-0.45C144.25,63.23,143.11,64.5,142.77,64.1Z"/><path class="cls-1" d="M55.73,55.17C56.88,54,54.73,48,51.49,48c-1.52,0-3.27,1.31-3.35,2.68C48,53.45,54.49,56.41,55.73,55.17Z"/></svg>