<svg id="Слой_1" data-name="Слой 1" xmlns="http://www.w3.org/2000/svg" viewBox="0 0 200 160"><defs><style>.cls-1{fill:none;stroke:#070707;stroke-miterlimit:10;}</style></defs><title>type</title><path class="cls-1" d="M105.5,52.76c0.77-2.32,5.4,0,7.72-.77,1.54-1.54-1.54-6.18,0-6.18l3.78-2.1,1.69,2L121,43l0.2-1.68a10,10,0,0,0,4.65-7.5,16,16,0,0,0,1.56.79c1.68,0.75,1.71.41,3.77,1.16,2.39,0.88,2.51,1.41,4.3,1.74a8.88,8.88,0,0,1,1.81.41,7.06,7.06,0,0,1,2.26,1.4,4,4,0,0,0,3.92-1.95A4.44,4.44,0,0,1,145,34.65c0.68-.52,1-0.36,2.29-1.09s1.19-1,2.14-1.43a19.1,19.1,0,0,1,2.43-.47c1.51-.39,1.53-0.74,2.59-0.88a6.82,6.82,0,0,1,2.7.29,15.16,15.16,0,0,1,3,1.11A9.77,9.77,0,0,1,163.37,34c0.71,0.76.48,1,1.48,2.25,0.85,1.1,1.12,1.07,1.85,2a18.46,18.46,0,0,1,1.54,2.84c1.28,2.46,1.54,2.63,1.59,3.42,0,0.36,0,.39-0.59,2.77s-0.6,2.71-.94,3.08c-0.66.73-1.12,0.42-2.48,1.42-0.91.67-.81,0.89-1.59,1.45s-1.29.61-3.3,1.27c-2.77.91-2.44,1.07-3.46,1.2-1.77.23-2.36-.31-3.39,0.29-0.81.47-.65,0.93-1.62,1.53s-1.64.3-2.37,0.94a3.41,3.41,0,0,0-.94,2.44c0,1,.35,1.09.73,2.85a13.26,13.26,0,0,0,.37,2.2c0.5,1.15,1.16,1,2.16,2.42,0.75,1,.46,1.23,1.25,2.35s1.3,1.1,2,2.17c0.15,0.24.29,0.5,1,3.2,0.64,2.37.66,2.63,0.59,3-0.12.64-.31,0.63-1.19,2.48a11.86,11.86,0,0,1-.95,2c-0.69.87-1.17,0.74-2.66,1.79s-1.22,1.32-2.18,1.79-1.43.24-3.13,0.58c-2,.4-1.83.82-3.09,1a7.46,7.46,0,0,1-5-1.48c-1.1-.87-0.95-1.36-2.38-2.48s-1.61-.72-2.43-1.49c-1.28-1.2-.77-2.12-2.15-4.67-0.93-1.73-1.42-1.77-1.83-3a7,7,0,0,1-.07-3.82,3.13,3.13,0,0,0-.21-2.31,3,3,0,0,0-1.17-1.2,9.45,9.45,0,0,1-3.88-.8c-1.2-.54-1.21-0.86-2.59-1.56-1.8-.9-2.45-0.69-4.47-1.53-1.59-.66-1.32-0.85-2.95-1.6-2.73-1.25-3.4-.69-6.2-1.91a14.64,14.64,0,0,1-2-1.06C106.21,57.26,104.46,54.83,105.5,52.76Z"/><path class="cls-1" d="M42.43,69.3c-0.94-2.39-1.41-3.59-1.16-4.63,0.32-1.33,1.14-1.48,1.67-3.51a10.59,10.59,0,0,1,.42-1.84c0.48-1.1,1.12-1.33,2.19-2.46,1.46-1.55,1-1.9,2.27-3.1s1.46-.74,2.89-2A5.67,5.67,0,0,0,53,48.58a4.36,4.36,0,0,0-.4-2.59c-0.45-1-.85-0.93-2.55-2.68-1.41-1.45-1.41-1.75-2.19-2.14-1-.49-1.3-0.16-2.32-0.7s-1-1.07-2-1.72c-1.33-.81-1.8-0.22-2.89-1s-0.8-1.48-2.06-2.43c-1.09-.82-1.59-0.48-2-1.13-0.6-.88.2-1.7,0.19-3.9,0-1.93-.62-1.84-0.37-3,0.33-1.47,1.4-1.61,2.49-3.93a9.56,9.56,0,0,1,.65-1.52c0.81-1.13,1.91-1.21,4-2,3.38-1.18,3.3-1.94,4.77-1.84s1.7,0.88,3.6,1c1.63,0.09,1.77-.47,2.72-0.16C56,19.42,56,20.69,57.82,21.75a11.91,11.91,0,0,0,2,.76c1.12,0.49,2.54,1.57,3.73,4.22a3.91,3.91,0,0,0,1.85,2.44,4.23,4.23,0,0,0,1.7.33,10.71,10.71,0,0,0,3.49-.33c1.43-.37,1.26-0.58,2.51-0.92,1.77-.47,2.12,0,4.36-0.41,1.71-.28,1.61-0.54,3.25-0.77,1.88-.26,2,0.09,3.7-0.13,2.14-.28,2.08-0.84,4.26-1.1a23.7,23.7,0,0,0,3.41-.26c1.26-.29,1.23-0.54,2.53-0.83s1.35-.09,3.4-0.35c1.36-.17,1.33-0.26,2.59-0.4,0.53-.06.91-0.09,1.23-0.1,1.61,6.12-.75,11.86-5,16.64-1.34.77,3.64,3.25,3.07,5.36-1.63,1.82-6.8,2.11-6.32,4.5,0.13,2.32,2.85,3.55,4.6,5.48A7.23,7.23,0,0,0,96.6,56c-1.79.36-2,.77-3.65,1-1.82.26-2-.18-3.8,0.06s-1.73.69-3.81,1.12-2.18,0-4.62.45a19.11,19.11,0,0,1-3.26.68,28.82,28.82,0,0,0-3-.06,10.43,10.43,0,0,0-2.53.63A4.11,4.11,0,0,0,70,61a3.57,3.57,0,0,0-.68,1.89c-0.22,1.65.4,2,.19,3.14-0.16.84-.51,0.8-1.87,2.77-1.25,1.82-1.11,2.09-1.86,2.86s-1.35.85-3.26,1.83c-3.5,1.81-3.4,2.71-5.12,2.89C56,76.58,56,76,53.47,76c-1.68,0-1.92.24-2.92,0s-1.2-.65-3.19-1.72-2.29-.86-3.08-1.56S43.14,71.11,42.43,69.3Z"/><path class="cls-1" d="M66,59.3a8.14,8.14,0,0,1-.54,4c-0.46,1.11-.8,1.15-1.86,2.86-1.69,2.71-1.36,3.45-2.5,4.22-1,.67-1.31.17-3.41,1-1.64.67-1.59,1-2.63,1.29a5.64,5.64,0,0,1-4.33-.72c-1.7-1.26-1.41-3.16-2.88-3.57-1-.26-1.56.4-2.22,0S44.91,66.54,45,65.5"/><path class="cls-1" d="M152.82,79.69a18.72,18.72,0,0,0-2.35,2.13c-1.15,1.23-1.24,1.66-2,2.13a5.17,5.17,0,0,1-3.66.41c-1.25-.32-1.17-0.83-2.73-1.36s-1.87-.12-2.93-0.66c-0.4-.2-0.73-0.45-2.2-2.25a19,19,0,0,1-2.43-3.27c-0.34-.83-0.33-1.33-0.43-4,0-1-.1-2.56-0.19-4.63"/><path class="cls-1" d="M167,45c-0.19,2.89-1,3.86-1.74,4.21-0.94.46-1.57-.21-3.1,0.43a5.89,5.89,0,0,1-2.31.89c-0.66,0-.69-0.18-1.18-0.11-0.93.14-1.11,0.93-2.34,1.95a9.33,9.33,0,0,1-2.19,1.32,12,12,0,0,1-2.41.83"/><path class="cls-1" d="M52.4,41.45a11.08,11.08,0,0,1-2.55-2c-1.18-1.25-1.41-2.11-2.52-2.53-0.82-.31-1,0.06-2.23-0.1-0.32,0-3-.4-4-2.24a6.72,6.72,0,0,1-.46-2.2,13.25,13.25,0,0,0-1.28-3.67"/><path class="cls-1" d="M131.46,47.84a2.09,2.09,0,0,1,2.22.58c1,1.12.39,3.15-.3,3.35-0.31.09-.44-0.25-1.33-0.62-1.06-.44-1.48-0.21-1.75-0.56A2.14,2.14,0,0,1,131.46,47.84Z"/><path class="cls-1" d="M94.73,39.16c-0.38.23-.77-0.32-1.66-0.2s-1.25.86-1.61,0.71-0.65-1.89.24-2.93A2.25,2.25,0,0,1,94.21,36C95.43,36.58,95.36,38.78,94.73,39.16Z"/><path class="cls-1" d="M69.32,40c-1.13.93-.89,2.92-0.37,3.14,0.29,0.12.5-.38,1.3-0.57,1-.23,1.52.36,2,0.07a2,2,0,0,0-.29-2.73A2.12,2.12,0,0,0,69.32,40Z"/><path class="cls-1" d="M94.52,52.37a10.69,10.69,0,0,0-1.57,0c-2.19.2-2.25,0.63-4.81,1s-2.64-.09-4.65.28-2.5.89-4.72,1.53a22.58,22.58,0,0,1-5.33.86"/><path class="cls-1" d="M128,63.35a12.09,12.09,0,0,1-2.53-.61,21.38,21.38,0,0,1-2.84-1.42c-1.76-.86-2.26-0.5-4.67-1.21s-2-1.05-4.53-1.9c-2.89-1-3.24-.46-5.53-1.4a14.32,14.32,0,0,1-2.72-1.57"/><path class="cls-1" d="M102.29,23.94a18,18,0,0,0,2.57,5.66,5,5,0,0,1,.9,1.42c0.66,2.18-1.83,3.55-3,6.82-1.26,3.64.11,6.88-.64,7.08-0.47.12-.87-1.16-2.44-2.44a9.09,9.09,0,0,0-3.22-1.67"/><path class="cls-1" d="M102.54,45.17a3.86,3.86,0,0,1,.26,3.35c-1.06,1.86-4.41,1-5.4,2.7-0.43.74-.47,2.07,1.16,4.63"/><path class="cls-1" d="M130.33,23.77a3.55,3.55,0,0,1-2.22,2.32l-2.89-2c0.28-.25.68-0.58,1.16-1,1.81-1.44,2.71-2.16,3.28-1.93S130.56,22.79,130.33,23.77Z"/><path class="cls-1" d="M130.43,22.22c0.3,0.57,1.07,2.21.39,3.47A5,5,0,0,1,129.46,27a15.44,15.44,0,0,1-1.93,1.35l-2.22-1.25-0.39-3"/><path class="cls-1" d="M127.92,25.89l-0.19,2"/><path class="cls-1" d="M113,29.41c0.47-.37-0.31-2.63-0.87-2.61-0.39,0-.89,1.15-0.48,1.93a1.33,1.33,0,0,0,1,.73A0.52,0.52,0,0,0,113,29.41Z"/><path class="cls-1" d="M107,21.49a2.43,2.43,0,0,0,.39-2.89c-0.78-1.14-2.71-1-2.8-.68s1.12,0.45,1.83,1.64C107.07,20.56,106.85,21.48,107,21.49Z"/><path class="cls-1" d="M119.24,41.18l-1.16,1.61a3.28,3.28,0,0,1-1.61-2.19c-0.25-1.69,1.2-3.38,1.93-3.22S119.34,39.12,119.24,41.18Z"/><path class="cls-1" d="M133.29,12.91c-0.07-.44-1.47-0.76-2.61-0.39-1.31.43-2.46,1.84-2.12,2.61a1.7,1.7,0,0,0,2.12.48,1.86,1.86,0,0,0,1.06-1.54C133.19,13.42,133.32,13.07,133.29,12.91Z"/><path class="cls-1" d="M101.15,102.66a7.12,7.12,0,0,0,1.29-2.16,2.24,2.24,0,0,1,1.14-.49,2.32,2.32,0,0,1,1.66.47,5.21,5.21,0,0,0,2.67,1c1,0.05,1.15-.27,2.6-0.46,2.13-.27,2.63.33,3.81-0.24,0.75-.36.6-0.63,1.68-1.28s1.45-.46,2.35-1a5.54,5.54,0,0,0,2.36-3.07c0.23-.91-0.1-0.92.15-2.4a9.14,9.14,0,0,0,.43-2.32,14.32,14.32,0,0,0-.66-2c-0.34-1.31-.11-1.61-0.53-2.32A8.81,8.81,0,0,0,119,85.19a9.31,9.31,0,0,0-1.4-1.49c-0.24-.15-0.43-0.2-2.24-0.39a9.73,9.73,0,0,0-2.49-.15c-0.92.18-.91,0.51-2,0.8s-1,0-2,.24c-1.24.32-1.33,0.81-2.26,0.85a9.85,9.85,0,0,1-1.63-.33,10.8,10.8,0,0,1-2.17-.25,2.53,2.53,0,0,1-1.44-1.3c-0.25-.68.17-0.93,0-1.89s-0.52-.84-0.63-1.53c-0.14-.88.39-1.14,0.7-2.43a18.46,18.46,0,0,0,.09-2.72,7.89,7.89,0,0,0,0-2.62c-0.18-.69-0.36-0.67-0.58-1.49-0.33-1.21,0-1.45-.33-2.1-0.17-.33-0.32-0.39-1.88-1.47a8.56,8.56,0,0,0-1.76-1.15c-0.56-.17-0.75,0-2.8.19a13.71,13.71,0,0,0-2.38.31c-0.85.25-.91,0.45-1.89,0.74-1.15.35-1.24,0.13-2,.42a7.26,7.26,0,0,0-2.11,1.72,11.26,11.26,0,0,0-1.57,1.78,5.06,5.06,0,0,0-.92,1.8c-0.18.77,0.05,0.88-.08,2a14.19,14.19,0,0,0-.32,1.81,15.36,15.36,0,0,0,.42,1.87c0.17,1.08,0,1.27.14,1.88A3.3,3.3,0,0,0,85,82.12a3,3,0,0,1,.3,3.24,5.24,5.24,0,0,0-1.57,1.2,6.6,6.6,0,0,0-.77,1.14c-0.71,1.15-1.11,1.1-2.36,2.52a15.12,15.12,0,0,0-1.22,1.63c-0.32.41-.36,0.36-0.6,0.67a16.62,16.62,0,0,1-1,1.68c-0.09.09-.21,0.2-0.43,0.43s-0.4.46-.92,1c-1.09,1.07-1.26,1-1.85,1.74s-0.51.89-1.12,1.63a17.61,17.61,0,0,1-1.9,1.69c-1.17,1.14-.88,1.44-2,2.57-0.92.91-1.13,0.74-2.13,1.74s-0.68,1-1.57,1.92c-1.16,1.23-1.56,1.13-2.39,2.21-0.59.76-.39,0.82-1.07,1.68a8,8,0,0,1-1.91,1.77,3.14,3.14,0,0,1-1.15.57,2.9,2.9,0,0,1-2.19-.61,5.63,5.63,0,0,0-4.1-.81,8.85,8.85,0,0,1-1.51.44c-1.55.19-2.11-.57-3.13-0.21-0.7.25-.54,0.64-1.54,1.32-1.17.8-1.65,0.44-2.57,1s-0.53,1-2,3.23c-0.92,1.4-1.54,1.94-1.5,3a7.1,7.1,0,0,0,.3,1.19c0.4,1.86-.17,2.42.3,3.44,0.35,0.77.68,0.44,1.55,1.58,1,1.3.89,2.14,1.64,2.39,0.55,0.19.7-.24,1.71-0.25,1.17,0,1.31.56,2.31,0.51s1-.61,2.15-0.73c0.93-.1,1.07.25,2,0.1s0.89-.48,1.69-0.63c0.64-.12.77,0.06,2.26,0.28,1.79,0.27,2,.07,2.71.43a3.24,3.24,0,0,1,1.4,1.35,4.21,4.21,0,0,1,.07,3c-0.3,1.36-.64,1.3-0.82,2.45s0.22,1.27.06,2.85a6.44,6.44,0,0,0-.18,2.44,7.87,7.87,0,0,0,.58,1.28c0.6,1.44.18,1.89,0.59,2.82,0.32,0.73,1.14,1.22,2.77,2.21a6.26,6.26,0,0,0,2.64,1.19c0.78,0.06.78-.19,2.52-0.46s1.89-.07,2.66-0.42a9.67,9.67,0,0,0,1.72-1.32c1.49-1.12,1.75-.8,2.49-1.49,0.94-.89.47-1.38,1.72-4,0.68-1.44,1-1.65,1.1-2.55a18.23,18.23,0,0,0-.19-2.52c-0.08-1.78.15-1.91-.14-2.48-0.39-.78-0.91-0.7-1.53-1.77a2.66,2.66,0,0,1-.45-1.42,3.06,3.06,0,0,1,.64-1.55,7.75,7.75,0,0,1,1.21-1.51,21.41,21.41,0,0,1,1.81-1.32m0,0a14.19,14.19,0,0,0,1.62-1.87c1.23-1.38,1.48-1.14,2.53-2.35S85,119.86,86,118.91s1.26-.77,2.22-1.75,0.81-1.23,1.7-2.24a5.37,5.37,0,0,1,.83-0.79l0-.59A10.57,10.57,0,0,0,92,112.46a9.74,9.74,0,0,0,.86-1,15.84,15.84,0,0,1,2.12-2.8c1-.93,1-0.69,1.9-1.62,1.12-1.18,1.15-1.69,2.25-2.69,0.85-.77,1.08-0.69,1.77-1.38l0.3-.32"/><path class="cls-1" d="M73.31,130.62a6,6,0,0,1,1.46,2.58,16.07,16.07,0,0,1,.19,2.52c0.23,2.36.75,2.65,0.42,3.62s-0.7.69-1.55,2.15a19,19,0,0,1-1,2A4.19,4.19,0,0,1,70,145c-1.57,0-2.25-1.23-3.31-.81-0.68.28-.74,0.94-1.31,1s-1.25-.74-1.65-1.41"/><path class="cls-1" d="M116.77,86.93a13.9,13.9,0,0,0,.85,2.2,7.38,7.38,0,0,1,.93,2,3.84,3.84,0,0,1-.69,2.64c-0.56.78-.89,0.59-1.67,1.53s-0.58,1.27-1.24,1.86a5.63,5.63,0,0,1-2.15.92,14.1,14.1,0,0,1-2.92.81c-0.66,0-1-.12-2.89-0.77L103.73,97"/><path class="cls-1" d="M96.52,67.85c1.95,0.9,2.4,1.74,2.45,2.33,0.07,0.78-.56,1-0.53,2.27a4.37,4.37,0,0,1,0,1.84c-0.16.47-.31,0.43-0.39,0.79-0.15.68,0.34,1,.72,2.14a6.93,6.93,0,0,1,.33,1.87A8.91,8.91,0,0,1,99,81"/><path class="cls-1" d="M57.23,126.22a8.23,8.23,0,0,1-2.41,0c-1.26-.21-1.78-0.61-2.63-0.36a6.9,6.9,0,0,0-1.36.95c-0.2.12-2,1.12-3.39,0.5a5,5,0,0,1-1.26-1.09,9.85,9.85,0,0,0-2.41-1.59"/><path class="cls-1" d="M89,93.24a1.55,1.55,0,0,1,1-1.38c1-.4,2.29.57,2.24,1.1a2.76,2.76,0,0,1-.78.75c-0.59.62-.54,1-0.86,1.07A1.59,1.59,0,0,1,89,93.24Z"/><path class="cls-1" d="M81.2,105.8c-0.12.31-.6,0.16-1.07,0.63s-0.35,1.07-.63,1.14-1.23-.82-1.18-1.84A1.45,1.45,0,1,1,81.2,105.8Z"/><path class="cls-1" d="M66.57,117.76c-0.25,1.06.79,2.12,1.2,2a5.74,5.74,0,0,0,.51-0.93c0.49-.59,1.06-0.47,1.19-0.84a1.48,1.48,0,0,0-1.4-1.48A1.58,1.58,0,0,0,66.57,117.76Z"/><path class="cls-1" d="M87,113.7a7.94,7.94,0,0,0-.91.73c-1.21,1.11-1,1.39-2.41,2.73s-1.6,1.14-2.62,2.26a29.75,29.75,0,0,0-2.1,3,16.77,16.77,0,0,1-2.76,2.91"/><path class="cls-1" d="M98.83,99.77a9,9,0,0,1-1.1,1.59A15.88,15.88,0,0,1,96,103c-1.07,1-1,1.43-2.08,2.92s-1.27,1.11-2.53,2.63c-1.45,1.75-1.19,2.13-2.45,3.46a10.64,10.64,0,0,1-1.81,1.46"/><path class="cls-1" d="M101,137.24a11.28,11.28,0,0,1,1.9,1.63c0.62,0.72.45,0.75,1.07,1.42,0.79,0.85,1.15.89,1.81,1.72,0.51,0.64.45,0.8,0.9,1.32a5,5,0,0,0,1.69,1.24,1.6,1.6,0,0,1,.3.83,1.65,1.65,0,0,1-.41,1.16,3.71,3.71,0,0,0-.81,1.85,10.25,10.25,0,0,0,.21,1.87c0.1,1.53-.35,1.86,0,2.72,0.23,0.55.42,0.45,0.84,1.25s0.26,1.05.6,1.72a4,4,0,0,0,2.08,1.81c0.64,0.2.66,0,1.7,0.21a6.51,6.51,0,0,0,1.63.41A10.2,10.2,0,0,0,116,158a6,6,0,0,0,1.67-.28,6.28,6.28,0,0,0,.89-0.74,6.63,6.63,0,0,0,1.12-.93,4,4,0,0,0,.38-1.58,6.93,6.93,0,0,0,.22-1.77c-0.09-.66-0.33-0.67-0.48-1.48s0-.74-0.08-1.41c-0.17-.89-0.52-1-0.51-1.64a7,7,0,0,1,.31-1.14,7.69,7.69,0,0,1,.28-1.53,1.8,1.8,0,0,1,1-1,12.25,12.25,0,0,1,1.35.07c0.6-.08.62-0.33,1.12-0.38s0.79,0.33,1.7.61a13.14,13.14,0,0,0,1.93.18,5.62,5.62,0,0,0,1.86.12c0.5-.1.5-0.23,1.08-0.35a11.74,11.74,0,0,0,1.51-.14,3.87,3.87,0,0,0,1.13-1.27,6.1,6.1,0,0,0,.9-1.2,5.21,5.21,0,0,0,0-2,9.76,9.76,0,0,0-.11-1.7c-0.14-.62-0.28-0.66-0.44-1.38s0-.89-0.21-1.41a5.17,5.17,0,0,0-1.13-1.58,8,8,0,0,0-1.2-1.2,3.6,3.6,0,0,0-1.24-.73c-0.54-.16-0.63,0-1.44-0.15a10.1,10.1,0,0,0-1.27-.31,10.93,10.93,0,0,0-1.34.21c-0.77.07-.9-0.08-1.34,0a2.35,2.35,0,0,0-1.35,1,2.11,2.11,0,0,1-2.32.07,3.73,3.73,0,0,0-.78-1.17,4.7,4.7,0,0,0-.78-0.6,13.47,13.47,0,0,1-1.68-1.79,10.77,10.77,0,0,0-1.11-.94c-0.28-.24-0.24-0.27-0.45-0.45a11.84,11.84,0,0,1-1.15-.75l-0.29-.33c-0.2-.21-0.31-0.3-0.65-0.7-0.72-.82-0.68-0.94-1.15-1.39s-0.61-.4-1.11-0.87a12.54,12.54,0,0,1-1.12-1.42c-0.76-.88-1-0.69-1.74-1.55-0.6-.69-0.48-0.84-1.14-1.59s-0.67-.53-1.29-1.2a21.57,21.57,0,0,0-1.46-1.8c-0.52-.45-0.56-0.31-1.14-0.83a5.67,5.67,0,0,1-1.17-1.44,2.24,2.24,0,0,1-.36-0.84,2.07,2.07,0,0,1,.53-1.53,4,4,0,0,0,.76-2.88,6.3,6.3,0,0,1-.25-1.09c-0.06-1.11.5-1.47,0.29-2.22a6.8,6.8,0,0,0-.87-1.15c-0.51-.86-0.24-1.19-0.63-1.87m-20.2,22.51a5.65,5.65,0,0,0,1.76.89,13,13,0,0,0,1.8,0c1.27,0,1.35.19,1.77,0,0.57-.25.53-0.62,1.33-1a1.89,1.89,0,0,1,1-.26,2.18,2.18,0,0,1,1.07.53,5.52,5.52,0,0,1,1,.93,15.24,15.24,0,0,1,.86,1.35,10.11,10.11,0,0,0,1.26,1.23c0.92,0.94.75,1.1,1.56,1.9s1,0.63,1.61,1.35,0.49,0.93,1.14,1.65S98,134.33,98.67,135a3.82,3.82,0,0,1,.52.63h0.42a7.53,7.53,0,0,0,.72.94,6.94,6.94,0,0,0,.66.66"/><path class="cls-1" d="M88.25,122.53a4.31,4.31,0,0,1-1.9.92,11.44,11.44,0,0,1-1.8,0c-1.69.06-1.92,0.42-2.59,0.14"/><path class="cls-1" d="M117.38,155.35a9.9,9.9,0,0,0-1.6.51,5.25,5.25,0,0,1-1.45.57,2.73,2.73,0,0,1-1.85-.61c-0.53-.43-0.38-0.66-1-1.25a13.68,13.68,0,0,1-1.27-1,4,4,0,0,1-.56-1.57,10,10,0,0,1-.45-2.11,5.88,5.88,0,0,1,.68-2c0.19-.47.52-1.25,0.93-2.27"/><path class="cls-1" d="M131.83,141.8c-0.73,1.35-1.34,1.63-1.76,1.64s-0.71-.45-1.59-0.47a3.11,3.11,0,0,1-1.31-.08c-0.32-.13-0.29-0.24-0.54-0.31-0.48-.14-0.74.2-1.55,0.42a4.94,4.94,0,0,1-1.34.15,6.34,6.34,0,0,1-1.34-.13"/><path class="cls-1" d="M114.13,135.33a1.1,1.1,0,0,1,.94.77,1.28,1.28,0,0,1-.88,1.54,2,2,0,0,1-.5-0.59,3.42,3.42,0,0,1-.72-0.66A1.13,1.13,0,0,1,114.13,135.33Z"/><path class="cls-1" d="M105.54,129.23c-0.21-.1-0.08-0.43-0.4-0.79s-0.74-.3-0.78-0.5a1.24,1.24,0,0,1,1.36-.76A1,1,0,1,1,105.54,129.23Z"/><path class="cls-1" d="M97.7,118.31a1.24,1.24,0,0,0-1.49.76,4.09,4.09,0,0,0,.64.41c0.4,0.37.29,0.78,0.55,0.88a1.05,1.05,0,0,0,1.11-.93A1.12,1.12,0,0,0,97.7,118.31Z"/><path class="cls-1" d="M99.67,133a5.65,5.65,0,0,0-.48-0.68c-0.73-.91-0.94-0.81-1.83-1.84s-0.74-1.19-1.49-2a21.18,21.18,0,0,0-2.06-1.63,11.94,11.94,0,0,1-1.94-2.09"/><path class="cls-1" d="M109,142a6.39,6.39,0,0,1-1.08-.85,11.31,11.31,0,0,1-1.05-1.31,12.94,12.94,0,0,0-2-1.61c-1-.84-0.74-0.95-1.76-1.91-1.18-1.11-1.46-.94-2.35-1.89a7.57,7.57,0,0,1-1-1.35"/></svg>