<svg id="Слой_1" data-name="Слой 1" xmlns="http://www.w3.org/2000/svg" viewBox="0 0 200 160"><defs><style>.cls-1{fill:none;stroke:#070707;stroke-miterlimit:10;}.cls-2{fill:#070707;}</style></defs><title>type</title><path class="cls-1" d="M171.43,100.95a6.38,6.38,0,0,0-4.68-4H32.65a6.37,6.37,0,0,0-4.46,3.42C24.71,117.71,17.74,137.12,4,155q-2,2.6-4,5H200q-2.24-2.84-4.42-5.9A156.47,156.47,0,0,1,171.43,100.95Z"/><path class="cls-1" d="M48.55,96.62a7.63,7.63,0,0,1,4.14-7c3.56-1.75,7,.3,7.39.54a8.49,8.49,0,0,1,3.78,6.31"/><path class="cls-1" d="M63.14,93.38a8.29,8.29,0,0,1,7.21-4.86c4,0,7.69,3.41,8.11,8.11"/><path class="cls-1" d="M84.77,96.8A6.22,6.22,0,0,1,96.3,97"/><path class="cls-1" d="M99,96.8a8.8,8.8,0,0,1,3.24-4.68,8.67,8.67,0,0,1,4.5-1.62c0.31,0,5.24-.28,7.39,3.24a6.44,6.44,0,0,1,.9,3.06"/><path class="cls-1" d="M114,93.2A8.49,8.49,0,0,1,121,91a8.18,8.18,0,0,1,6.31,5.77"/><path class="cls-1" d="M131.07,96.8a8.93,8.93,0,0,1,12.61-5.23,9.27,9.27,0,0,1,4.32,5"/><path class="cls-1" d="M123,91a7.56,7.56,0,0,1,2.88-2.88,7.91,7.91,0,0,1,6.49-.36,8.08,8.08,0,0,1,4,3.42"/><path class="cls-1" d="M76.66,91.94a9.23,9.23,0,0,1,5.77-2A9.42,9.42,0,0,1,89.09,93"/><path class="cls-1" d="M86.93,90.86a9.62,9.62,0,0,1,13.69,2.34"/><path class="cls-1" d="M38.64,96.8a7.76,7.76,0,0,1,6.31-5.95,7.09,7.09,0,0,1,4.68,1.26"/><path class="cls-1" d="M146.57,93A7.64,7.64,0,0,1,161,96.8"/><path class="cls-1" d="M76.66,74.64c-0.29.41-2.45,3.51-.9,6.49C77,83.57,80,84.38,82.24,84a6.83,6.83,0,0,0,5.59-7.21,6.1,6.1,0,0,0-4-5C80.87,70.76,78,72.76,76.66,74.64Z"/><path class="cls-1" d="M115.76,65.45c-1.94,2.52-.93,7,2,9a7.19,7.19,0,0,0,9.91-2.34,5.76,5.76,0,0,0,0-5.41c-1.2-2.14-3.52-2.64-4.68-2.88C122.27,63.68,117.85,62.74,115.76,65.45Z"/><path class="cls-1" d="M103.85,54.13c-1.94,2.52-.93,7,2,9a7.19,7.19,0,0,0,9.91-2.34,5.76,5.76,0,0,0,0-5.41c-1.2-2.14-3.52-2.64-4.68-2.88C110.36,52.36,105.94,51.42,103.85,54.13Z"/><path class="cls-1" d="M64.77,68.87c3.55,2,9.13-1.09,9.37-4.68,0.19-2.77-2.81-5.76-6.13-5.95a6,6,0,0,0-5.59,2.88A6.08,6.08,0,0,0,64.77,68.87Z"/><path class="cls-1" d="M96.66,52.3c-3.84.41-6.87,4.61-6.13,7.21,1,3.46,9,5.31,11.71,2a6,6,0,0,0-.36-7.21A6.3,6.3,0,0,0,96.66,52.3Z"/><path class="cls-1" d="M43.14,84.55c2.14,0.19,6.43.58,7.75-2,1.06-2.05-.24-5.12-2.34-6.67a6.09,6.09,0,0,0-6.13-.72c-3.26,1.58-4.31,6.4-2.7,8.29C40.43,84.31,41.53,84.4,43.14,84.55Z"/><path class="cls-1" d="M136.84,78.78c0.12-3,3.86-5.64,7.39-5.41s7.12,3.42,6.67,6.67c-0.37,2.63-3.24,4.35-5.59,4.68C141.35,85.29,136.7,82.21,136.84,78.78Z"/><path class="cls-1" d="M124.41,63.65a6.24,6.24,0,0,1,2.34-2.16c2.16-1.12,5.77-1.23,7.57,1.26a5.61,5.61,0,0,1-.36,6.67,5.87,5.87,0,0,1-5.77,2"/><path class="cls-1" d="M97.74,83.65a6.24,6.24,0,0,0,3.06,4,6.14,6.14,0,0,0,6.67-9.91c-2.86-2.8-8.29-1.26-9.73,1.62A5.92,5.92,0,0,0,97.74,83.65Z"/><path class="cls-1" d="M96.84,81.67a7.93,7.93,0,0,0-5.59,1.26C87.63,85.46,88,90.12,88,90.32"/><path class="cls-1" d="M100.08,91.76l0.9-4.32"/><path class="cls-1" d="M112,91.4a7,7,0,0,1,6.13-7.93,6.88,6.88,0,0,1,6.85,5.41"/><path class="cls-1" d="M97.87,73a7,7,0,0,1,8.62-5.1,6.88,6.88,0,0,1,4.36,7.55"/><path class="cls-1" d="M117.38,83.11c-0.75-4.58-4-7.92-7.57-8.29a8,8,0,0,0-5.41,1.62"/><path class="cls-1" d="M112.33,88.69a4.77,4.77,0,0,1-3.6-.18,4.56,4.56,0,0,1-1.8-1.62"/><path class="cls-1" d="M65.31,89.77A7.75,7.75,0,0,1,79.9,90"/><path class="cls-1" d="M64.38,73.13a3.93,3.93,0,0,1,3.5,1.75c1.32,2.49-2.19,6.17-3.75,7.5-1.11.94-2.73,2.32-4.75,2-0.09,0-2.21-.38-2.75-1.87s0.64-2.79,2.5-5.12C61.3,74.64,62.47,73.18,64.38,73.13Z"/><path class="cls-1" d="M126.88,79.88c0.07,2.68,3,4.24,4.13,4.88s3,1.64,4.5.75a2.65,2.65,0,0,0,1.25-2c0.08-1.23-1-1.8-4.25-4.87-2.21-2.05-2.62-2.61-3.37-2.5C127.84,76.31,126.83,78.24,126.88,79.88Z"/><path class="cls-1" d="M79.25,71.88a15.78,15.78,0,0,1,4.13-4.37c1.68-1.2,4.4-3.14,6.5-2.12a3.37,3.37,0,0,1,1.88,3.13,3.91,3.91,0,0,1-1.62,2.38A9.9,9.9,0,0,1,86.38,73"/><path class="cls-1" d="M64.75,58.38a4.43,4.43,0,0,1,.5-2.5c1-1.72,3-2.15,5.5-2.62,3.66-.7,5.7-1.09,7,0.25a4.25,4.25,0,0,1,.38,5.13,4.36,4.36,0,0,1-5.25,1.5"/><path class="cls-1" d="M33.38,96.88A8.32,8.32,0,0,1,47.5,90.5"/><path class="cls-1" d="M39.63,88a4.26,4.26,0,0,1,1.63-3.75"/><path class="cls-1" d="M51.25,82.88a4.89,4.89,0,0,1,3.25,2.5,4.78,4.78,0,0,1,.25,3.5"/><path class="cls-1" d="M48.63,75.38a7.22,7.22,0,0,1,7.63-2,6.47,6.47,0,0,1,3.13,2.75"/><path class="cls-1" d="M55.38,86.25a3,3,0,0,1,2.13-2.5"/><path class="cls-1" d="M64.25,82.63A4.29,4.29,0,0,1,69,85.5"/><path class="cls-1" d="M71.88,84.63a4.86,4.86,0,0,1,3.63-3.75"/><path class="cls-1" d="M87.13,80.25a3.48,3.48,0,0,1,2.63.88,3.37,3.37,0,0,1,1,1.88"/><path class="cls-1" d="M93.33,81.5A7.17,7.17,0,0,1,94,76.17a6.52,6.52,0,0,1,5.17-3.33,6.18,6.18,0,0,1,5.5,3.17"/><path class="cls-1" d="M115.52,43.17c0.29,0.41,2.45,3.51.9,6.49-1.27,2.45-4.24,3.26-6.49,2.88a6.83,6.83,0,0,1-5.59-7.21,6.1,6.1,0,0,1,4-5C111.3,39.29,114.17,41.29,115.52,43.17Z"/><path class="cls-1" d="M76.42,34c1.94,2.52.93,7-2,9a7.19,7.19,0,0,1-9.91-2.34,5.76,5.76,0,0,1,0-5.41c1.2-2.14,3.52-2.64,4.68-2.88C69.9,32.21,74.33,31.27,76.42,34Z"/><path class="cls-1" d="M127.41,37.4c-3.55,2-9.13-1.09-9.37-4.68-0.19-2.77,2.81-5.76,6.13-5.95a6,6,0,0,1,5.59,2.88A6.08,6.08,0,0,1,127.41,37.4Z"/><path class="cls-1" d="M95.52,20.83c3.84,0.41,6.87,4.61,6.13,7.21-1,3.46-9,5.31-11.71,2a6,6,0,0,1,.36-7.21A6.3,6.3,0,0,1,95.52,20.83Z"/><path class="cls-1" d="M67.77,32.18A6.24,6.24,0,0,0,65.43,30c-2.16-1.12-5.77-1.23-7.57,1.26a5.61,5.61,0,0,0,.36,6.67,5.87,5.87,0,0,0,5.77,2"/><path class="cls-1" d="M127.8,41.65a3.93,3.93,0,0,0-3.5,1.75c-1.32,2.49,2.19,6.17,3.75,7.5,1.11,0.94,2.73,2.32,4.75,2,0.09,0,2.21-.38,2.75-1.87s-0.64-2.79-2.5-5.12C130.87,43.17,129.71,41.71,127.8,41.65Z"/><path class="cls-1" d="M112.92,40.4A15.78,15.78,0,0,0,108.8,36c-1.68-1.2-4.4-3.14-6.5-2.12A3.37,3.37,0,0,0,100.42,37,3.91,3.91,0,0,0,102,39.4a9.9,9.9,0,0,0,3.75,2.13"/><path class="cls-1" d="M127.42,26.9a4.43,4.43,0,0,0-.5-2.5c-1-1.72-3-2.15-5.5-2.62-3.66-.7-5.7-1.09-7,0.25a4.25,4.25,0,0,0-.37,5.13,4.36,4.36,0,0,0,5.25,1.5"/><path class="cls-1" d="M98.84,50c1.18-2.14-.45-5-0.67-5.33A6.6,6.6,0,0,0,93,41.36a5.76,5.76,0,0,0-5.5,3.17,5.62,5.62,0,0,0,1,5.8C91.14,53.36,97.24,52.93,98.84,50Z"/><path class="cls-1" d="M122,83.83a5,5,0,0,1,2.33-2.67,4.85,4.85,0,0,1,2.67-.5"/><path class="cls-1" d="M135.5,85.67a3.47,3.47,0,0,1,.83,1.83,3.55,3.55,0,0,1-.67,2.5"/><path class="cls-1" d="M141.5,84.67a4.16,4.16,0,0,0-.83,3.67,3.82,3.82,0,0,0,1.5,2"/><path class="cls-1" d="M150.33,82.33a5.41,5.41,0,0,1,3.33,3.33A5.09,5.09,0,0,1,153.5,89"/><path class="cls-1" d="M119.17,132.08a26.42,26.42,0,0,0-1.67-10.58L114,103.83l-4.45,10.95a47,47,0,0,0-20.16-.69L82.17,104l-2.5,18.67a24.36,24.36,0,0,0-1.21,9.41,23.8,23.8,0,0,0,.67,4.15l-2,2.43,2.58,1.17L79,143.25l3.31,0.4A19.46,19.46,0,0,0,88,149.33a19.86,19.86,0,0,0,10.81,3.1A20.09,20.09,0,0,0,111,148.67a18.8,18.8,0,0,0,3.88-3.88l3.54-.2L117,141.31l2.71-1.06-1.43-2.46A26,26,0,0,0,119.17,132.08Z"/><path class="cls-2" d="M88.75,129.5a1.83,1.83,0,0,0,2.67-.08,2,2,0,0,0-1.33-2.5,1.51,1.51,0,0,0-1.42.42A1.68,1.68,0,0,0,88.75,129.5Z"/><path class="cls-2" d="M107.08,128.92a1.8,1.8,0,0,1,1.17-2.33,1.88,1.88,0,0,1,2.17,1.92,1.72,1.72,0,0,1-1.33,1.42A1.76,1.76,0,0,1,107.08,128.92Z"/><path class="cls-2" d="M101.83,133.13c0-.5-1.14-1.12-2.25-1.17s-2.43.53-2.42,1,0.74,0.31,1.42,1.08,0.58,1.47.92,1.5,0.44-.77,1.33-1.58C101.44,133.41,101.82,133.41,101.83,133.13Z"/><path class="cls-1" d="M93.5,118.17l-0.25-4.25"/><path class="cls-1" d="M99,119.75a34.55,34.55,0,0,0,0-3.5c0-1-.14-1.9-0.25-2.75"/><path class="cls-1" d="M103.58,119.33q0.15-5.41.08-5.42s-0.08.72-.17,2.17"/><path class="cls-1" d="M97.07,140.88c-0.15,2,.87,3.59,1.88,3.75s2.86-1.27,3-3.75"/><path class="cls-1" d="M99.88,81.63a2.84,2.84,0,0,0,3.38,2.88"/><path class="cls-1" d="M78.25,78.63a3,3,0,0,0,1.25,1.5,3.12,3.12,0,0,0,2.5.25"/><path class="cls-1" d="M113.25,56.25a3.36,3.36,0,0,1-4.5,4.38"/><path class="cls-1" d="M108.63,42.88a3.05,3.05,0,0,0-.5,5.38"/><path class="cls-1" d="M121,32.75a3.5,3.5,0,0,0,3.88,2.5"/><path class="cls-1" d="M91.38,26.13A4.26,4.26,0,0,0,93.63,29a4.32,4.32,0,0,0,5.13-1.75"/><path class="cls-1" d="M67.25,39.75a5.36,5.36,0,0,0,4.38,1,5.42,5.42,0,0,0,3.63-3.12"/><path class="cls-1" d="M63.88,63.13a4.24,4.24,0,0,0,1.75,3.38,4.18,4.18,0,0,0,5.25-1"/><path class="cls-1" d="M41.38,80.13A5.86,5.86,0,0,0,44.13,82a6.09,6.09,0,0,0,4.63-.5"/><path class="cls-1" d="M53.13,92.38a2.8,2.8,0,0,0-.37,4.38"/><path class="cls-1" d="M146.88,77.63A2.91,2.91,0,0,1,143.5,82"/><path class="cls-1" d="M156,92.38a3,3,0,0,1-.12,4.13"/><path class="cls-1" d="M116,86.88a3.26,3.26,0,0,0-.75,2.5,3.18,3.18,0,0,0,1,1.88"/><path class="cls-1" d="M141.13,93.75q0.58,2.88.63,2.88a6.72,6.72,0,0,0-.12-1"/><path class="cls-1" d="M72.88,92.5a5.14,5.14,0,0,1,.63,1.63,5.2,5.2,0,0,1-.12,2.5"/><path class="cls-1" d="M90.38,44a3.07,3.07,0,0,0-.5,3.25,3.12,3.12,0,0,0,2,1.63"/></svg>